<svg width="70" height="71" viewBox="0 0 70 71" fill="none" xmlns="http://www.w3.org/2000/svg">
<path d="M69.7624 0.910156H0.255615V70.4169H69.7624V0.910156Z" fill="#D0F224"/>
<path d="M46.9465 55.2126C48.3466 57.4986 50.1681 59.1789 53.3897 59.1789C56.0961 59.1789 57.8249 57.8263 57.8249 55.9573C57.8249 53.7177 56.0486 52.9244 53.0698 51.6214L51.4369 50.9208C46.7237 48.9129 43.5926 46.3974 43.5926 41.0796C43.5926 36.181 47.325 32.4519 53.158 32.4519C57.3108 32.4519 60.2963 33.8972 62.4477 37.6815L57.3615 40.9472C56.2417 38.9392 55.0336 38.1481 53.158 38.1481C51.2449 38.1481 50.0324 39.3618 50.0324 40.9472C50.0324 42.9066 51.246 43.6999 54.0484 44.9135L55.6812 45.613C61.2307 47.9927 64.3641 50.4189 64.3641 55.8735C64.3641 61.754 59.7446 64.9756 53.5409 64.9756C47.475 64.9756 43.5562 62.085 41.6387 58.2963L46.9465 55.2126ZM23.8736 55.7786C24.8997 57.599 25.833 59.1381 28.0771 59.1381C30.223 59.1381 31.5767 58.2985 31.5767 55.0339V32.8248H38.1082V55.1221C38.1082 61.8853 34.143 64.9634 28.3551 64.9634C23.1256 64.9634 20.0971 62.2571 18.5569 58.9974L23.8736 55.7786Z" fill="black"/>
</svg>
