<svg width="45" height="45" viewBox="0 0 45 45" fill="none" xmlns="http://www.w3.org/2000/svg">
<circle cx="22.5" cy="22.5" r="22.5" fill="#313243"/>
<path d="M29.1428 18.4286H28.0714V16.2857C28.0714 13.3286 25.6714 10.9286 22.7143 10.9286C19.7571 10.9286 17.3571 13.3286 17.3571 16.2857V18.4286H16.2857C15.1071 18.4286 14.1428 19.3929 14.1428 20.5714V31.2857C14.1428 32.4643 15.1071 33.4286 16.2857 33.4286H29.1428C30.3214 33.4286 31.2857 32.4643 31.2857 31.2857V20.5714C31.2857 19.3929 30.3214 18.4286 29.1428 18.4286ZM22.7143 28.0714C21.5357 28.0714 20.5714 27.1072 20.5714 25.9286C20.5714 24.75 21.5357 23.7857 22.7143 23.7857C23.8928 23.7857 24.8571 24.75 24.8571 25.9286C24.8571 27.1072 23.8928 28.0714 22.7143 28.0714ZM26.0357 18.4286H19.3928V16.2857C19.3928 14.4536 20.8821 12.9643 22.7143 12.9643C24.5464 12.9643 26.0357 14.4536 26.0357 16.2857V18.4286Z" fill="#D0F224"/>
</svg>
