<svg width="45" height="45" viewBox="0 0 45 45" fill="none" xmlns="http://www.w3.org/2000/svg">
<circle cx="22.5" cy="22.5" r="22.5" fill="#313243"/>
<g clip-path="url(#clip0)">
<path d="M30.375 20.4C29.6464 16.7036 26.4 13.9286 22.5 13.9286C19.4035 13.9286 16.7143 15.6857 15.375 18.2572C12.15 18.6 9.64282 21.3322 9.64282 24.6429C9.64282 28.1893 12.525 31.0714 16.0714 31.0714H30C32.9571 31.0714 35.3571 28.6714 35.3571 25.7143C35.3571 22.8857 33.1607 20.5929 30.375 20.4ZM20.3571 27.8572L16.6071 24.1072L18.1178 22.5964L20.3571 24.825L25.9071 19.2857L27.4178 20.7964L20.3571 27.8572Z" fill="#D0F224"/>
</g>
<defs>
<clipPath id="clip0">
<rect width="25.7143" height="25.7143" fill="white" transform="translate(9.64282 9.64288)"/>
</clipPath>
</defs>
</svg>
