<svg width="115" height="45" viewBox="0 0 115 45" fill="none" xmlns="http://www.w3.org/2000/svg">
<path d="M50.1901 35.7353V19.8529H56.449C60.0444 19.8529 62.1329 22.0764 62.1329 25.2331C62.1329 28.4095 60.0113 30.5867 56.3631 30.5867H53.5343V35.7353H50.1835H50.1901ZM53.5343 27.8933H55.8145C57.7312 27.8933 58.6697 26.8081 58.6697 25.2331C58.6697 23.6514 57.7312 22.5992 55.7947 22.5992H53.5343V27.8933ZM66.4092 35.9603C64.1421 35.9603 62.4567 34.7691 62.4567 32.4066C62.4567 29.7463 64.5717 28.9588 66.9314 28.7404C68.9934 28.5419 69.8064 28.436 69.8064 27.6683V27.622C69.8064 26.6492 69.1653 26.0801 68.0417 26.0801C66.8587 26.0801 66.1515 26.6625 65.9266 27.45L62.8797 27.2051C63.3358 25.0345 65.2062 23.6713 68.0615 23.6713C70.7052 23.6713 73.111 24.8625 73.111 27.7014V35.7353H69.9782V34.0808H69.8857C69.3041 35.1926 68.1673 35.9603 66.4092 35.9603ZM67.3544 33.6772C68.8084 33.6772 69.8328 32.7242 69.8328 31.4801V30.2161C69.4363 30.4808 68.2598 30.6463 67.5394 30.7456C66.3762 30.911 65.6093 31.3676 65.6093 32.3007C65.6093 33.2073 66.3365 33.6772 67.3544 33.6772ZM80.1233 40.447C76.9113 40.447 75.0805 39.011 74.684 37.1316L77.7374 36.7213C78.0018 37.4426 78.742 38.0779 80.196 38.0779C81.6302 38.0779 82.6745 37.4426 82.6745 35.8081V33.6242H82.5423C82.1061 34.6169 81.042 35.5632 79.1452 35.5632C76.4618 35.5632 74.3204 33.7169 74.3204 29.7529C74.3204 25.7029 76.5279 23.6647 79.1386 23.6647C81.1213 23.6647 82.0929 24.8558 82.5357 25.822H82.6613V23.8235H85.9394V35.8544C85.9394 38.8985 83.5205 40.447 80.1233 40.447ZM80.1894 33.0816C81.7756 33.0816 82.6943 31.8441 82.6943 29.7397C82.6943 27.6551 81.7955 26.2985 80.1894 26.2985C78.5569 26.2985 77.6911 27.7147 77.6911 29.7397C77.6911 31.7911 78.5702 33.0816 80.1894 33.0816ZM93.0773 35.9669C89.4159 35.9669 87.1753 33.611 87.1753 29.8323C87.1753 26.1595 89.4489 23.6713 92.9452 23.6713C96.0911 23.6713 98.5365 25.6698 98.5365 29.7198V30.6264H90.4403C90.4403 32.4132 91.4845 33.5051 93.1368 33.5051C94.234 33.5051 95.0865 33.0286 95.417 32.1154L98.4705 32.3206C98.0078 34.5308 96.025 35.9669 93.0773 35.9669ZM90.4337 28.575H95.4368C95.4494 28.2514 95.3959 27.9286 95.2782 27.6269C95.1606 27.3252 94.9821 27.0511 94.7534 26.8218C94.5254 26.5924 94.2518 26.4129 93.9511 26.2944C93.6497 26.1759 93.3278 26.1209 93.0046 26.1331C92.3404 26.1188 91.698 26.3684 91.2175 26.8273C90.737 27.2862 90.4575 27.9169 90.4403 28.5816L90.4337 28.575ZM109.68 27.2183L106.659 27.4036C106.494 26.636 105.813 26.0139 104.67 26.0139C103.645 26.0139 102.839 26.4772 102.846 27.1919C102.846 27.761 103.249 28.1448 104.359 28.3831L106.514 28.8198C108.82 29.2897 109.944 30.322 109.951 32.0426C109.944 34.3919 107.737 35.9669 104.65 35.9669C101.497 35.9669 99.561 34.5639 99.2569 32.2875L102.495 32.1154C102.7 33.0816 103.487 33.5845 104.663 33.5845C105.813 33.5845 106.58 33.0816 106.593 32.3801C106.58 31.7845 106.111 31.4007 105.073 31.1889L103.011 30.7786C100.685 30.3154 99.561 29.1573 99.5742 27.3772C99.561 25.0808 101.57 23.6713 104.61 23.6713C107.618 23.6713 109.382 25.0279 109.68 27.2183Z" fill="#FAFAFF"/>
<path d="M55.6095 11.8191H54.2745C54.1754 11.1308 53.6532 10.7073 52.9328 10.7073C51.9612 10.7073 51.3268 11.4551 51.3268 12.7588C51.3268 14.0889 51.9745 14.797 52.9196 14.797C53.6268 14.797 54.1489 14.4132 54.2745 13.7382L55.6095 13.7514C55.4707 14.9029 54.4992 15.9683 52.8997 15.9683C51.2276 15.9683 49.9917 14.797 49.9917 12.7522C49.9917 10.7073 51.2474 9.5426 52.8997 9.5426C54.3472 9.5426 55.4377 10.3698 55.6095 11.8191ZM57.48 9.62863V15.8823H56.1779V9.62863H57.48ZM60.2756 15.975C58.848 15.975 57.9624 15.0022 57.9624 13.5529C57.9624 12.097 58.848 11.1308 60.2756 11.1308C61.6966 11.1308 62.5823 12.097 62.5823 13.5529C62.5823 15.0022 61.6966 15.975 60.2691 15.975H60.2756ZM60.2756 14.9691C60.9233 14.9691 61.2604 14.3669 61.2604 13.5463C61.2604 12.7257 60.9233 12.1235 60.2756 12.1235C59.6213 12.1235 59.2842 12.7257 59.2842 13.5463C59.2842 14.3669 59.6213 14.9691 60.2756 14.9691ZM66.0719 13.8838V11.1904H67.3741V15.8823H66.125V15.0286H66.0785C65.8671 15.5779 65.3581 15.9419 64.6576 15.9419C63.7125 15.9419 63.0713 15.2801 63.0713 14.175V11.1904H64.3667V13.9433C64.3667 14.4992 64.6906 14.8433 65.1797 14.8433C65.6423 14.8433 66.0785 14.5125 66.0719 13.8838ZM69.7733 15.9617C68.7158 15.9617 67.8764 15.1147 67.8764 13.5397C67.8764 11.9316 68.7489 11.1308 69.7733 11.1308C70.5598 11.1308 70.9365 11.5941 71.1083 11.9779H71.148V9.62863H72.4434V15.8823H71.1612V15.1279H71.1083C70.9966 15.3847 70.8096 15.6018 70.573 15.7506C70.3357 15.8994 70.0595 15.973 69.7799 15.9617H69.7733ZM70.1897 14.9227C70.8175 14.9227 71.181 14.3735 71.181 13.533C71.181 12.6992 70.8241 12.1632 70.1897 12.1632C69.5486 12.1632 69.2049 12.7257 69.2049 13.533C69.2049 14.3536 69.5552 14.9227 70.1963 14.9227H70.1897ZM75.6753 11.1904V12.1698H74.7368V15.8823H73.4414V12.1698H72.7805V11.1838H73.4414V10.8463C73.4414 9.82054 74.1023 9.32422 74.9747 9.32422C75.3779 9.32422 75.7348 9.40363 75.9 9.45657L75.6687 10.4294C75.5629 10.3963 75.4043 10.3632 75.2523 10.3632C74.869 10.3632 74.7368 10.5485 74.7368 10.8661V11.1838H75.6687L75.6753 11.1904ZM77.4069 9.62863V15.8823H76.1049V9.62863H77.4069ZM79.4161 15.9683C78.5239 15.9683 77.8629 15.5051 77.8629 14.572C77.8629 13.5264 78.6957 13.2154 79.621 13.1294C80.4405 13.05 80.7578 13.0102 80.7578 12.7058V12.686C80.7578 12.3022 80.5066 12.0772 80.0638 12.0772C79.6012 12.0772 79.317 12.3088 79.231 12.6198L78.0282 12.5205C78.2066 11.6602 78.9468 11.1308 80.0704 11.1308C81.1147 11.1308 82.0532 11.5941 82.0532 12.7191V15.8823H80.8239V15.2338H80.7908C80.5595 15.6705 80.1101 15.9683 79.4161 15.9683ZM79.7928 15.075C80.3612 15.075 80.7644 14.6977 80.7644 14.208V13.7051C80.6124 13.811 80.1497 13.8772 79.8655 13.9169C79.4029 13.983 79.1055 14.1617 79.1055 14.5257C79.1055 14.8897 79.3897 15.075 79.7928 15.075ZM82.7075 15.8823V11.1838H83.9632V12.011H84.0161C84.1879 11.4286 84.6175 11.1242 85.1397 11.1242C85.2719 11.1242 85.4371 11.1441 85.5494 11.1705V12.322C85.3697 12.2767 85.1853 12.2545 85.0009 12.2558C84.4325 12.2558 84.0095 12.6529 84.0095 13.2286V15.8823H82.7075ZM87.7767 15.975C86.3359 15.975 85.4503 15.0485 85.4503 13.5595C85.4503 12.1036 86.3491 11.1308 87.7239 11.1308C88.9664 11.1308 89.9313 11.9183 89.9313 13.5132V13.8705H86.7391C86.7391 14.572 87.1489 15.0022 87.7966 15.0022C88.2328 15.0022 88.5698 14.8169 88.6954 14.4595L89.8983 14.5389C89.7198 15.4058 88.9333 15.975 87.7833 15.975H87.7767ZM86.7391 13.0632H88.702C88.702 12.5007 88.3055 12.097 87.7437 12.097C87.4826 12.0934 87.2315 12.1928 87.0431 12.3736C86.8554 12.5545 86.7457 12.8022 86.7391 13.0632Z" fill="#FAFAFF"/>
<path d="M30.3627 6.61768H39.6552L40.9771 7.94121V37.0589L39.6552 38.3824H26.992L27.6331 37.3897H39.2455L39.9857 36.6486V8.3515L39.2455 7.61032H31.2351L30.29 12.5008H29.2788L30.1843 7.564L30.3693 6.61768H30.3627ZM7.93109 38.3824L6.60925 37.0589V7.94121L7.93109 6.61768H21.0834L20.4159 7.61032H8.34086L7.60063 8.3515V36.6486L8.34086 37.3897H17.911L17.7524 38.3824H7.93109ZM9.91385 35.0736H15.5317L15.3334 36.0662H9.25293L8.92247 35.7353V29.7794L9.91385 31.7647V35.0736ZM32.3851 35.0736L33.3765 36.0662H28.4196L29.0805 35.0736H32.3851Z" fill="#FAFAFF"/>
<path d="M21.5923 26.4706H12.5575L11.4604 24.4059L26.6616 1.90588L29.0541 2.89853L26.0535 18.5294H35.0288L36.1391 20.5743L21.5989 43.0743L19.1799 42.1478L21.5923 26.4706ZM10.2443 11.25C9.9814 11.25 9.72919 11.1454 9.54327 10.9593C9.35735 10.7731 9.25293 10.5206 9.25293 10.2574C9.25293 9.9941 9.35735 9.74158 9.54327 9.55542C9.72919 9.36927 9.9814 9.26471 10.2443 9.26471C10.5072 9.26471 10.7594 9.36927 10.9453 9.55542C11.1313 9.74158 11.2357 9.9941 11.2357 10.2574C11.2357 10.5206 11.1313 10.7731 10.9453 10.9593C10.7594 11.1454 10.5072 11.25 10.2443 11.25ZM12.888 11.25C12.6251 11.25 12.3729 11.1454 12.187 10.9593C12.001 10.7731 11.8966 10.5206 11.8966 10.2574C11.8966 9.9941 12.001 9.74158 12.187 9.55542C12.3729 9.36927 12.6251 9.26471 12.888 9.26471C13.1509 9.26471 13.4031 9.36927 13.589 9.55542C13.7749 9.74158 13.8794 9.9941 13.8794 10.2574C13.8794 10.5206 13.7749 10.7731 13.589 10.9593C13.4031 11.1454 13.1509 11.25 12.888 11.25ZM15.5317 11.25C15.2688 11.25 15.0165 11.1454 14.8306 10.9593C14.6447 10.7731 14.5403 10.5206 14.5403 10.2574C14.5403 9.9941 14.6447 9.74158 14.8306 9.55542C15.0165 9.36927 15.2688 9.26471 15.5317 9.26471C15.7946 9.26471 16.0468 9.36927 16.2327 9.55542C16.4186 9.74158 16.523 9.9941 16.523 10.2574C16.523 10.5206 16.4186 10.7731 16.2327 10.9593C16.0468 11.1454 15.7946 11.25 15.5317 11.25Z" fill="#FAFAFF"/>
</svg>
