<svg width="130" height="40" viewBox="0 0 130 40" fill="none" xmlns="http://www.w3.org/2000/svg">
<g clip-path="url(#clip0)">
<path d="M19.5037 0.396973H0V39.7022H19.5037C29.2804 39.7022 39.0571 30.9181 39.0571 20.0496C39.0571 9.18109 29.2804 0.396973 19.5037 0.396973ZM19.5037 28.9826C17.7369 28.9826 16.0098 28.4587 14.5408 27.4771C13.0718 26.4955 11.9268 25.1004 11.2507 23.4681C10.5746 21.8358 10.3977 20.0397 10.7424 18.3068C11.087 16.574 11.9378 14.9823 13.1871 13.733C14.4364 12.4837 16.0281 11.6329 17.761 11.2882C19.4938 10.9435 21.2899 11.1204 22.9222 11.7966C24.5545 12.4727 25.9497 13.6176 26.9312 15.0867C27.9128 16.5557 28.4367 18.2828 28.4367 20.0496C28.4367 22.4188 27.4956 24.6909 25.8203 26.3662C24.145 28.0414 21.8729 28.9826 19.5037 28.9826Z" fill="url(#paint0_linear)"/>
<path d="M59.0572 0.44665C64.9629 0.44665 67.9902 3.97022 67.9902 8.88338V13.3002C67.9902 18.1638 64.9629 21.737 59.0572 21.737H49.7768V0.397022L59.0572 0.44665ZM62.7297 8.88338C62.7297 6.15385 61.2905 4.71464 58.1639 4.71464H54.9877V17.469H58.1639C61.2905 17.469 62.7297 15.9801 62.7297 13.3002V8.88338ZM84.2185 17.8164H76.427L75.2359 21.7866H70.025L77.618 0.44665H82.9778L90.6205 21.7866H85.36L84.2185 17.8164ZM77.7669 13.598H82.9282L80.3475 5.16129L77.7669 13.598ZM107.196 0.44665V4.86352H101.439V21.737H96.2781V4.86352H90.5212V0.397022L107.196 0.44665ZM119.901 22.1836C113.449 22.1836 110.124 18.0149 110.124 12.4566V9.72705C110.124 4.11911 113.449 0 119.901 0C126.353 0 129.678 4.11911 129.678 9.72705V12.4069C129.678 17.9653 126.353 22.134 119.901 22.134V22.1836ZM119.901 4.31762C116.824 4.31762 115.335 6.40199 115.335 9.42928V12.7047C115.335 15.7816 116.824 17.8164 119.901 17.8164C122.978 17.8164 124.417 15.7816 124.417 12.7047V9.42928C124.417 6.40199 122.928 4.36725 119.901 4.36725V4.31762ZM54.3922 37.3201C54.7252 37.355 55.0619 37.3193 55.3802 37.2153C55.6985 37.1113 55.9913 36.9414 56.2395 36.7166C56.4877 36.4918 56.6857 36.2172 56.8206 35.9108C56.9555 35.6043 57.0243 35.2728 57.0225 34.938H60.0002C59.9505 37.6675 57.9158 40 54.4915 40C50.4716 40 48.5361 37.469 48.5361 34.0447V32.3573C48.5361 28.9826 50.4716 26.4516 54.4915 26.4516C57.9158 26.4516 59.9505 28.7345 59.9505 31.5136H56.9729C56.9804 31.1837 56.9193 30.8559 56.7934 30.5508C56.6676 30.2458 56.4797 29.9702 56.2417 29.7416C56.0038 29.5129 55.7209 29.3362 55.4111 29.2227C55.1012 29.1091 54.7712 29.0612 54.4418 29.0819C52.4567 29.0819 51.7123 30.3722 51.7123 32.2084V34.1936C51.7123 36.0794 52.5064 37.3201 54.4418 37.3201H54.3922ZM72.8041 26.6998H75.7818V39.7022H72.7049V32.8536L70.6701 36.8238H68.1391L66.1044 32.8536V39.7022H63.0274V26.6998H66.0051L69.3798 33.7965L72.8041 26.6998ZM84.1193 40C80.9927 40 78.9083 38.5112 78.9083 35.8809V35.5335H81.9853V35.7816C81.9853 36.8735 82.6801 37.5682 84.1193 37.5682C85.4592 37.5682 86.3525 37.0223 86.3525 35.9801C86.369 35.7136 86.2872 35.4502 86.1226 35.2398C85.958 35.0295 85.722 34.8868 85.4592 34.8387L82.1838 34.0447C80.1987 33.5484 79.1068 32.6551 79.1068 30.5211C79.1068 27.9404 80.9431 26.4516 84.0696 26.4516C86.948 26.4516 88.8339 28.0397 88.8339 30.4218V30.7196H85.8562V30.5211C85.8562 29.6278 85.36 28.8834 84.0696 28.8834C82.9282 28.8834 82.2334 29.2804 82.2334 30.2233C82.2183 30.4711 82.2965 30.7155 82.4527 30.9084C82.6088 31.1013 82.8316 31.2287 83.0771 31.2655L86.551 32.2581C88.5858 32.7543 89.4294 33.9454 89.4294 35.732C89.4294 38.3127 87.1466 40 84.1193 40Z" fill="#FF7751"/>
</g>
<defs>
<linearGradient id="paint0_linear" x1="0" y1="20.0496" x2="39.0571" y2="20.0496" gradientUnits="userSpaceOnUse">
<stop stop-color="#FF593D"/>
<stop offset="1" stop-color="#FF7751"/>
</linearGradient>
<clipPath id="clip0">
<rect width="129.677" height="40" fill="white"/>
</clipPath>
</defs>
</svg>
