<svg width="191" height="40" viewBox="0 0 191 40" fill="none" xmlns="http://www.w3.org/2000/svg">
<g clip-path="url(#clip0)">
<path d="M41.0991 6.5947L38.9009 4.39647L31.5604 11.6977V0H28.42V11.6977L21.0795 4.39647L18.8813 6.5947L28.42 16.1727V20.5692L21.0795 13.2679L12.6791 4.82826V0H9.53876V4.82826L0 14.4063L2.19823 16.6045L9.53876 9.30324V13.6997L0 23.2777L2.19823 25.476L9.53876 18.1747V40H12.6791V18.1747L20.0196 25.476L22.2179 23.2777L12.6791 13.6997V9.30324L18.8813 15.4661L19.5093 16.0942L20.0196 16.6045L28.42 25.0442V40H31.5604V25.0442L41.0991 15.4661L38.9009 13.2679L31.5604 20.5692V16.1727L41.0991 6.5947Z" fill="black"/>
<path d="M50.0098 29.9901H53.5426V21.7075H62.3748V18.4887H53.5426V13.2286H62.8851V10.0098H50.0098V29.9901Z" fill="black"/>
<path d="M83.0619 12.3259C82.1198 11.3838 80.9421 10.6772 79.686 10.2061C78.3121 9.69584 76.8597 9.46031 75.4073 9.49957C73.9549 9.49957 72.5417 9.73509 71.1679 10.2454C69.9117 10.7164 68.7733 11.423 67.8312 12.3651C66.8891 13.3072 66.1433 14.4456 65.633 15.7017C65.0835 17.0756 64.8087 18.5673 64.8479 20.0589C64.8087 21.5113 65.0835 22.9637 65.633 24.3376C66.6144 26.8499 68.6556 28.8126 71.1679 29.7547C72.5417 30.265 73.9549 30.5005 75.4073 30.5005C76.8597 30.5005 78.3121 30.2258 79.686 29.7155C80.9421 29.2444 82.0805 28.4986 83.0619 27.5565C84.004 26.6144 84.7498 25.5153 85.2601 24.2591C85.8097 22.8852 86.0844 21.4328 86.0452 19.9804C86.0844 18.4888 85.8097 16.9971 85.2601 15.6232C84.7498 14.3671 84.004 13.268 83.0619 12.3259ZM81.845 22.846C81.5309 23.7096 81.0599 24.5339 80.4318 25.2012C79.843 25.8686 79.0972 26.4181 78.2729 26.7714C77.37 27.1639 76.4279 27.321 75.4466 27.321C74.4652 27.3602 73.5231 27.1639 72.6203 26.7714C71.7959 26.4181 71.0501 25.8686 70.4613 25.2012C69.8332 24.5339 69.3622 23.7096 69.0481 22.846C68.6948 21.9039 68.5378 20.9225 68.5378 19.9019C68.5378 18.9598 68.6948 18.0177 69.0481 17.1149C69.3622 16.2905 69.8332 15.5055 70.4613 14.8381C71.0501 14.1708 71.7959 13.6605 72.6203 13.3072C73.5231 12.9147 74.4652 12.7577 75.4466 12.7577C76.4279 12.7577 77.37 12.9147 78.2729 13.3072C79.0972 13.6605 79.843 14.1708 80.4318 14.8381C81.0599 15.5055 81.5309 16.2905 81.845 17.1149C82.1983 18.0177 82.3553 18.9598 82.3553 19.9019C82.3553 20.9225 82.1983 21.9039 81.845 22.846Z" fill="black"/>
<path d="M101.982 19.3915C102.807 18.3709 103.239 17.0755 103.199 15.7409C103.239 14.7595 103.003 13.8174 102.571 12.9538C102.179 12.2473 101.629 11.6192 100.923 11.1874C100.177 10.7556 99.3916 10.4416 98.528 10.2845C97.6252 10.0883 96.6831 10.0098 95.741 10.0098H88.793V29.9901H92.3651V21.5505H94.9559L99.5879 30.0294H103.867L98.5673 21.158C99.9019 21.0402 101.119 20.4121 101.982 19.3915ZM96.6438 18.4102L95.1129 18.4887H92.3651V13.0716H95.4269L96.8401 13.1501C97.2719 13.1894 97.7429 13.3071 98.1355 13.5034C98.528 13.6604 98.842 13.9352 99.0776 14.2885C99.3523 14.7203 99.4701 15.1913 99.4309 15.7016C99.4701 16.2512 99.3131 16.7615 99.0383 17.2325C98.7635 17.5858 98.4102 17.8999 98.0177 18.0569C97.5859 18.2531 97.1149 18.3709 96.6438 18.4102Z" fill="black"/>
<path d="M109.873 21.3542H119.058V18.1354H109.873V13.2286H119.569V10.0098H106.34V29.9901H120.079V26.7713H109.873V21.3542Z" fill="black"/>
<path d="M133.464 19.5486C132.758 19.1168 131.973 18.7636 131.188 18.528L128.911 17.7822C128.283 17.5467 127.694 17.2326 127.144 16.8401C126.673 16.4476 126.399 15.8587 126.438 15.2699C126.438 14.8774 126.516 14.4456 126.713 14.0923C126.909 13.7783 127.144 13.5035 127.458 13.3072C127.772 13.1109 128.126 12.9539 128.518 12.8754C128.911 12.7577 129.343 12.7184 129.735 12.7184C130.402 12.7184 131.109 12.8362 131.737 13.1109C132.326 13.3465 132.875 13.7783 133.229 14.3278L135.82 11.58C135.074 10.8735 134.132 10.3239 133.15 10.0099C132.169 9.69584 131.109 9.53882 130.088 9.53882C129.186 9.53882 128.243 9.65658 127.38 9.89211C126.516 10.1276 125.731 10.4809 125.025 10.9912C124.357 11.5015 123.768 12.1296 123.376 12.8754C122.944 13.6998 122.709 14.6026 122.748 15.5447C122.709 16.5261 122.944 17.5074 123.454 18.371C123.926 19.0776 124.514 19.6271 125.221 20.0589C125.927 20.4907 126.713 20.844 127.498 21.0795L129.774 21.8646C130.402 22.1002 131.031 22.4534 131.541 22.8852C132.012 23.317 132.287 23.9451 132.247 24.5732C132.247 25.005 132.13 25.4368 131.933 25.79C131.737 26.1433 131.462 26.4181 131.109 26.6536C130.756 26.8892 130.363 27.0462 129.971 27.1639C128.793 27.478 127.537 27.321 126.477 26.7714C125.81 26.4181 125.221 25.8686 124.789 25.2405L122.081 27.792C122.866 28.7341 123.886 29.4407 125.025 29.8725C126.163 30.3043 127.38 30.5005 128.597 30.5005C129.539 30.5005 130.481 30.3828 131.384 30.108C132.208 29.8725 132.993 29.4799 133.7 28.9304C134.367 28.3808 134.917 27.7135 135.309 26.9284C135.741 26.0256 135.937 25.0835 135.898 24.1021C135.937 23.0815 135.702 22.1002 135.191 21.2366C134.76 20.5692 134.171 19.9804 133.464 19.5486Z" fill="black"/>
<path d="M137.429 13.2286H143.552V29.9901H147.085V13.2286H153.209V10.0098H137.429V13.2286Z" fill="black"/>
<path d="M169.539 19.3915C170.363 18.3709 170.795 17.0755 170.756 15.7409C170.795 14.7595 170.56 13.8174 170.128 12.9538C169.735 12.2473 169.186 11.6192 168.479 11.1874C167.733 10.7556 166.948 10.4416 166.085 10.2845C165.182 10.0883 164.24 10.0098 163.298 10.0098H156.35V29.9901H159.922V21.5505H162.513L167.144 30.0294H171.423L166.124 21.158C167.459 21.0402 168.675 20.4121 169.539 19.3915ZM164.2 18.4102L162.67 18.4887H159.922V13.0716H162.984L164.397 13.1501C164.828 13.1894 165.3 13.3071 165.692 13.5034C166.085 13.6604 166.399 13.9352 166.634 14.2885C166.909 14.7203 167.027 15.1913 166.987 15.7016C167.027 16.2512 166.87 16.7615 166.595 17.2325C166.32 17.5858 165.967 17.8999 165.574 18.0569C165.143 18.2531 164.671 18.3709 164.2 18.4102Z" fill="black"/>
<path d="M185.79 10.0098L180.805 17.9784L175.898 10.0098H171.462L178.96 21.4327V29.9901H182.493V21.4327L190.03 10.0098H185.79Z" fill="black"/>
</g>
<defs>
<clipPath id="clip0">
<rect width="190.029" height="40" fill="white"/>
</clipPath>
</defs>
</svg>
