<svg width="169" height="36" viewBox="0 0 169 36" fill="none" xmlns="http://www.w3.org/2000/svg">
<path d="M36.5509 5.93523L34.596 3.95682L28.0678 10.528V0H25.2749V10.528L18.7467 3.95682L16.7918 5.93523L25.2749 14.5554V18.5123L18.7467 11.9411L11.276 4.34544V0H8.48316V4.34544L0 12.9657L1.95497 14.9441L8.48316 8.37291V12.3297L0 20.9499L1.95497 22.9284L8.48316 16.3572V36H11.276V16.3572L17.8042 22.9284L19.7591 20.9499L11.276 12.3297V8.37291L16.7918 13.9195L17.3503 14.4848L17.8042 14.9441L25.2749 22.5397V36H28.0678V22.5397L36.5509 13.9195L34.596 11.9411L28.0678 18.5123V14.5554L36.5509 5.93523Z" fill="#FAFAFF"/>
<path d="M44.4756 26.9911H47.6175V19.5368H55.4723V16.6398H47.6175V11.9057H55.9261V9.00879H44.4756V26.9911Z" fill="#FAFAFF"/>
<path d="M73.8698 11.0932C73.032 10.2453 71.9847 9.60942 70.8675 9.18548C69.6457 8.72621 68.354 8.51423 67.0623 8.54956C65.7707 8.54956 64.5139 8.76153 63.292 9.22081C62.1749 9.64475 61.1625 10.2807 60.3247 11.1286C59.4868 11.9765 58.8235 13.001 58.3697 14.1315C57.881 15.368 57.6366 16.7105 57.6715 18.053C57.6366 19.3602 57.881 20.6673 58.3697 21.9038C59.2425 24.1649 61.0578 25.9313 63.292 26.7792C64.5139 27.2385 65.7707 27.4504 67.0623 27.4504C68.354 27.4504 69.6457 27.2031 70.8675 26.7439C71.9847 26.3199 72.9971 25.6487 73.8698 24.8008C74.7077 23.9529 75.3709 22.9637 75.8248 21.8332C76.3135 20.5967 76.5579 19.2895 76.523 17.9823C76.5579 16.6398 76.3135 15.2974 75.8248 14.0608C75.3709 12.9303 74.7077 11.9411 73.8698 11.0932ZM72.7876 20.5613C72.5083 21.3386 72.0894 22.0805 71.5308 22.6811C71.0072 23.2817 70.3439 23.7763 69.6108 24.0942C68.8078 24.4475 67.97 24.5888 67.0972 24.5888C66.2245 24.6241 65.3866 24.4475 64.5837 24.0942C63.8506 23.7763 63.1873 23.2817 62.6636 22.6811C62.1051 22.0805 61.6862 21.3386 61.4069 20.5613C61.0927 19.7135 60.9531 18.8302 60.9531 17.9117C60.9531 17.0638 61.0927 16.2159 61.4069 15.4033C61.6862 14.6614 62.1051 13.9549 62.6636 13.3543C63.1873 12.7537 63.8506 12.2944 64.5837 11.9765C65.3866 11.6232 66.2245 11.4818 67.0972 11.4818C67.97 11.4818 68.8078 11.6232 69.6108 11.9765C70.3439 12.2944 71.0072 12.7537 71.5308 13.3543C72.0894 13.9549 72.5083 14.6614 72.7876 15.4033C73.1018 16.2159 73.2414 17.0638 73.2414 17.9117C73.2414 18.8302 73.1018 19.7135 72.7876 20.5613Z" fill="#FAFAFF"/>
<path d="M90.6965 17.4524C91.4296 16.5338 91.8136 15.368 91.7787 14.1668C91.8136 13.2836 91.6041 12.4357 91.2201 11.6584C90.871 11.0225 90.3823 10.4573 89.7539 10.0687C89.0906 9.68004 88.3924 9.39741 87.6244 9.25609C86.8215 9.07945 85.9836 9.00879 85.1458 9.00879H78.9667V26.9911H82.1435V19.3954H84.4476L88.567 27.0265H92.3722L87.6593 19.0422C88.8463 18.9362 89.9285 18.3709 90.6965 17.4524ZM85.9487 16.5691L84.5872 16.6398H82.1435V11.7644H84.8665L86.1233 11.8351C86.5073 11.8704 86.9262 11.9764 87.2753 12.153C87.6244 12.2944 87.9037 12.5417 88.1131 12.8596C88.3575 13.2482 88.4622 13.6722 88.4273 14.1315C88.4622 14.6261 88.3226 15.0853 88.0782 15.5093C87.8339 15.8272 87.5197 16.1099 87.1706 16.2512C86.7865 16.4278 86.3676 16.5338 85.9487 16.5691Z" fill="#FAFAFF"/>
<path d="M97.7136 19.2188H105.883V16.3218H97.7136V11.9057H106.336V9.00879H94.5717V26.9911H106.79V24.0942H97.7136V19.2188Z" fill="#FAFAFF"/>
<path d="M118.694 17.5937C118.066 17.2051 117.368 16.8871 116.67 16.6751L114.645 16.0039C114.086 15.7919 113.563 15.5093 113.074 15.156C112.655 14.8027 112.411 14.2728 112.446 13.7428C112.446 13.3896 112.515 13.0009 112.69 12.683C112.864 12.4003 113.074 12.153 113.353 11.9764C113.633 11.7998 113.947 11.6584 114.296 11.5878C114.645 11.4818 115.029 11.4465 115.378 11.4465C115.972 11.4465 116.6 11.5525 117.158 11.7998C117.682 12.0117 118.171 12.4003 118.485 12.8949L120.789 10.4219C120.126 9.78602 119.288 9.29141 118.415 9.00878C117.542 8.72615 116.6 8.58484 115.692 8.58484C114.889 8.58484 114.051 8.69083 113.283 8.9028C112.515 9.11477 111.817 9.43273 111.189 9.892C110.595 10.3513 110.072 10.9165 109.723 11.5878C109.339 12.3297 109.129 13.1422 109.164 13.9901C109.129 14.8734 109.339 15.7566 109.792 16.5338C110.211 17.1697 110.735 17.6643 111.363 18.0529C111.992 18.4416 112.69 18.7595 113.388 18.9715L115.413 19.6781C115.972 19.89 116.53 20.208 116.984 20.5966C117.403 20.9852 117.647 21.5505 117.612 22.1158C117.612 22.5044 117.508 22.893 117.333 23.2109C117.158 23.5289 116.914 23.7762 116.6 23.9882C116.286 24.2001 115.937 24.3415 115.587 24.4474C114.54 24.7301 113.423 24.5888 112.48 24.0942C111.887 23.7762 111.363 23.2816 110.979 22.7163L108.571 25.0127C109.269 25.8606 110.176 26.4965 111.189 26.8851C112.201 27.2738 113.283 27.4504 114.366 27.4504C115.203 27.4504 116.041 27.3444 116.844 27.0971C117.577 26.8851 118.276 26.5318 118.904 26.0372C119.497 25.5426 119.986 24.9421 120.335 24.2355C120.719 23.4229 120.894 22.575 120.859 21.6918C120.894 20.7733 120.684 19.89 120.231 19.1128C119.847 18.5122 119.323 17.9823 118.694 17.5937Z" fill="#FAFAFF"/>
<path d="M122.22 11.9057H127.666V26.9911H130.808V11.9057H136.254V9.00879H122.22V11.9057Z" fill="#FAFAFF"/>
<path d="M150.777 17.4524C151.51 16.5338 151.894 15.368 151.859 14.1668C151.894 13.2836 151.685 12.4357 151.301 11.6584C150.951 11.0225 150.463 10.4573 149.834 10.0687C149.171 9.68004 148.473 9.39741 147.705 9.25609C146.902 9.07945 146.064 9.00879 145.226 9.00879H139.047V26.9911H142.224V19.3954H144.528L148.647 27.0265H152.453L147.74 19.0422C148.927 18.9362 150.009 18.3709 150.777 17.4524ZM146.029 16.5691L144.668 16.6398H142.224V11.7644H144.947L146.204 11.8351C146.588 11.8704 147.007 11.9764 147.356 12.153C147.705 12.2944 147.984 12.5417 148.194 12.8596C148.438 13.2482 148.543 13.6722 148.508 14.1315C148.543 14.6261 148.403 15.0853 148.159 15.5093C147.914 15.8272 147.6 16.1099 147.251 16.2512C146.867 16.4278 146.448 16.5338 146.029 16.5691Z" fill="#FAFAFF"/>
<path d="M165.23 9.00879L160.796 16.1805L156.432 9.00879H152.488L159.155 19.2895V26.9911H162.297V19.2895L169 9.00879H165.23Z" fill="#FAFAFF"/>
</svg>
