<svg width="156" height="30" viewBox="0 0 156 30" fill="none" xmlns="http://www.w3.org/2000/svg">
<path d="M26.8061 12.414C28.2318 12.3447 29.4937 13.4637 29.6168 14.9073C30.15 21.8915 23.8327 29.7152 14.9303 29.9654C7.42813 30.1527 0.00830078 24.0758 0.00830078 14.8874C0.00830078 13.4393 1.19098 12.2654 2.61824 12.2654C4.0455 12.2654 5.20252 13.4393 5.20252 14.8874C5.20252 20.9313 10.0057 24.8428 14.8032 24.7231C20.7091 24.5571 24.5484 19.3831 24.3487 15.1586C24.2802 13.7122 25.3806 12.4835 26.8061 12.414Z" fill="#FAFAFF"/>
<path d="M20.3501 15.0906C20.3501 13.6081 21.5453 12.4062 23.0196 12.4062H26.9101C28.3845 12.4062 29.6167 13.6081 29.6167 15.0906C29.6167 16.5732 28.3845 17.775 26.9101 17.775H23.0196C21.5453 17.775 20.3501 16.5732 20.3501 15.0906Z" fill="#FAFAFF"/>
<path d="M12.1873 15.0945C12.1873 13.6098 13.3749 12.4062 14.8382 12.4062C16.3016 12.4062 17.4892 13.6098 17.4892 15.0945C17.4892 16.5792 16.3016 17.7829 14.8382 17.7829C13.3749 17.7829 12.1873 16.5792 12.1873 15.0945Z" fill="#FAFAFF"/>
<path fill-rule="evenodd" clip-rule="evenodd" d="M17.4155 2.53434C17.4748 3.98117 16.3667 5.20276 14.9407 5.26284C8.78474 5.52223 5.0266 10.4176 5.20952 15.0657C5.26647 16.5126 4.17968 17.7324 2.75355 17.7902C1.32742 17.848 0.0732984 16.6802 0.016355 15.2333C-0.281745 7.65867 5.95193 0.170478 14.7262 0.0234189C16.1523 -0.0366672 17.3563 1.08751 17.4155 2.53434Z" fill="#FAFAFF"/>
<path d="M49.3901 16.8361H54.3767C54.1242 17.7821 53.7261 18.6397 53.1823 19.4084C52.6579 20.1573 51.9683 20.7585 51.1138 21.2119C50.2592 21.6652 49.2201 21.8919 47.9966 21.8919C46.6563 21.8919 45.4425 21.5766 44.3548 20.9457C43.2867 20.315 42.4417 19.4379 41.8202 18.3144C41.1988 17.1711 40.888 15.8505 40.888 14.3525C40.888 12.8347 41.1988 11.524 41.8202 10.4201C42.4612 9.29661 43.3157 8.42933 44.384 7.81829C45.4716 7.20724 46.6758 6.90173 47.9966 6.90173C49.4144 6.90173 50.6185 7.1974 51.6091 7.78873C52.6191 8.38005 53.4056 9.1685 53.9688 10.154L56.7657 8.23221C55.8723 6.79332 54.6778 5.66979 53.1823 4.86165C51.7062 4.0535 49.9776 3.64941 47.9966 3.64941C46.4622 3.64941 45.0346 3.91551 43.7139 4.44771C42.4126 4.96019 41.2764 5.6895 40.3052 6.63563C39.3536 7.58175 38.6058 8.71514 38.062 10.0358C37.5376 11.3367 37.2754 12.7756 37.2754 14.3525C37.2754 15.9294 37.5376 17.3781 38.062 18.6987C38.5864 20.0194 39.3245 21.1626 40.2762 22.1285C41.2473 23.0943 42.3835 23.8432 43.6847 24.3755C44.9861 24.888 46.4039 25.1443 47.9382 25.1443C49.5697 25.1443 51.0167 24.8486 52.2791 24.2572C53.5416 23.6462 54.6001 22.8183 55.4547 21.7736C56.3092 20.729 56.9502 19.5365 57.3775 18.1961C57.8048 16.8361 57.999 15.3971 57.9601 13.8795H49.8061L49.3901 16.8361Z" fill="#FAFAFF"/>
<path d="M67.4295 14.5299L68.9737 11.8097C68.6629 11.4549 68.2939 11.1987 67.8665 11.041C67.4393 10.8833 66.9828 10.8044 66.4973 10.8044C65.934 10.8044 65.3805 10.9818 64.8367 11.3366C64.2928 11.6717 63.8267 12.1448 63.4383 12.7559V11.1001H60.321V24.7008H63.4383V17.0431C63.4383 16.0575 63.613 15.269 63.9627 14.6777C64.3123 14.0864 64.8755 13.7907 65.6524 13.7907C66.0409 13.7907 66.3614 13.8598 66.6138 13.9976C66.8663 14.1159 67.1382 14.2933 67.4295 14.5299Z" fill="#FAFAFF"/>
<path d="M70.5503 11.1001V24.7007H73.6385V11.1001H70.5503ZM70.1133 6.11142C70.1133 6.66333 70.3075 7.12654 70.696 7.50105C71.0844 7.87555 71.5506 8.06281 72.0944 8.06281C72.6577 8.06281 73.1334 7.87555 73.5219 7.50105C73.9104 7.12654 74.1047 6.66333 74.1047 6.11142C74.1047 5.55952 73.9104 5.0963 73.5219 4.72179C73.1334 4.34728 72.6577 4.16003 72.0944 4.16003C71.5506 4.16003 71.0844 4.34728 70.696 4.72179C70.3075 5.0963 70.1133 5.55952 70.1133 6.11142Z" fill="#FAFAFF"/>
<path d="M78.9216 17.9004C78.9216 16.5403 79.3198 15.4858 80.1161 14.7368C80.9125 13.968 81.8544 13.5837 82.942 13.5837C83.5441 13.5837 84.1365 13.7512 84.7193 14.0863C85.3019 14.4214 85.7874 14.9142 86.1759 15.5647C86.5643 16.1954 86.7585 16.9739 86.7585 17.9004C86.7585 18.8268 86.5643 19.6153 86.1759 20.2657C85.7874 20.8965 85.3019 21.3794 84.7193 21.7144C84.1365 22.0496 83.5441 22.2171 82.942 22.2171C81.8544 22.2171 80.9125 21.8426 80.1161 21.0936C79.3198 20.3249 78.9216 19.2604 78.9216 17.9004ZM75.6587 17.9004C75.6587 19.3984 75.9598 20.6796 76.5619 21.744C77.164 22.7887 77.9602 23.5968 78.9508 24.1685C79.9414 24.7204 81.0193 24.9963 82.1847 24.9963C83.1558 24.9963 84.0297 24.7796 84.8067 24.3458C85.603 23.8925 86.2536 23.2618 86.7585 22.4536V24.7007H89.9341V2.60938H86.7585V13.3471C86.2536 12.5389 85.603 11.9181 84.8067 11.4844C84.0297 11.0311 83.1558 10.8044 82.1847 10.8044C81.0193 10.8044 79.9414 11.0902 78.9508 11.6618C77.9602 12.2137 77.164 13.0219 76.5619 14.0863C75.9598 15.1309 75.6587 16.4023 75.6587 17.9004Z" fill="#FAFAFF"/>
<path d="M93.5101 19.7928L91.6748 21.5963C92.2963 22.6015 93.1218 23.4393 94.1511 24.1095C95.1999 24.7796 96.375 25.1147 97.6763 25.1147C99.0941 25.1147 100.25 24.7697 101.143 24.0798C102.056 23.3702 102.512 22.296 102.512 20.8571C102.512 20.0489 102.338 19.3887 101.988 18.8761C101.638 18.3637 101.182 17.9399 100.619 17.6047C100.055 17.25 99.4534 16.9445 98.8124 16.6882C98.3075 16.4715 97.7928 16.2743 97.2684 16.0969C96.7634 15.9195 96.3459 15.7125 96.0157 15.476C95.6854 15.2395 95.5204 14.934 95.5204 14.5594C95.5204 14.1455 95.6757 13.8498 95.9865 13.6724C96.3167 13.4754 96.7537 13.3768 97.2976 13.3768C97.8414 13.3768 98.4046 13.5345 98.9873 13.8498C99.5894 14.1653 100.114 14.5693 100.561 15.0621L102.308 13.2289C101.804 12.539 101.085 11.9674 100.153 11.514C99.2398 11.041 98.2395 10.8044 97.1519 10.8044C96.3555 10.8044 95.6079 10.9523 94.9086 11.2479C94.2094 11.5436 93.6462 11.9674 93.2188 12.5193C92.7916 13.0713 92.5779 13.7415 92.5779 14.5299C92.5779 15.3775 92.7625 16.0674 93.1315 16.5996C93.5199 17.112 94.0055 17.526 94.5881 17.8413C95.1708 18.1567 95.7729 18.4425 96.3944 18.6987C97.1712 18.9944 97.851 19.3098 98.4338 19.6449C99.0359 19.98 99.3368 20.4432 99.3368 21.0345C99.3368 21.4878 99.1718 21.8328 98.8416 22.0693C98.5308 22.2862 98.0938 22.3946 97.5306 22.3946C96.948 22.3946 96.2875 22.158 95.5495 21.685C94.8309 21.1922 94.1511 20.5614 93.5101 19.7928Z" fill="#FAFAFF"/>
<path d="M107.062 17.9004C107.062 16.6193 107.44 15.5844 108.198 14.796C108.975 14.0075 109.927 13.6133 111.053 13.6133C112.199 13.6133 113.151 14.0075 113.908 14.796C114.666 15.5844 115.044 16.6193 115.044 17.9004C115.044 19.1619 114.666 20.1967 113.908 21.0049C113.151 21.7933 112.199 22.1876 111.053 22.1876C109.927 22.1876 108.975 21.7933 108.198 21.0049C107.44 20.1967 107.062 19.1619 107.062 17.9004ZM103.828 17.9004C103.828 19.2999 104.139 20.5319 104.76 21.5963C105.401 22.6606 106.265 23.4983 107.353 24.1095C108.46 24.7008 109.693 24.9964 111.053 24.9964C112.432 24.9964 113.665 24.7008 114.753 24.1095C115.841 23.4983 116.695 22.6606 117.317 21.5963C117.958 20.5319 118.278 19.2999 118.278 17.9004C118.278 16.501 117.958 15.269 117.317 14.2047C116.695 13.1402 115.841 12.3124 114.753 11.721C113.665 11.11 112.432 10.8044 111.053 10.8044C109.693 10.8044 108.46 11.11 107.353 11.721C106.265 12.3124 105.401 13.1402 104.76 14.2047C104.139 15.269 103.828 16.501 103.828 17.9004Z" fill="#FAFAFF"/>
<path d="M139.297 16.0674C139.297 14.3525 138.948 13.0516 138.248 12.1645C137.55 11.2578 136.472 10.8044 135.014 10.8044C134.121 10.8044 133.306 11.0213 132.567 11.4549C131.829 11.8688 131.237 12.4504 130.791 13.1994C130.188 11.6027 128.906 10.8044 126.945 10.8044C126.071 10.8044 125.313 11.0114 124.673 11.4253C124.051 11.8393 123.556 12.3912 123.187 13.0811V11.1001H120.098V24.7008H123.187V16.4221C123.187 15.5154 123.409 14.7861 123.857 14.2342C124.323 13.6626 124.983 13.3768 125.837 13.3768C126.654 13.3768 127.226 13.6429 127.557 14.1751C127.887 14.6875 128.052 15.4365 128.052 16.4221V24.7008H131.228V16.4221C131.228 15.5154 131.45 14.7861 131.898 14.2342C132.364 13.6626 133.024 13.3768 133.878 13.3768C134.695 13.3768 135.267 13.6429 135.598 14.1751C135.948 14.6875 136.122 15.4365 136.122 16.4221V24.7008H139.297V16.0674Z" fill="#FAFAFF"/>
<path d="M144.459 18.6397H155.152C155.171 18.482 155.181 18.3242 155.181 18.1665C155.2 18.0088 155.21 17.8709 155.21 17.7526C155.21 15.6042 154.317 13.909 153.112 12.6672C151.928 11.4253 150.296 10.8044 148.218 10.8044C146.295 10.8044 144.731 11.3268 143.527 12.3715C142.342 13.4162 141.614 14.7763 141.343 16.4518C141.303 16.6882 141.274 16.9248 141.254 17.1613C141.235 17.3978 141.225 17.6442 141.225 17.9004C141.225 19.2605 141.507 20.4827 142.07 21.5667C142.634 22.6311 143.43 23.4688 144.459 24.0798C145.489 24.6909 146.693 24.9964 148.072 24.9964C149.742 24.9964 151.112 24.6613 152.179 23.9912C153.267 23.321 154.433 22.434 155.094 21.3301L152.063 20.2066C151.675 20.8768 151.16 21.409 150.519 21.8033C149.898 22.1777 149.131 22.3649 148.218 22.3649C147.188 22.3649 146.334 22.0594 145.654 21.4484C144.975 20.8177 144.576 19.8814 144.459 18.6397ZM144.517 16.4221C144.654 15.4168 145.062 14.6383 145.741 14.0864C146.421 13.5148 147.237 13.2289 148.189 13.2289C149.198 13.2289 149.975 13.5148 150.519 14.0864C151.063 14.658 151.394 15.4365 151.51 16.4221H144.517Z" fill="#FAFAFF"/>
</svg>
