<svg width="113" height="40" viewBox="0 0 113 40" fill="none" xmlns="http://www.w3.org/2000/svg">
<g clip-path="url(#clip0)">
<path fill-rule="evenodd" clip-rule="evenodd" d="M28.5123 14.1683C28.7177 14.2691 28.889 14.4036 29.026 14.5548C29.0431 14.5716 29.0431 14.5716 29.0602 14.5716H29.0773L33.016 12.9078C33.0331 12.891 33.0502 12.8742 33.0502 12.8574C33.0502 12.8406 33.0502 12.8238 33.0331 12.8069L29.3513 9.19349C29.3342 9.17669 29.3171 9.17669 29.3171 9.17669H29.3C29.2829 9.17669 29.2657 9.19349 29.2657 9.22709L28.4609 14.1178C28.478 14.1346 28.4951 14.1683 28.5123 14.1683ZM20.3439 10.891C20.5322 11.1767 20.6521 11.5128 20.6863 11.849C20.6863 11.8658 20.7035 11.8826 20.7206 11.8994L26.5772 14.37H26.5943C26.6114 14.37 26.6286 14.37 26.6286 14.3532C26.7998 14.2187 27.0053 14.1178 27.2279 14.0506C27.245 14.0506 27.2621 14.0338 27.2621 14.0002L28.2211 8.10103C28.2211 8.08423 28.2211 8.06743 28.204 8.05063L24.5394 4.43717C24.5222 4.42037 24.5222 4.42037 24.5051 4.42037C24.488 4.42037 24.4709 4.43717 24.4709 4.45398L20.3439 10.8069C20.3267 10.8406 20.3267 10.8742 20.3439 10.891ZM40.3452 19.9834L34.0606 13.7985C34.0435 13.7817 34.0263 13.7817 34.0263 13.7817H34.0092L29.7452 15.58C29.7281 15.5968 29.7109 15.6136 29.7109 15.6304C29.7109 15.6472 29.7281 15.6809 29.7452 15.6809L40.2596 20.101H40.2768C40.2938 20.101 40.311 20.101 40.311 20.0842L40.3452 20.0506C40.3795 20.0506 40.3795 20.0002 40.3452 19.9834ZM39.3007 20.9918L29.2143 16.7565H29.1972C29.1801 16.7565 29.1629 16.7565 29.1459 16.7733C28.8718 17.143 28.4609 17.3784 27.9814 17.4456C27.9643 17.4456 27.93 17.4624 27.93 17.496L26.8512 24.0674C26.8512 24.0842 26.8512 24.101 26.8683 24.1178C27.245 24.4036 27.4677 24.8238 27.519 25.2943C27.519 25.328 27.5361 25.3448 27.5704 25.3448L33.6667 26.6052H33.6838C33.701 26.6052 33.7181 26.6052 33.7181 26.5884L39.3007 21.0926C39.3178 21.0758 39.3178 21.059 39.3178 21.0422C39.3178 21.0254 39.3178 21.0086 39.3007 20.9918ZM25.9436 15.3784L20.4295 13.059H20.4124C20.3952 13.059 20.3781 13.0758 20.361 13.0926C19.9842 13.6641 19.3506 14.0002 18.6656 14.0002C18.5629 14.0002 18.4602 13.9834 18.3403 13.9666H18.3232C18.3061 13.9666 18.2889 13.9834 18.2718 14.0002L13.7338 20.975C13.7167 20.9918 13.7167 21.0254 13.7338 21.0422C13.751 21.059 13.7681 21.059 13.7852 21.059H13.8023L25.9093 15.933C25.9264 15.9162 25.9436 15.8994 25.9436 15.8826V15.8153V15.7313C25.9436 15.6304 25.9607 15.5296 25.9778 15.4456C25.9778 15.412 25.9607 15.3952 25.9436 15.3784ZM32.5879 27.58L27.2279 26.4876H27.2108C27.1936 26.4876 27.1766 26.5044 27.1594 26.5044C26.9539 26.7565 26.6971 26.9582 26.3888 27.0758C26.3717 27.0758 26.3546 27.1094 26.3546 27.1262L25.0702 34.9582C25.0702 34.9918 25.0873 35.0086 25.1045 35.0254H25.1387C25.1558 35.0254 25.173 35.0254 25.173 35.0086L32.605 27.6977C32.6221 27.6809 32.6221 27.6641 32.6221 27.6473C32.6221 27.5968 32.605 27.58 32.5879 27.58ZM25.1045 27.0422C24.5907 26.8406 24.214 26.3868 24.077 25.8658C24.077 25.849 24.0599 25.8322 24.0256 25.8154L14.0935 23.7817C14.0935 23.7817 14.0935 23.7817 14.0763 23.7817C14.0592 23.7817 14.0421 23.7985 14.0249 23.8154C13.9736 23.8994 13.9393 23.9666 13.888 24.0338C13.8708 24.0506 13.8708 24.0842 13.888 24.101L22.9296 37.0758C22.9468 37.0926 22.9468 37.0926 22.9639 37.0926C22.981 37.0926 22.9982 37.0926 22.9982 37.0758L23.5462 36.538C23.5462 36.5212 23.5633 36.5212 23.5633 36.5044L25.1045 27.0926C25.1387 27.0926 25.1387 27.059 25.1045 27.0422ZM14.2989 22.5884C14.2989 22.622 14.3161 22.6388 14.3503 22.6388L24.1969 24.6557H24.214C24.2311 24.6557 24.2483 24.6388 24.2654 24.622C24.5565 24.1178 25.0702 23.7817 25.6525 23.7481C25.6867 23.7481 25.7038 23.7313 25.7038 23.6977L26.7655 17.2271C26.7655 17.2103 26.7655 17.1767 26.7313 17.1767C26.6628 17.1262 26.5943 17.0758 26.5087 16.9918C26.4916 16.975 26.4744 16.975 26.4744 16.975H26.4573L14.2818 22.1346C14.2475 22.1515 14.2475 22.1683 14.2475 22.2019C14.2647 22.3364 14.2989 22.454 14.2989 22.5884ZM10.1719 24.2187C10.1206 24.1515 10.0692 24.0842 10.0178 24.0002C10.0007 23.9834 9.98355 23.9666 9.96646 23.9666H9.94931L5.70245 25.7649C5.68532 25.7649 5.6682 25.7817 5.6682 25.7985C5.6682 25.8154 5.6682 25.8322 5.68532 25.849L7.75738 27.8826C7.77453 27.8994 7.79162 27.8994 7.79162 27.8994C7.80877 27.8994 7.82585 27.8826 7.843 27.8658L10.189 24.2523C10.189 24.2523 10.189 24.2355 10.1719 24.2187ZM12.9803 24.8742C12.9633 24.8574 12.9461 24.8406 12.9289 24.8406H12.9119C12.6036 24.975 12.2953 25.0422 11.97 25.0422C11.7131 25.0422 11.4734 25.0086 11.2165 24.9246H11.1994C11.1823 24.9246 11.1651 24.9414 11.1481 24.9582L8.6821 28.7565L8.66501 28.7733C8.64786 28.7901 8.64786 28.8238 8.66501 28.8406L20.0014 39.9834C20.0185 40.0002 20.0356 40.0002 20.0356 40.0002C20.0527 40.0002 20.0699 40.0002 20.0699 39.9834L22.0563 38.017C22.0735 38.0002 22.0735 37.9666 22.0563 37.9498L12.9803 24.8742ZM11.3878 20.4876C11.4049 20.5044 11.422 20.5212 11.4392 20.5212H11.4562C11.6275 20.4876 11.8159 20.454 11.9871 20.454C12.1755 20.454 12.381 20.4876 12.5694 20.538H12.5865C12.6036 20.538 12.6208 20.5212 12.6378 20.5044L17.2273 13.4456C17.2443 13.4288 17.2443 13.3952 17.2273 13.3784C16.8676 13.0086 16.6621 12.5212 16.6621 12.0002C16.6621 11.849 16.6793 11.6977 16.7135 11.5464C16.7135 11.5128 16.6964 11.496 16.6793 11.4792C16.097 11.2271 10.9426 9.07583 10.9426 9.05903H10.9254C10.9083 9.05903 10.8912 9.05903 10.8912 9.07583L6.52442 13.3784C6.5073 13.3952 6.5073 13.4288 6.52442 13.4456L11.3878 20.4876ZM11.8844 8.18509C11.8844 8.18509 17.0902 10.37 17.3128 10.4708H17.33C17.3471 10.4708 17.3471 10.4708 17.3642 10.454C17.7238 10.1683 18.1862 10.0002 18.6486 10.0002C18.8712 10.0002 19.0938 10.0338 19.3164 10.101H19.3336C19.3506 10.101 19.3678 10.0842 19.3849 10.0674L23.6146 3.56323C23.6318 3.54642 23.6318 3.51281 23.6146 3.496L20.1041 0.0506202C20.087 0.0338135 20.087 0.0338135 20.0699 0.0338135C20.0528 0.0338135 20.0356 0.0338135 20.0356 0.0506202L11.8844 8.08423C11.8673 8.10103 11.8673 8.11783 11.8673 8.13463C11.8501 8.16829 11.8673 8.16829 11.8844 8.18509ZM9.86369 21.7145C9.88084 21.7145 9.89792 21.6977 9.91507 21.6809C10.0178 21.4792 10.1719 21.2943 10.326 21.1262C10.3432 21.1094 10.3432 21.0758 10.326 21.059C10.2747 20.9918 5.63395 14.3364 5.63395 14.3196C5.61683 14.3027 5.61683 14.3027 5.58258 14.2859C5.56546 14.2859 5.54833 14.2859 5.54833 14.3027L0.136997 19.6136C0.119873 19.6304 0.119873 19.6472 0.119873 19.6641C0.119873 19.6809 0.136997 19.6977 0.171246 19.6977L9.86369 21.7145C9.8466 21.7145 9.8466 21.7145 9.86369 21.7145ZM9.41848 22.8742C9.41848 22.8406 9.40133 22.8238 9.36709 22.8238L0.95897 21.0926C0.95897 21.0926 0.95897 21.0926 0.941845 21.0926C0.92472 21.0926 0.907595 21.1094 0.89047 21.1262C0.873352 21.143 0.890477 21.1767 0.907595 21.1935L4.65786 24.891C4.67498 24.9078 4.69211 24.9078 4.69211 24.9078H4.70923L9.36709 22.9414C9.40133 22.9078 9.41848 22.891 9.41848 22.8742Z" fill="#FAFAFF"/>
<path fill-rule="evenodd" clip-rule="evenodd" d="M82.0265 10.0673H84.7661V27.5799H82.0265V10.0673ZM53.9934 15.0085C52.5207 15.0085 51.3391 15.5631 50.4315 16.6555L50.3459 15.2269H47.7772V27.5631H50.5171V18.7899C51.0651 17.7815 51.8871 17.2773 52.9831 17.2773C53.7366 17.2773 54.2845 17.4622 54.627 17.8488C54.9695 18.2185 55.1236 18.8068 55.1236 19.5799V27.5631H57.8635V19.4118C57.8293 16.4875 56.5449 15.0085 53.9934 15.0085ZM65.8264 15.0085C64.7818 15.0085 63.84 15.2773 62.9838 15.8152C62.1276 16.353 61.4768 17.1093 60.9973 18.0841C60.535 19.0589 60.2953 20.1513 60.2953 21.3782V21.7143C60.2953 23.5463 60.8433 25.0253 61.9221 26.1345C63.0009 27.2437 64.4051 27.7983 66.1518 27.7983C67.1622 27.7983 68.0872 27.5967 68.9091 27.1933C69.731 26.7899 70.3815 26.2185 70.861 25.4791L69.388 24.0505C68.6004 25.0757 67.5733 25.5967 66.3231 25.5967C65.4326 25.5967 64.6791 25.2941 64.0968 24.7059C63.4975 24.1177 63.1721 23.311 63.0865 22.2857H71.0669V21.1765C71.0669 19.2101 70.6041 17.6975 69.7135 16.6219C68.7719 15.5463 67.4872 15.0085 65.8264 15.0085ZM68.3266 20.2521H63.1037C63.2235 19.2941 63.5318 18.5547 63.9941 18.0337C64.4565 17.4959 65.0729 17.2437 65.8264 17.2437C66.5799 17.2437 67.1793 17.4791 67.6076 17.9496C68.0354 18.4202 68.2755 19.1261 68.3434 20.0505V20.2521H68.3266ZM77.2314 25.1933C77.0431 24.9917 76.9577 24.6387 76.9577 24.1681V17.2773H79.1147V15.2269H76.9577V12.2353H74.2174V15.2269H72.2137V17.2773H74.2174V24.2689C74.2174 26.6219 75.2795 27.7983 77.3854 27.7983C77.9679 27.7983 78.5672 27.7143 79.2008 27.5295V25.3782C78.8753 25.4622 78.5497 25.4959 78.2417 25.4959C77.7453 25.5127 77.4197 25.4118 77.2314 25.1933ZM89.013 15.2437H91.7526V27.5799H89.013V15.2437ZM107.302 23.6135L104.716 15.2437H101.754L106.052 27.5127L105.658 28.5715C105.452 29.1765 105.179 29.5967 104.819 29.8488C104.477 30.1009 103.946 30.2353 103.26 30.2353L102.747 30.2017V32.353C103.226 32.4875 103.671 32.5547 104.066 32.5547C105.847 32.5547 107.114 31.5127 107.867 29.4454L112.73 15.2437H109.802L107.302 23.6135ZM97.1302 10.9412C96.3762 11.6807 95.9995 12.7395 95.9995 14.1177V15.2437H94.133V17.2941H95.9995V27.5799H98.7397V17.2941H101.222V15.2437H98.7397V14.1513C98.7397 12.7899 99.3902 12.1177 100.709 12.1177C101.103 12.1177 101.463 12.1513 101.754 12.2017L101.822 10.0337C101.274 9.89919 100.778 9.83199 100.281 9.83199C98.9449 9.81519 97.8835 10.2017 97.1302 10.9412ZM91.7526 9.81519V12.2353H89.013V9.81519H91.7526Z" fill="#FAFAFF"/>
</g>
<defs>
<clipPath id="clip0">
<rect width="113" height="40" fill="white"/>
</clipPath>
</defs>
</svg>
