<svg width="148" height="38" viewBox="0 0 148 38" fill="none" xmlns="http://www.w3.org/2000/svg">
<path d="M8.7367 21.6091C8.7367 21.6247 8.72095 21.641 8.68883 21.6729L4.32756 23.5195H4.31181C4.31181 23.5195 4.29544 23.5195 4.27906 23.5032L0.767998 20.0305C0.751624 20.0148 0.735879 19.9829 0.751624 19.9679C0.767998 19.9522 0.784373 19.9359 0.800118 19.9359H0.815862L8.68883 21.5621C8.72095 21.5621 8.7367 21.5777 8.7367 21.6091ZM9.15362 20.5202C9.13787 20.5202 9.13787 20.5202 9.15362 20.5202L0.0783814 18.626C0.0462623 18.626 0.0305176 18.6097 0.0305176 18.5941C0.0305176 18.5784 0.0305176 18.5628 0.0462623 18.5471L5.11353 13.5584C5.11353 13.5428 5.12928 13.5428 5.14502 13.5428C5.17714 13.5584 5.17714 13.5584 5.19351 13.5741C5.19351 13.5904 9.53842 19.8414 9.58691 19.904C9.60265 19.9203 9.60265 19.9522 9.58691 19.9679C9.44269 20.1257 9.29784 20.2991 9.20211 20.4888C9.18573 20.5039 9.16936 20.5202 9.15362 20.5202ZM11.0461 7.81274C11.0298 7.79646 11.0134 7.79646 11.0298 7.76516C11.0298 7.7495 11.0298 7.73385 11.0461 7.71757L18.6779 0.17227C18.6779 0.156616 18.6943 0.156616 18.71 0.156616C18.7258 0.156616 18.7258 0.156616 18.7421 0.17227L22.029 3.40829C22.0447 3.42395 22.0447 3.45588 22.029 3.47154L18.0683 9.58104C18.0525 9.59606 18.0368 9.61234 18.0204 9.61234H18.0046C17.7962 9.5491 17.5877 9.51717 17.3793 9.51717C16.9466 9.51717 16.5133 9.67496 16.1764 9.94359C16.1606 9.95987 16.1606 9.95987 16.1449 9.95987H16.1285C15.92 9.86469 11.0461 7.81274 11.0461 7.81274ZM10.5807 19.3674L6.02735 12.7532C6.01098 12.7382 6.01098 12.7062 6.02735 12.6906L10.1159 8.6493C10.1159 8.63365 10.1317 8.63365 10.1481 8.63365H10.1638C10.1638 8.6493 14.9899 10.6699 15.5352 10.9066C15.551 10.9223 15.5674 10.9379 15.5674 10.9699C15.5353 11.112 15.5195 11.2535 15.5195 11.3957C15.5195 11.8853 15.7116 12.3431 16.0485 12.6906C16.0643 12.7062 16.0643 12.7382 16.0485 12.7532L11.7515 19.3837C11.7351 19.3993 11.7194 19.415 11.703 19.415H11.6873C11.5109 19.3674 11.3182 19.3361 11.1419 19.3361C10.9813 19.3361 10.8055 19.3674 10.645 19.3993H10.6286C10.6128 19.3993 10.5971 19.3837 10.5807 19.3674ZM12.0721 23.4875L20.5698 35.7692C20.5861 35.7848 20.5861 35.8161 20.5698 35.8324L18.71 37.679C18.71 37.6946 18.6943 37.6946 18.6779 37.6946C18.6779 37.6946 18.6621 37.6946 18.6458 37.679L8.03133 27.2132C8.01496 27.1976 8.01496 27.1656 8.03133 27.15L8.04708 27.1343L10.3565 23.5664C10.3723 23.5514 10.3886 23.5351 10.4044 23.5351H10.4201C10.6607 23.614 10.8855 23.646 11.1255 23.646C11.4303 23.646 11.7194 23.5821 12.0078 23.4562H12.0236C12.0399 23.4562 12.0563 23.4725 12.0721 23.4875ZM9.44269 22.8727C9.45843 22.8877 9.45843 22.9033 9.45843 22.9033L7.26173 26.2972C7.24536 26.3134 7.22962 26.3291 7.21387 26.3291C7.21387 26.3291 7.1975 26.3291 7.18175 26.3134L5.24138 24.4036C5.22563 24.3874 5.22563 24.3717 5.22563 24.356C5.22563 24.3398 5.24138 24.3247 5.25775 24.3247L9.23423 22.6353H9.24997C9.26572 22.6353 9.28209 22.651 9.29784 22.6666C9.34633 22.7455 9.39419 22.8088 9.44269 22.8727ZM13.3064 21.3411C13.3064 21.2146 13.2743 21.1037 13.2586 20.9779C13.2586 20.9459 13.2586 20.9303 13.2901 20.9153L24.6911 16.0687H24.7068C24.7068 16.0687 24.7226 16.0687 24.739 16.0844C24.8189 16.1633 24.8832 16.2103 24.9474 16.2578C24.9795 16.2578 24.9795 16.2891 24.9795 16.3054L23.9851 22.3824C23.9851 22.4143 23.9694 22.4306 23.9372 22.4306C23.3918 22.4613 22.9107 22.7775 22.6386 23.2509C22.6222 23.2665 22.6059 23.2828 22.5901 23.2828H22.5744L13.3549 21.388C13.3228 21.388 13.3064 21.3724 13.3064 21.3411ZM23.424 25.5245C23.4561 25.5395 23.4561 25.5714 23.424 25.5714L21.9811 34.411C21.9811 34.4273 21.9647 34.4273 21.9647 34.4429L21.4515 34.9483C21.4515 34.9639 21.4357 34.9639 21.42 34.9639C21.4036 34.9639 21.4036 34.9639 21.3879 34.9483L12.9216 22.7618C12.9059 22.7455 12.9059 22.7142 12.9216 22.6986C12.9701 22.6353 13.0016 22.5721 13.0501 22.4932C13.0659 22.4775 13.0822 22.4613 13.098 22.4613H13.1143L22.4138 24.3717C22.4459 24.3874 22.4617 24.4036 22.4617 24.4187C22.5901 24.9089 22.9428 25.3347 23.424 25.5245ZM30.431 26.0298C30.4467 26.0298 30.4631 26.0448 30.4631 26.0924C30.4631 26.1087 30.4631 26.1243 30.4467 26.1394L23.4882 33.0065C23.4882 33.0228 23.4718 33.0228 23.4561 33.0228H23.424C23.4076 33.0065 23.3918 32.9909 23.3918 32.9589L24.5947 25.6034C24.5947 25.5877 24.6105 25.5558 24.6262 25.5558C24.9153 25.4449 25.1559 25.2558 25.348 25.0185C25.3637 25.0185 25.3801 25.0035 25.3965 25.0035H25.4122L30.431 26.0298ZM24.2093 14.5691C24.2257 14.5847 24.2421 14.6004 24.2421 14.6317C24.2257 14.7106 24.2093 14.8058 24.2093 14.9003V14.9792V15.0425C24.2093 15.0581 24.1936 15.0738 24.1778 15.0894L12.8417 19.904H12.8253C12.8095 19.904 12.7932 19.904 12.7774 19.889C12.7617 19.8733 12.7617 19.8414 12.7774 19.8251L17.0266 13.2742C17.0423 13.2585 17.0587 13.2429 17.0744 13.2429H17.0908C17.2029 13.2585 17.2993 13.2742 17.395 13.2742C18.0368 13.2742 18.63 12.9586 18.9827 12.422C18.9984 12.4063 19.0148 12.3906 19.0306 12.3906H19.0469L24.2093 14.5691ZM36.7163 19.8414C36.732 19.857 36.732 19.8733 36.732 19.889C36.732 19.904 36.732 19.9203 36.7163 19.9359L31.489 25.098C31.489 25.1137 31.4733 25.1137 31.4569 25.1137H31.4412L25.7328 23.9296C25.7006 23.9296 25.6849 23.914 25.6849 23.8827C25.6364 23.4406 25.4279 23.0461 25.0753 22.7775C25.0595 22.7618 25.0595 22.7455 25.0595 22.7299L26.0697 16.5578C26.0697 16.5265 26.1018 16.5102 26.1176 16.5102C26.5666 16.4476 26.9514 16.2265 27.2084 15.879C27.2241 15.8634 27.2398 15.8634 27.2562 15.8634H27.272L36.7163 19.8414ZM37.6943 18.894C37.7264 18.9097 37.7264 18.9572 37.6943 18.9572L37.6622 18.9886C37.6622 19.0048 37.6458 19.0048 37.6301 19.0048H37.6143L27.7695 14.8527C27.7531 14.8527 27.7367 14.8214 27.7367 14.8058C27.7367 14.7901 27.7531 14.7738 27.7695 14.7582L31.7617 13.0694H31.7775C31.7775 13.0694 31.7938 13.0694 31.8096 13.0851L37.6943 18.894ZM18.9663 10.3537C18.9506 10.3381 18.9506 10.3068 18.9663 10.2748L22.8307 4.30809C22.8307 4.29244 22.8465 4.27679 22.8628 4.27679C22.8792 4.27679 22.8792 4.27679 22.8949 4.29244L26.326 7.68626C26.3424 7.70254 26.3424 7.71757 26.3424 7.73385L25.4443 13.2742C25.4443 13.3061 25.4279 13.3217 25.4122 13.3217C25.2037 13.385 25.011 13.4795 24.8511 13.606C24.8511 13.6217 24.8353 13.6217 24.8189 13.6217H24.8032L19.319 11.3011C19.3033 11.2855 19.2869 11.2698 19.2869 11.2535C19.2554 10.9379 19.1427 10.6223 18.9663 10.3537ZM26.6145 13.432C26.5987 13.432 26.5823 13.4006 26.5666 13.385L27.3205 8.79144C27.3205 8.75951 27.3362 8.74385 27.3526 8.74385H27.3683C27.3683 8.74385 27.3841 8.74385 27.4004 8.75951L30.8479 12.1533C30.8636 12.1696 30.8636 12.1853 30.8636 12.2009C30.8636 12.2166 30.8479 12.2322 30.8321 12.2485L27.1441 13.8108H27.1277C27.112 13.8108 27.112 13.8108 27.0956 13.7951C26.9678 13.653 26.8072 13.5271 26.6145 13.432Z" fill="#FAFAFF"/>
<path d="M83.2634 11.617H85.8285V9.34399H83.2634V11.617ZM90.8631 10.4016C90.1577 11.096 89.805 12.0904 89.805 13.3846V14.4429H88.0574V16.3683H89.805V26.0294H92.3708V16.3683H94.6953V14.4429H92.3708V13.4166C92.3708 12.1379 92.9798 11.5061 94.2142 11.5061C94.5832 11.5061 94.9195 11.5381 95.1922 11.5857L95.2571 9.54875C94.7432 9.42289 94.2784 9.35965 93.8136 9.35965C92.5629 9.34399 91.5684 9.70717 90.8631 10.4016ZM100.387 22.3037L97.9664 14.4429H95.1922L99.2172 25.9662L98.8481 26.9605C98.656 27.5291 98.3991 27.9236 98.0628 28.1603C97.7422 28.397 97.2447 28.5235 96.6036 28.5235L96.1224 28.4921V30.5122C96.5715 30.6386 96.9884 30.7019 97.3574 30.7019C99.0245 30.7019 100.211 29.7232 100.917 27.7814L105.47 14.4429H102.728L100.387 22.3037ZM83.2634 26.0294H85.8285V14.4429H83.2634V26.0294ZM72.2321 23.7878C72.0557 23.598 71.9751 23.2668 71.9751 22.8247V16.3527H73.9955V14.4266H71.9751V11.617H69.41V14.4266H67.5339V16.3527H69.41V22.9193C69.41 25.1296 70.4044 26.2342 72.3763 26.2342C72.9217 26.2342 73.4822 26.1553 74.0761 25.9818V23.9612C73.7706 24.0401 73.4664 24.072 73.178 24.072C72.7132 24.0877 72.4078 23.9925 72.2321 23.7878ZM63.8943 19.1466H59.0034C59.1161 18.2468 59.4046 17.5524 59.8372 17.0627C60.2705 16.558 60.848 16.3214 61.5534 16.3214C62.2588 16.3214 62.8199 16.5418 63.2204 16.9838C63.6216 17.4259 63.8465 18.089 63.9101 18.9575V19.1466H63.8943ZM61.5534 14.2218C60.5747 14.2218 59.693 14.4742 58.8913 14.9795C58.0896 15.4842 57.4806 16.1949 57.0315 17.1103C56.5989 18.0258 56.374 19.0521 56.374 20.2042V20.5198C56.374 22.2405 56.8873 23.63 57.8975 24.6719C58.9077 25.7132 60.2227 26.2342 61.8576 26.2342C62.8035 26.2342 63.6695 26.0451 64.4391 25.6663C65.2093 25.2874 65.8177 24.7508 66.2667 24.0564L64.8881 22.7139C64.1506 23.6769 63.189 24.1666 62.0182 24.1666C61.1843 24.1666 60.479 23.8823 59.9342 23.33C59.3724 22.7778 59.0683 22.0201 58.9876 21.0571H66.4594V20.0151C66.4594 18.1679 66.0268 16.7472 65.1929 15.7371C64.3112 14.7265 63.1083 14.2218 61.5534 14.2218ZM50.4736 14.2218C49.0949 14.2218 47.9884 14.7428 47.1388 15.7685L47.0582 14.4266H44.6537V26.0138H47.2188V17.7734C47.7321 16.826 48.5017 16.3527 49.5276 16.3527C50.233 16.3527 50.7462 16.5261 51.0668 16.8893C51.3874 17.2368 51.5316 17.7891 51.5316 18.5154V26.0138H54.0973V18.3576C54.0652 15.6107 52.863 14.2218 50.4736 14.2218ZM76.7212 26.0294H79.2869V9.58068H76.7212V26.0294Z" fill="#FAFAFF"/>
<path d="M113.241 23.9734C113.894 23.9734 114.435 23.7844 114.866 23.4063C115.297 23.0282 115.526 22.5609 115.555 22.0044H118.02C117.991 22.725 117.765 23.3974 117.341 24.0216C116.918 24.6458 116.344 25.1399 115.619 25.5037C114.895 25.8675 114.113 26.0495 113.273 26.0495C111.644 26.0495 110.353 25.5251 109.398 24.4764C108.444 23.4277 107.967 21.9795 107.967 20.1318V19.8642C107.967 18.1021 108.44 16.6914 109.388 15.632C110.335 14.5725 111.626 14.0428 113.262 14.0428C114.647 14.0428 115.775 14.4441 116.647 15.2467C117.519 16.0493 117.976 17.1033 118.02 18.4089H115.555C115.526 17.7454 115.298 17.1997 114.871 16.7716C114.444 16.3436 113.901 16.1296 113.241 16.1296C112.394 16.1296 111.741 16.4345 111.282 17.0445C110.823 17.6545 110.59 18.5801 110.582 19.8214V20.2388C110.582 21.4944 110.81 22.4307 111.266 23.0478C111.721 23.6649 112.38 23.9734 113.241 23.9734ZM122.271 14.2569L122.347 15.4661C123.165 14.5173 124.284 14.0428 125.705 14.0428C127.262 14.0428 128.327 14.635 128.901 15.8192C129.748 14.635 130.939 14.0428 132.475 14.0428C133.759 14.0428 134.715 14.396 135.343 15.1023C135.971 15.8085 136.292 16.8501 136.306 18.227V25.8354H133.691V18.3019C133.691 17.5671 133.53 17.0284 133.207 16.686C132.884 16.3436 132.349 16.1724 131.603 16.1724C131.007 16.1724 130.521 16.3311 130.145 16.6486C129.768 16.966 129.504 17.3816 129.353 17.8952L129.364 25.8354H126.749V18.2163C126.713 16.8537 126.013 16.1724 124.65 16.1724C123.602 16.1724 122.86 16.5968 122.422 17.4458V25.8354H119.807V14.2569H122.271ZM145.337 22.6893C145.337 22.2256 145.145 21.8725 144.761 21.6299C144.377 21.3874 143.741 21.1733 142.851 20.9878C141.961 20.8024 141.218 20.5669 140.623 20.2816C139.317 19.6538 138.664 18.7442 138.664 17.5528C138.664 16.554 139.087 15.7194 139.934 15.0487C140.781 14.3781 141.857 14.0428 143.163 14.0428C144.555 14.0428 145.68 14.3853 146.537 15.0701C147.395 15.755 147.823 16.6432 147.823 17.7347H145.208C145.208 17.2353 145.021 16.8198 144.648 16.488C144.275 16.1563 143.78 15.9904 143.163 15.9904C142.589 15.9904 142.121 16.1224 141.758 16.3864C141.396 16.6503 141.215 17.0035 141.215 17.4458C141.215 17.8453 141.383 18.1556 141.721 18.3768C142.058 18.5979 142.74 18.8209 143.766 19.0456C144.792 19.2703 145.597 19.5378 146.182 19.8482C146.767 20.1585 147.201 20.5313 147.484 20.9664C147.768 21.4016 147.909 21.9295 147.909 22.5502C147.909 23.5918 147.475 24.4354 146.607 25.081C145.739 25.7266 144.602 26.0495 143.195 26.0495C142.241 26.0495 141.391 25.8782 140.644 25.5358C139.898 25.1934 139.317 24.7225 138.901 24.1233C138.485 23.524 138.277 22.8784 138.277 22.1864H140.817C140.852 22.7999 141.086 23.2725 141.516 23.6043C141.947 23.936 142.517 24.1019 143.227 24.1019C143.916 24.1019 144.44 23.9717 144.799 23.7113C145.158 23.4509 145.337 23.1102 145.337 22.6893Z" fill="#FAFAFF"/>
</svg>
