<svg width="156" height="40" viewBox="0 0 156 40" fill="none" xmlns="http://www.w3.org/2000/svg">
<path d="M9.19663 22.7463C9.19663 22.7628 9.18005 22.7799 9.14624 22.8135L4.55542 24.7573H4.53885C4.53885 24.7573 4.52162 24.7573 4.50438 24.7402L0.808522 21.0847C0.791286 21.0682 0.774713 21.0346 0.791286 21.0187C0.808522 21.0023 0.825758 20.9851 0.842332 20.9851H0.858905L9.14624 22.6969C9.18005 22.6969 9.19663 22.7134 9.19663 22.7463ZM9.63549 21.6001C9.61891 21.6001 9.61891 21.6001 9.63549 21.6001L0.0826095 19.6063C0.0487999 19.6063 0.0322266 19.5891 0.0322266 19.5726C0.0322266 19.5562 0.0322266 19.5397 0.0487999 19.5232L5.38277 14.272C5.38277 14.2555 5.39934 14.2555 5.41591 14.2555C5.44972 14.272 5.44972 14.272 5.46696 14.2885C5.46696 14.3056 10.0405 20.8856 10.0916 20.9515C10.1082 20.9687 10.1082 21.0023 10.0916 21.0187C9.93977 21.1848 9.7873 21.3674 9.68653 21.5671C9.6693 21.583 9.65206 21.6001 9.63549 21.6001ZM11.6276 8.22388C11.6104 8.20674 11.5931 8.20674 11.6104 8.17378C11.6104 8.15731 11.6104 8.14083 11.6276 8.12369L19.661 0.181273C19.661 0.164795 19.6783 0.164795 19.6948 0.164795C19.7114 0.164795 19.7114 0.164795 19.7287 0.181273L23.1885 3.58761C23.2051 3.60409 23.2051 3.63771 23.1885 3.65419L19.0193 10.0852C19.0027 10.1011 18.9862 10.1182 18.9689 10.1182H18.9524C18.7329 10.0516 18.5135 10.018 18.2941 10.018C17.8386 10.018 17.3825 10.1841 17.0279 10.4669C17.0113 10.484 17.0113 10.484 16.9947 10.484H16.9775C16.758 10.3838 11.6276 8.22388 11.6276 8.22388ZM11.1377 20.3867L6.34468 13.4243C6.32745 13.4085 6.32745 13.3749 6.34468 13.3584L10.6485 9.10446C10.6485 9.08799 10.665 9.08799 10.6823 9.08799H10.6988C10.6988 9.10446 15.7789 11.2315 16.353 11.4806C16.3696 11.4971 16.3868 11.5136 16.3868 11.5472C16.353 11.6968 16.3364 11.8458 16.3364 11.9954C16.3364 12.5108 16.5386 12.9926 16.8933 13.3584C16.9099 13.3749 16.9099 13.4085 16.8933 13.4243L12.3701 20.4038C12.3529 20.4203 12.3363 20.4367 12.319 20.4367H12.3025C12.1168 20.3867 11.914 20.3537 11.7284 20.3537C11.5593 20.3537 11.3744 20.3867 11.2053 20.4203H11.1881C11.1715 20.4203 11.1549 20.4038 11.1377 20.3867ZM12.7075 24.7237L21.6525 37.6517C21.6697 37.6682 21.6697 37.7011 21.6525 37.7183L19.6948 39.662C19.6948 39.6785 19.6783 39.6785 19.661 39.6785C19.661 39.6785 19.6445 39.6785 19.6272 39.662L8.45414 28.6454C8.4369 28.629 8.4369 28.5954 8.45414 28.5789L8.47071 28.5624L10.9017 24.8067C10.9183 24.7909 10.9355 24.7738 10.9521 24.7738H10.9686C11.2219 24.8568 11.4586 24.8904 11.7111 24.8904C12.032 24.8904 12.3363 24.8232 12.6399 24.6907H12.6565C12.6737 24.6907 12.691 24.7079 12.7075 24.7237ZM9.93977 24.0764C9.95635 24.0922 9.95635 24.1087 9.95635 24.1087L7.64403 27.6812C7.6268 27.6983 7.61023 27.7148 7.59365 27.7148C7.59365 27.7148 7.57642 27.7148 7.55984 27.6983L5.51734 25.688C5.50077 25.6708 5.50077 25.6544 5.50077 25.6379C5.50077 25.6207 5.51734 25.6049 5.53458 25.6049L9.72034 23.8266H9.73692C9.75349 23.8266 9.77073 23.8431 9.7873 23.8596C9.83835 23.9426 9.88873 24.0092 9.93977 24.0764ZM14.0069 22.4642C14.0069 22.3311 13.9731 22.2144 13.9565 22.0819C13.9565 22.0483 13.9565 22.0318 13.9896 22.016L25.9907 16.9144H26.0073C26.0073 16.9144 26.0239 16.9144 26.0411 16.9309C26.1253 17.0139 26.1929 17.0634 26.2605 17.1135C26.2944 17.1135 26.2944 17.1464 26.2944 17.1635L25.2476 23.5603C25.2476 23.5939 25.231 23.6111 25.1972 23.6111C24.6231 23.6434 24.1166 23.9762 23.8302 24.4745C23.813 24.491 23.7958 24.5081 23.7792 24.5081H23.7626L14.0579 22.5136C14.0241 22.5136 14.0069 22.4972 14.0069 22.4642ZM24.6569 26.8678C24.6907 26.8836 24.6907 26.9172 24.6569 26.9172L23.1381 36.2221C23.1381 36.2392 23.1209 36.2392 23.1209 36.2557L22.5806 36.7876C22.5806 36.8041 22.564 36.8041 22.5475 36.8041C22.5302 36.8041 22.5302 36.8041 22.5136 36.7876L13.6018 23.9598C13.5852 23.9426 13.5852 23.9097 13.6018 23.8932C13.6529 23.8266 13.686 23.76 13.7371 23.677C13.7536 23.6605 13.7709 23.6434 13.7874 23.6434H13.8047L23.5936 25.6544C23.6274 25.6708 23.6439 25.688 23.6439 25.7038C23.7792 26.2199 24.1504 26.6681 24.6569 26.8678ZM32.0327 27.3997C32.0493 27.3997 32.0665 27.4155 32.0665 27.4656C32.0665 27.4828 32.0665 27.4992 32.0493 27.5151L24.7245 34.7436C24.7245 34.7608 24.7073 34.7608 24.6907 34.7608H24.6569C24.6397 34.7436 24.6231 34.7272 24.6231 34.6936L25.8893 26.9508C25.8893 26.9344 25.9059 26.9008 25.9224 26.9008C26.2267 26.7841 26.48 26.585 26.6822 26.3352C26.6987 26.3352 26.716 26.3194 26.7332 26.3194H26.7498L32.0327 27.3997ZM25.4836 15.3358C25.5008 15.3523 25.5181 15.3688 25.5181 15.4017C25.5008 15.4848 25.4836 15.5849 25.4836 15.6845V15.7675V15.8341C25.4836 15.8506 25.467 15.8671 25.4504 15.8835L13.5176 20.9515H13.5004C13.4838 20.9515 13.4666 20.9515 13.45 20.9357C13.4334 20.9192 13.4334 20.8856 13.45 20.8685L17.9228 13.9727C17.9394 13.9563 17.9566 13.9398 17.9732 13.9398H17.9904C18.1084 13.9563 18.2099 13.9727 18.3106 13.9727C18.9862 13.9727 19.6107 13.6405 19.9819 13.0757C19.9985 13.0592 20.0157 13.0427 20.0323 13.0427H20.0495L25.4836 15.3358ZM38.6488 20.8856C38.6654 20.9021 38.6654 20.9192 38.6654 20.9357C38.6654 20.9515 38.6654 20.9687 38.6488 20.9851L33.1464 26.4189C33.1464 26.4354 33.1299 26.4354 33.1126 26.4354H33.0961L27.0872 25.189C27.0534 25.189 27.0368 25.1725 27.0368 25.1396C26.9858 24.6742 26.7664 24.259 26.3951 23.9762C26.3785 23.9598 26.3785 23.9426 26.3785 23.9261L27.4419 17.4292C27.4419 17.3962 27.4757 17.3791 27.4923 17.3791C27.9649 17.3132 28.37 17.0805 28.6405 16.7147C28.657 16.6982 28.6736 16.6982 28.6909 16.6982H28.7074L38.6488 20.8856ZM39.6783 19.8884C39.7121 19.9048 39.7121 19.9549 39.6783 19.9549L39.6445 19.9879C39.6445 20.005 39.6273 20.005 39.6107 20.005H39.5941L29.2312 15.6344C29.2139 15.6344 29.1967 15.6014 29.1967 15.5849C29.1967 15.5685 29.2139 15.5513 29.2312 15.5349L33.4335 13.7572H33.4501C33.4501 13.7572 33.4673 13.7572 33.4839 13.7737L39.6783 19.8884ZM19.9647 10.8986C19.9481 10.8821 19.9481 10.8492 19.9647 10.8155L24.0324 4.53477C24.0324 4.51829 24.049 4.50182 24.0662 4.50182C24.0835 4.50182 24.0835 4.50182 24.1 4.51829L27.7117 8.09073C27.7289 8.10787 27.7289 8.12369 27.7289 8.14083L26.7836 13.9727C26.7836 14.0064 26.7664 14.0228 26.7498 14.0228C26.5304 14.0894 26.3275 14.1889 26.1591 14.3221C26.1591 14.3385 26.1425 14.3385 26.1253 14.3385H26.1087L20.3359 11.8958C20.3193 11.8794 20.3021 11.8629 20.3021 11.8458C20.2689 11.5136 20.1503 11.1814 19.9647 10.8986ZM28.0153 14.1388C27.9988 14.1388 27.9815 14.1059 27.9649 14.0894L28.7585 9.25408C28.7585 9.22047 28.7751 9.20399 28.7923 9.20399H28.8089C28.8089 9.20399 28.8254 9.20399 28.8427 9.22047L32.4716 12.7929C32.4881 12.81 32.4881 12.8265 32.4881 12.843C32.4881 12.8595 32.4716 12.876 32.455 12.8931L28.5729 14.5376H28.5556C28.539 14.5376 28.539 14.5376 28.5218 14.5211C28.3872 14.3715 28.2182 14.239 28.0153 14.1388Z" fill="#C9FA4B"/>
<path d="M87.6457 12.2283H90.3459V9.83569H87.6457V12.2283ZM95.6454 10.949C94.9029 11.6799 94.5316 12.7266 94.5316 14.089V15.2029H92.692V17.2297H94.5316V27.3993H97.2324V17.2297H99.6793V15.2029H97.2324V14.1226C97.2324 12.7767 97.8735 12.1116 99.1728 12.1116C99.5613 12.1116 99.9153 12.1453 100.202 12.1953L100.271 10.0512C99.7297 9.91874 99.2404 9.85217 98.7512 9.85217C97.4346 9.83569 96.3878 10.218 95.6454 10.949ZM105.671 23.4775L103.123 15.2029H100.202L104.439 27.3327L104.051 28.3794C103.849 28.9779 103.578 29.3932 103.224 29.6423C102.887 29.8914 102.363 30.0246 101.688 30.0246L101.182 29.9916V32.118C101.654 32.2511 102.093 32.3177 102.482 32.3177C104.236 32.3177 105.485 31.2875 106.228 29.2435L111.021 15.2029H108.135L105.671 23.4775ZM87.6457 27.3993H90.3459V15.2029H87.6457V27.3993ZM76.0338 25.0397C75.8482 24.8399 75.7633 24.4913 75.7633 24.0259V17.2132H77.89V15.1858H75.7633V12.2283H73.0632V15.1858H71.0883V17.2132H73.0632V24.1255C73.0632 26.4522 74.1099 27.6148 76.1856 27.6148C76.7597 27.6148 77.3497 27.5318 77.9749 27.3492V25.2222C77.6533 25.3053 77.3331 25.3389 77.0295 25.3389C76.5403 25.3554 76.2187 25.2552 76.0338 25.0397ZM67.2572 20.1542H62.1089C62.2275 19.2071 62.5311 18.4761 62.9866 17.9607C63.4427 17.4294 64.0506 17.1803 64.7931 17.1803C65.5356 17.1803 66.1262 17.4123 66.5479 17.8776C66.9701 18.343 67.2068 19.041 67.2738 19.9552V20.1542H67.2572ZM64.7931 14.9703C63.7629 14.9703 62.8348 15.2359 61.9909 15.7678C61.1469 16.299 60.5059 17.0471 60.0332 18.0108C59.5778 18.9744 59.3411 20.0547 59.3411 21.2675V21.5997C59.3411 23.411 59.8814 24.8736 60.9447 25.9703C62.0081 27.0665 63.3923 27.6148 65.1133 27.6148C66.109 27.6148 67.0205 27.4158 67.8306 27.017C68.6414 26.6182 69.2818 26.0534 69.7545 25.3224L68.3033 23.9093C67.527 24.923 66.5147 25.4384 65.2823 25.4384C64.4046 25.4384 63.6621 25.1392 63.0887 24.5578C62.4973 23.9765 62.1771 23.179 62.0923 22.1652H69.9573V21.0684C69.9573 19.124 69.5019 17.6285 68.6242 16.5653C67.6961 15.5015 66.4299 14.9703 64.7931 14.9703ZM53.1301 14.9703C51.6789 14.9703 50.5141 15.5186 49.6198 16.5983L49.535 15.1858H47.0039V27.3828H49.704V18.7088C50.2443 17.7115 51.0544 17.2132 52.1344 17.2132C52.8768 17.2132 53.4171 17.3958 53.7546 17.7781C54.092 18.1439 54.2438 18.7253 54.2438 19.4898V27.3828H56.9446V19.3238C56.9108 16.4322 55.6453 14.9703 53.1301 14.9703ZM80.7592 27.3993H83.46V10.0848H80.7592V27.3993Z" fill="black"/>
<path d="M119.201 25.2352C119.888 25.2352 120.458 25.0362 120.912 24.6382C121.365 24.2402 121.606 23.7484 121.637 23.1626H124.231C124.201 23.9211 123.963 24.6288 123.517 25.2859C123.072 25.943 122.468 26.463 121.705 26.846C120.942 27.229 120.119 27.4205 119.235 27.4205C117.52 27.4205 116.161 26.8686 115.156 25.7647C114.152 24.6608 113.649 23.1363 113.649 21.1914V20.9098C113.649 19.0549 114.148 17.5699 115.145 16.4547C116.142 15.3396 117.501 14.782 119.223 14.782C120.681 14.782 121.869 15.2044 122.787 16.0492C123.704 16.894 124.186 18.0036 124.231 19.3778H121.637C121.606 18.6794 121.367 18.1049 120.917 17.6544C120.468 17.2038 119.896 16.9785 119.201 16.9785C118.31 16.9785 117.622 17.2995 117.139 17.9416C116.655 18.5837 116.41 19.558 116.402 20.8647V21.304C116.402 22.6257 116.642 23.6113 117.122 24.2609C117.602 24.9105 118.294 25.2352 119.201 25.2352ZM128.707 15.0073L128.786 16.2801C129.647 15.2814 130.825 14.782 132.321 14.782C133.96 14.782 135.082 15.4053 135.686 16.6519C136.577 15.4053 137.831 14.782 139.447 14.782C140.799 14.782 141.806 15.1537 142.466 15.8971C143.127 16.6406 143.465 17.737 143.48 19.1863V27.1952H140.727V19.2652C140.727 18.4917 140.557 17.9247 140.218 17.5643C139.878 17.2038 139.315 17.0236 138.529 17.0236C137.903 17.0236 137.391 17.1907 136.994 17.5248C136.598 17.859 136.32 18.2964 136.162 18.8371L136.173 27.1952H133.42V19.1751C133.382 17.7407 132.646 17.0236 131.211 17.0236C130.108 17.0236 129.326 17.4704 128.865 18.364V27.1952H126.112V15.0073H128.707ZM152.986 23.8835C152.986 23.3954 152.784 23.0237 152.38 22.7684C151.976 22.513 151.306 22.2878 150.369 22.0925C149.433 21.8973 148.651 21.6494 148.024 21.3491C146.649 20.6882 145.962 19.7308 145.962 18.4767C145.962 17.4253 146.408 16.5467 147.299 15.8408C148.19 15.1349 149.323 14.782 150.698 14.782C152.163 14.782 153.347 15.1424 154.25 15.8634C155.152 16.5843 155.603 17.5192 155.603 18.6682H152.85C152.85 18.1425 152.654 17.7051 152.261 17.3559C151.869 17.0067 151.347 16.8321 150.698 16.8321C150.094 16.8321 149.601 16.971 149.219 17.2489C148.838 17.5267 148.647 17.8984 148.647 18.364C148.647 18.7846 148.825 19.1112 149.18 19.344C149.535 19.5768 150.252 19.8115 151.332 20.048C152.412 20.2846 153.26 20.5662 153.876 20.8929C154.491 21.2195 154.948 21.6119 155.247 22.07C155.545 22.5281 155.694 23.0838 155.694 23.7371C155.694 24.8335 155.237 25.7215 154.323 26.4011C153.409 27.0807 152.212 27.4205 150.732 27.4205C149.727 27.4205 148.832 27.2403 148.047 26.8798C147.261 26.5194 146.649 26.0237 146.211 25.3929C145.773 24.7621 145.554 24.0825 145.554 23.3541H148.228C148.266 23.9999 148.511 24.4974 148.964 24.8466C149.418 25.1958 150.018 25.3704 150.766 25.3704C151.491 25.3704 152.042 25.2334 152.42 24.9593C152.798 24.6852 152.986 24.3266 152.986 23.8835Z" fill="#C9FA4B"/>
</svg>
