<svg width="158" height="34" viewBox="0 0 158 34" fill="none" xmlns="http://www.w3.org/2000/svg">
<path d="M23.9317 8.8133L22.4944 11.3587L17.5788 2.65139L2.4889 29.3777H12.7058C12.7058 30.7835 13.8201 31.9231 15.1947 31.9231H2.4889C1.59979 31.9231 0.778298 31.4377 0.333817 30.6502C-0.110664 29.8627 -0.110619 28.8925 0.333937 28.105L15.4239 1.37871C15.8684 0.591132 16.6901 0.105957 17.5793 0.105957C18.4686 0.105957 19.2902 0.591132 19.7348 1.37871L23.9317 8.8133Z" fill="#FAFAFF"/>
<path d="M34.8248 28.1051L25.3691 11.3587L23.9317 8.81335L22.4944 11.3587L13.0397 28.1051C12.5952 28.8926 12.5951 29.8627 13.0396 30.6502C13.4841 31.4378 14.3056 31.9231 15.1947 31.9231H32.6667C33.556 31.9231 34.3778 31.4383 34.8226 30.6507C35.2673 29.8631 35.2674 28.8927 34.8227 28.1051H34.8248ZM15.1947 29.3778L23.9318 13.9041L32.6667 29.3778H15.1947L15.1947 29.3778Z" fill="#E5E5E5"/>
<path d="M41.5851 30.6504C41.1406 31.4378 40.3192 31.9231 39.4302 31.9231H32.6666C34.0412 31.9231 35.1555 30.7835 35.1555 29.3777H39.425L27.3103 7.91922L25.369 11.3586L23.9316 8.81327L25.1553 6.64653C25.5999 5.85895 26.4216 5.37378 27.3108 5.37378C28.2 5.37378 29.0217 5.85895 29.4663 6.64653L41.5851 28.105C42.0297 28.8926 42.0297 29.8628 41.5851 30.6504Z" fill="#FAFAFF"/>
<path d="M74.5392 9.8C74.7645 9.8 74.9379 9.86933 75.0592 10.008C75.1979 10.1467 75.2672 10.32 75.2672 10.528V27.168C75.2672 27.428 75.1892 27.636 75.0332 27.792C74.8772 27.9307 74.6865 28 74.4612 28C74.3399 28 74.2185 27.974 74.0972 27.922C73.9932 27.87 73.9065 27.8093 73.8372 27.74L62.6832 12.712V27.298C62.6832 27.4887 62.6052 27.6533 62.4492 27.792C62.3105 27.9307 62.1459 28 61.9552 28C61.7472 28 61.5739 27.9307 61.4352 27.792C61.2965 27.6533 61.2272 27.4887 61.2272 27.298V10.58C61.2272 10.3373 61.2965 10.1467 61.4352 10.008C61.5912 9.86933 61.7732 9.8 61.9812 9.8C62.2585 9.8 62.4665 9.89533 62.6052 10.086L73.8112 25.192V10.528C73.8112 10.32 73.8805 10.1467 74.0192 10.008C74.1579 9.86933 74.3312 9.8 74.5392 9.8ZM93.0132 9.8C93.2386 9.8 93.4206 9.878 93.5592 10.034C93.7152 10.1727 93.7932 10.3547 93.7932 10.58V21.344C93.7932 22.6093 93.4899 23.7707 92.8832 24.828C92.2766 25.8853 91.4532 26.7173 90.4132 27.324C89.3732 27.9307 88.2292 28.234 86.9812 28.234C85.7159 28.234 84.5632 27.9307 83.5232 27.324C82.4832 26.7173 81.6599 25.8853 81.0532 24.828C80.4466 23.7707 80.1432 22.6093 80.1432 21.344V10.58C80.1432 10.3547 80.2126 10.1727 80.3512 10.034C80.5072 9.878 80.7152 9.8 80.9752 9.8C81.1832 9.8 81.3652 9.878 81.5212 10.034C81.6772 10.1727 81.7552 10.3547 81.7552 10.58V21.344C81.7552 22.3147 81.9892 23.2073 82.4572 24.022C82.9252 24.8367 83.5579 25.4867 84.3552 25.972C85.1699 26.44 86.0452 26.674 86.9812 26.674C87.9346 26.674 88.8099 26.44 89.6072 25.972C90.4219 25.4867 91.0632 24.8367 91.5312 24.022C92.0166 23.2073 92.2592 22.3147 92.2592 21.344V10.58C92.2592 10.3547 92.3286 10.1727 92.4672 10.034C92.6059 9.878 92.7879 9.8 93.0132 9.8ZM110.67 26.83C110.792 27.0033 110.852 27.1593 110.852 27.298C110.852 27.5407 110.766 27.74 110.592 27.896C110.436 28.0347 110.254 28.104 110.046 28.104C109.786 28.104 109.578 27.9913 109.422 27.766L103.806 20.148L98.2165 27.74C98.0605 27.9827 97.8525 28.104 97.5925 28.104C97.3845 28.104 97.2111 28.0347 97.0725 27.896C96.9511 27.74 96.8905 27.5753 96.8905 27.402C96.8905 27.2287 96.9511 27.0553 97.0725 26.882L102.922 18.926L97.0465 10.97C96.9251 10.8313 96.8645 10.6753 96.8645 10.502C96.8645 10.294 96.9425 10.112 97.0985 9.956C97.2718 9.8 97.4625 9.722 97.6705 9.722C97.9305 9.722 98.1471 9.826 98.3205 10.034L103.91 17.652L109.474 10.06C109.665 9.83467 109.873 9.722 110.098 9.722C110.306 9.722 110.48 9.79133 110.618 9.93C110.774 10.0513 110.852 10.2073 110.852 10.398C110.852 10.5367 110.792 10.7013 110.67 10.892L104.82 18.874L110.67 26.83ZM125.788 9.8C126.013 9.8 126.195 9.86933 126.334 10.008C126.49 10.1467 126.568 10.3287 126.568 10.554C126.568 10.7793 126.49 10.9613 126.334 11.1C126.195 11.2213 126.013 11.282 125.788 11.282H120.406V27.22C120.406 27.4453 120.328 27.636 120.172 27.792C120.016 27.9307 119.825 28 119.6 28C119.357 28 119.158 27.9307 119.002 27.792C118.863 27.636 118.794 27.4453 118.794 27.22V11.282H113.412C113.187 11.282 112.996 11.2127 112.84 11.074C112.701 10.9353 112.632 10.7533 112.632 10.528C112.632 10.32 112.701 10.1467 112.84 10.008C112.996 9.86933 113.187 9.8 113.412 9.8H125.788ZM132.498 28.26C131.424 28.26 130.453 27.9653 129.586 27.376C128.72 26.7693 128.052 25.9633 127.584 24.958C127.498 24.8193 127.454 24.6807 127.454 24.542C127.454 24.334 127.532 24.1607 127.688 24.022C127.862 23.8833 128.044 23.814 128.234 23.814C128.512 23.814 128.754 23.9613 128.962 24.256C129.292 25.0013 129.768 25.5993 130.392 26.05C131.016 26.4833 131.718 26.7 132.498 26.7C133.694 26.7 134.665 26.336 135.41 25.608C136.156 24.8627 136.528 23.892 136.528 22.696V10.58C136.528 10.3547 136.606 10.1727 136.762 10.034C136.918 9.878 137.118 9.8 137.36 9.8C137.603 9.8 137.794 9.878 137.932 10.034C138.088 10.1727 138.166 10.3547 138.166 10.58V22.696C138.166 23.7533 137.924 24.7067 137.438 25.556C136.953 26.4053 136.277 27.0727 135.41 27.558C134.561 28.026 133.59 28.26 132.498 28.26ZM147.975 28.26C146.727 28.26 145.618 28.052 144.647 27.636C143.694 27.22 142.767 26.57 141.865 25.686C141.657 25.5127 141.553 25.3047 141.553 25.062C141.553 24.854 141.631 24.6633 141.787 24.49C141.961 24.3167 142.151 24.23 142.359 24.23C142.567 24.23 142.758 24.3167 142.931 24.49C144.283 25.9807 145.973 26.726 148.001 26.726C149.249 26.726 150.281 26.4313 151.095 25.842C151.927 25.2527 152.343 24.4813 152.343 23.528C152.343 22.7827 152.135 22.1673 151.719 21.682C151.321 21.1793 150.792 20.772 150.133 20.46C149.475 20.148 148.634 19.8273 147.611 19.498C146.502 19.1687 145.566 18.8047 144.803 18.406C144.058 18.0073 143.451 17.4787 142.983 16.82C142.515 16.144 142.281 15.2947 142.281 14.272C142.281 13.3533 142.524 12.5387 143.009 11.828C143.512 11.1173 144.205 10.5627 145.089 10.164C145.991 9.748 147.022 9.54 148.183 9.54C149.241 9.54 150.229 9.722 151.147 10.086C152.083 10.4327 152.829 10.9353 153.383 11.594C153.643 11.8887 153.773 12.14 153.773 12.348C153.773 12.5387 153.687 12.7207 153.513 12.894C153.34 13.05 153.149 13.128 152.941 13.128C152.768 13.128 152.621 13.0673 152.499 12.946C152.031 12.3913 151.407 11.9407 150.627 11.594C149.847 11.2473 149.033 11.074 148.183 11.074C146.918 11.074 145.887 11.36 145.089 11.932C144.292 12.4867 143.893 13.2493 143.893 14.22C143.893 15.2253 144.275 15.9967 145.037 16.534C145.8 17.0713 146.892 17.5653 148.313 18.016C149.544 18.38 150.549 18.7527 151.329 19.134C152.109 19.5153 152.742 20.0613 153.227 20.772C153.73 21.4653 153.981 22.384 153.981 23.528C153.981 24.412 153.721 25.218 153.201 25.946C152.699 26.6567 151.988 27.22 151.069 27.636C150.168 28.052 149.137 28.26 147.975 28.26Z" fill="#FAFAFF"/>
</svg>
