<svg width="154" height="40" viewBox="0 0 154 40" fill="none" xmlns="http://www.w3.org/2000/svg">
<g clip-path="url(#clip0)">
<path fill-rule="evenodd" clip-rule="evenodd" d="M50.657 11.3763H51.6095C52.2596 11.3763 52.7865 11.903 52.7865 12.5526V13.6664C52.7865 13.7009 52.8145 13.7289 52.8491 13.7289C53.3913 12.7704 54.1211 12.0734 55.0386 11.6377C55.9562 11.2021 56.9467 10.9842 58.0103 10.9842C59.1572 10.9842 60.1894 11.1966 61.1069 11.6214C62.0245 12.0462 62.8065 12.6289 63.453 13.3695C64.0994 14.1101 64.5894 14.9814 64.9231 15.9835C65.2567 16.9855 65.4235 18.0638 65.4235 19.2183C65.4235 20.3727 65.2463 21.451 64.8918 22.453C64.5373 23.4551 64.0421 24.3265 63.4061 25.0671C62.77 25.8076 62.0037 26.3903 61.1069 26.8151C60.2102 27.2399 59.2302 27.4522 58.1667 27.4522C57.4577 27.4522 56.8321 27.3761 56.2899 27.2236C55.7476 27.0711 55.268 26.8751 54.851 26.6354C54.434 26.3958 54.0794 26.1399 53.7875 25.8676C53.4955 25.5953 53.2557 25.3284 53.0681 25.0671C53.0162 25.0671 52.9743 25.109 52.9743 25.1609V33.0745C52.9743 33.8673 52.3312 34.51 51.5378 34.51H50.657C49.8638 34.51 49.2207 33.8673 49.2207 33.0745V12.8119C49.2207 12.019 49.8638 11.3763 50.657 11.3763ZM61.6699 19.2183C61.6699 18.6084 61.571 18.0202 61.3728 17.4538C61.1748 16.8874 60.8828 16.3865 60.497 15.9508C60.1111 15.5151 59.6472 15.1666 59.105 14.9052C58.5629 14.6438 57.9477 14.5131 57.2595 14.5131C56.5715 14.5131 55.9562 14.6438 55.414 14.9052C54.8718 15.1666 54.4079 15.5151 54.0221 15.9508C53.6362 16.3865 53.3444 16.8874 53.1462 17.4538C52.9482 18.0202 52.8491 18.6084 52.8491 19.2183C52.8491 19.8282 52.9482 20.4164 53.1462 20.9826C53.3444 21.549 53.6362 22.05 54.0221 22.4857C54.4079 22.9214 54.8718 23.27 55.414 23.5313C55.9562 23.7927 56.5715 23.9234 57.2595 23.9234C57.9477 23.9234 58.5629 23.7927 59.105 23.5313C59.6472 23.27 60.1111 22.9214 60.497 22.4857C60.8828 22.05 61.1748 21.549 61.3728 20.9826C61.571 20.4164 61.6699 19.8282 61.6699 19.2183ZM70.8324 11.3763H71.9074C72.5935 11.3763 73.1497 11.9322 73.1497 12.618V13.7971C73.1497 13.8316 73.1777 13.8596 73.2122 13.8596C73.6293 12.9447 74.2235 12.2368 74.9951 11.7357C75.7668 11.2347 76.653 10.9842 77.6539 10.9842C77.8833 10.9842 78.1074 11.006 78.3264 11.0496C78.7173 11.1274 78.9989 11.4703 78.9989 11.8687V14.0199C78.9989 14.4526 78.648 14.8033 78.2152 14.8033C78.1686 14.8033 78.1221 14.7991 78.0762 14.7908C77.7738 14.7364 77.4767 14.7091 77.1847 14.7091C76.3088 14.7091 75.6051 14.878 75.0733 15.2156C74.5416 15.5532 74.135 15.9399 73.8534 16.3756C73.572 16.8113 73.3842 17.2468 73.2904 17.6825C73.1966 18.1182 73.1497 18.4449 73.1497 18.6628V25.6246C73.1497 26.4175 72.5066 27.0602 71.7133 27.0602H70.8324C70.0392 27.0602 69.3961 26.4175 69.3961 25.6246V12.8119C69.3961 12.019 70.0392 11.3763 70.8324 11.3763ZM83.532 11.3763H84.4128C85.2062 11.3763 85.8493 12.019 85.8493 12.8119V25.6246C85.8493 26.4175 85.2062 27.0602 84.4128 27.0602H83.532C82.7387 27.0602 82.0957 26.4175 82.0957 25.6246V12.8119C82.0957 12.019 82.7387 11.3763 83.532 11.3763ZM81.5639 6.05033C81.5639 5.41862 81.788 4.8686 82.2364 4.40025C82.6848 3.93191 83.2529 3.69775 83.9412 3.69775C84.6294 3.69775 85.2079 3.92102 85.6772 4.36758C86.1464 4.81414 86.3809 5.37505 86.3809 6.05033C86.3809 6.72561 86.1464 7.28652 85.6772 7.73308C85.2079 8.17964 84.6294 8.40292 83.9412 8.40292C83.2529 8.40292 82.6848 8.16875 82.2364 7.70041C81.788 7.23207 81.5639 6.68204 81.5639 6.05033ZM97.7356 14.9605C96.9741 14.4008 96.2963 14.121 95.7023 14.121C95.2019 14.121 94.7119 14.2517 94.2323 14.5131C93.7526 14.7745 93.5128 15.1993 93.5128 15.7874C93.5128 16.2666 93.7108 16.6151 94.1071 16.833C94.5033 17.0508 95.0037 17.2359 95.6085 17.3884C96.2132 17.5409 96.8649 17.699 97.5635 17.8623C98.262 18.0257 98.9137 18.2761 99.5185 18.6138C100.123 18.9514 100.624 19.4143 101.02 20.0025C101.416 20.5906 101.614 21.3966 101.614 22.4204C101.614 23.357 101.421 24.1467 101.035 24.7894C100.65 25.4319 100.149 25.9492 99.534 26.3414C98.919 26.7335 98.2256 27.0166 97.454 27.191C96.6824 27.3652 95.9109 27.4522 95.1393 27.4522C93.9715 27.4522 92.8976 27.278 91.9175 26.9295C91.5336 26.793 91.0731 26.5188 90.5358 26.1066C89.9065 25.6241 89.7879 24.7228 90.2707 24.0938C90.3119 24.0402 90.3567 23.9897 90.405 23.9425L90.7944 23.5612C91.3316 23.035 92.1842 23.0122 92.7487 23.509C92.9764 23.7094 93.1738 23.8639 93.3407 23.9724C93.8933 24.3319 94.5659 24.5116 95.3583 24.5116C95.6293 24.5116 95.9109 24.479 96.2028 24.4135C96.4948 24.3482 96.7658 24.2393 97.016 24.0868C97.2664 23.9343 97.4697 23.7438 97.6261 23.515C97.7824 23.2863 97.8606 23.0194 97.8606 22.7145C97.8606 22.1698 97.6624 21.767 97.2662 21.5055C96.8702 21.2441 96.3696 21.0318 95.7649 20.8684C95.1601 20.705 94.5086 20.5526 93.8099 20.411C93.1113 20.2694 92.4596 20.0406 91.8549 19.7247C91.2501 19.4089 90.7497 18.9678 90.3535 18.4014C89.9573 17.835 89.7592 17.0508 89.7592 16.0489C89.7592 15.1775 89.9312 14.4205 90.2754 13.7779C90.6194 13.1353 91.0729 12.6071 91.6359 12.1932C92.199 11.7793 92.8454 11.4743 93.5752 11.2783C94.3051 11.0822 95.0455 10.9842 95.7961 10.9842C96.7972 10.9842 97.7876 11.1639 98.7677 11.5234C99.1226 11.6535 99.5185 11.8945 99.9554 12.2463C100.573 12.7438 100.67 13.6475 100.173 14.2649C100.131 14.3162 100.086 14.3647 100.038 14.4098L99.5707 14.8496C99.0658 15.3242 98.294 15.3708 97.7356 14.9605ZM106.272 11.3763H106.965C107.759 11.3763 108.402 12.019 108.402 12.8119V13.8269C108.798 13.0863 109.335 12.4274 110.075 11.8501C110.816 11.2728 111.811 10.9842 113.063 10.9842C115.419 10.9842 116.983 11.9536 117.755 13.8923C118.297 12.8902 118.974 12.1551 119.788 11.6867C120.601 11.2184 121.571 10.9842 122.697 10.9842C123.698 10.9842 124.542 11.1585 125.23 11.507C125.919 11.8555 126.476 12.3348 126.904 12.9447C127.331 13.5546 127.639 14.268 127.827 15.0849C128.014 15.9018 128.108 16.7785 128.108 17.7153V25.6246C128.108 26.4175 127.465 27.0602 126.672 27.0602H125.791C124.998 27.0602 124.355 26.4175 124.355 25.6246V18.1727C124.355 17.6934 124.313 17.2305 124.229 16.7839C124.146 16.3374 124 15.9454 123.791 15.6077C123.583 15.2701 123.301 15.0032 122.947 14.8072C122.592 14.6111 122.134 14.5131 121.571 14.5131C120.987 14.5131 120.491 14.6275 120.085 14.8562C119.678 15.0849 119.345 15.3899 119.084 15.7711C118.823 16.1522 118.636 16.5879 118.521 17.078C118.406 17.5682 118.349 18.0638 118.349 18.5647V25.6246C118.349 26.4175 117.706 27.0602 116.913 27.0602H116.032C115.238 27.0602 114.595 26.4175 114.595 25.6246V17.7153C114.595 16.735 114.397 15.9562 114.001 15.379C113.605 14.8017 112.948 14.5131 112.03 14.5131C111.405 14.5131 110.878 14.622 110.451 14.8398C110.023 15.0577 109.669 15.3518 109.387 15.7221C109.106 16.0924 108.902 16.5172 108.777 16.9964C108.652 17.4756 108.59 17.9766 108.59 18.4994V25.6246C108.59 26.4175 107.946 27.0602 107.153 27.0602H106.272C105.479 27.0602 104.836 26.4175 104.836 25.6246V12.8119C104.836 12.019 105.479 11.3763 106.272 11.3763ZM134.174 11.3763H135.055C135.848 11.3763 136.491 12.019 136.491 12.8119V25.6246C136.491 26.4175 135.848 27.0602 135.055 27.0602H134.174C133.381 27.0602 132.738 26.4175 132.738 25.6246V12.8119C132.738 12.019 133.381 11.3763 134.174 11.3763ZM132.206 6.05033C132.206 5.41862 132.43 4.8686 132.878 4.40025C133.327 3.93191 133.895 3.69775 134.583 3.69775C135.271 3.69775 135.85 3.92102 136.319 4.36758C136.788 4.81414 137.023 5.37505 137.023 6.05033C137.023 6.72561 136.788 7.28652 136.319 7.73308C135.85 8.17964 135.271 8.40292 134.583 8.40292C133.895 8.40292 133.327 8.16875 132.878 7.70041C132.43 7.23207 132.206 6.68204 132.206 6.05033ZM150.568 15.2228C150.413 15.102 150.278 15.007 150.16 14.9379C149.681 14.6547 149.191 14.5131 148.69 14.5131C148.002 14.5131 147.387 14.6438 146.845 14.9052C146.303 15.1666 145.838 15.5151 145.453 15.9508C145.067 16.3865 144.775 16.8874 144.577 17.4538C144.379 18.0202 144.28 18.6084 144.28 19.2183C144.28 19.8282 144.379 20.4164 144.577 20.9826C144.775 21.549 145.067 22.05 145.453 22.4857C145.838 22.9214 146.303 23.27 146.845 23.5313C147.387 23.7927 148.002 23.9234 148.69 23.9234C149.274 23.9234 149.816 23.7982 150.317 23.5476C150.418 23.497 150.528 23.4282 150.646 23.341C151.243 22.9022 152.077 22.9897 152.57 23.5433L153.141 24.1839C153.643 24.7478 153.592 25.6118 153.028 26.1137C152.959 26.1753 152.884 26.2297 152.803 26.2761C152.313 26.5591 151.818 26.7879 151.318 26.9622C150.817 27.1364 150.338 27.2617 149.879 27.338C149.42 27.4142 149.024 27.4522 148.69 27.4522C147.564 27.4522 146.501 27.2563 145.5 26.8641C144.499 26.4721 143.633 25.9166 142.903 25.1977C142.174 24.479 141.595 23.613 141.167 22.6001C140.74 21.5871 140.526 20.4599 140.526 19.2183C140.526 17.9766 140.74 16.8494 141.167 15.8364C141.595 14.8235 142.174 13.9576 142.903 13.2388C143.633 12.5199 144.499 11.9645 145.5 11.5724C146.501 11.1803 147.564 10.9842 148.69 10.9842C149.649 10.9842 150.614 11.1748 151.584 11.556C151.953 11.7013 152.389 11.961 152.891 12.3353C153.527 12.809 153.659 13.7085 153.185 14.3442C153.15 14.3913 153.112 14.4363 153.071 14.4788L152.491 15.0848C151.981 15.6178 151.149 15.6775 150.568 15.2228Z" fill="black"/>
<path fill-rule="evenodd" clip-rule="evenodd" d="M38.9552 20.5306L36.0451 17.6157C35.8144 17.3846 35.6849 17.0715 35.6849 16.7451V13.1774C35.6849 9.88102 35.3423 8.68568 34.6988 7.48058C34.0554 6.27547 33.111 5.3297 31.908 4.6852C30.7047 4.0407 29.5113 3.69747 26.2202 3.69747H21.5133C21.3771 3.69747 21.2666 3.58712 21.2666 3.45098C21.2666 3.3857 21.2925 3.32309 21.3386 3.27686L24.2489 0.361928C24.4802 0.130216 24.7943 0 25.1218 0H26.7568C31.145 0 32.7362 0.457627 34.3405 1.31696C35.9447 2.17629 37.2037 3.43731 38.0616 5.04413C38.9196 6.65093 39.3765 8.24472 39.3765 12.6399V20.3563C39.3765 20.4925 39.2661 20.6029 39.1298 20.6029C39.0644 20.6029 39.0014 20.5768 38.9552 20.5306Z" fill="#E55638"/>
<path fill-rule="evenodd" clip-rule="evenodd" d="M18.8777 39.0198L21.7879 36.1047C22.0193 35.873 22.3334 35.7428 22.6609 35.7428H26.2203C29.5114 35.7428 30.7048 35.3996 31.9079 34.7551C33.1111 34.1107 34.0553 33.1649 34.6988 31.9598C35.3422 30.7546 35.685 29.5593 35.685 26.263V21.5489C35.685 21.4127 35.7955 21.3025 35.9315 21.3025C35.9972 21.3025 36.0599 21.3284 36.1062 21.3748L39.0163 24.2895C39.2469 24.5206 39.3765 24.8337 39.3765 25.1601V26.8004C39.3765 31.1956 38.9196 32.7894 38.0616 34.3962C37.2037 36.003 35.9447 37.2641 34.3404 38.1234C32.7362 38.9826 31.1451 39.4404 26.7569 39.4404H19.0522C18.916 39.4404 18.8057 39.33 18.8057 39.1938C18.8057 39.1286 18.8316 39.066 18.8777 39.0198Z" fill="#F4C942"/>
<path fill-rule="evenodd" clip-rule="evenodd" d="M0.421218 18.9095L3.3313 21.8244C3.562 22.0554 3.69156 22.3685 3.69156 22.6949V26.2626C3.69156 29.5591 4.03423 30.7543 4.67768 31.9594C5.32116 33.1645 6.2654 34.1103 7.46857 34.7548C8.67176 35.3994 9.86518 35.7426 13.1563 35.7426H17.8632C17.9995 35.7426 18.1099 35.8528 18.1099 35.989C18.1099 36.0543 18.084 36.117 18.0379 36.1631L15.1276 39.0781C14.8962 39.3098 14.5821 39.44 14.2546 39.44H12.6196C8.2315 39.44 6.64026 38.9824 5.03604 38.1231C3.4318 37.2637 2.17279 36.0028 1.31484 34.3959C0.456893 32.7892 0 31.1952 0 26.8002V19.0837C0 18.9476 0.110422 18.8372 0.246634 18.8372C0.312137 18.8372 0.374949 18.8632 0.421218 18.9095Z" fill="#849AFC"/>
<path fill-rule="evenodd" clip-rule="evenodd" d="M20.4989 0.420613L17.5885 3.33555C17.3572 3.56726 17.0433 3.69749 16.7157 3.69749H13.1563C9.86518 3.69749 8.67174 4.0407 7.46857 4.6852C6.2654 5.3297 5.32116 6.27547 4.67768 7.48058C4.03423 8.68568 3.69156 9.88104 3.69156 13.1774V17.8914C3.69156 18.0275 3.58113 18.1379 3.44491 18.1379C3.37942 18.1379 3.3166 18.1118 3.27034 18.0656L0.360249 15.1508C0.129559 14.9197 0 14.6066 0 14.2802V12.6399C0 8.24474 0.456894 6.65094 1.31485 5.04413C2.17279 3.43733 3.4318 2.17629 5.03604 1.31696C6.64026 0.457629 8.2315 0 12.6196 0H20.3243C20.4605 0 20.5709 0.110361 20.5709 0.246499C20.5709 0.311782 20.545 0.3744 20.4989 0.420613Z" fill="#D97EE8"/>
<path fill-rule="evenodd" clip-rule="evenodd" d="M32.8067 14.3902L28.8385 10.5915C28.5759 10.3286 28.2689 10.1375 27.9416 10.0181C27.6711 9.91568 27.3778 9.85958 27.0714 9.85958H15.358C15.2218 9.85958 15.1113 9.74923 15.1113 9.61309C15.1113 9.54777 15.1373 9.48512 15.1834 9.43891L18.0964 6.52366C18.3277 6.29217 18.6417 6.16211 18.969 6.16211H28.3018C31.0203 6.16211 33.2239 8.36933 33.2239 11.0921V14.2121C33.2239 14.3483 33.1136 14.4587 32.9774 14.4587C32.9138 14.4587 32.8526 14.4341 32.8067 14.3902Z" fill="#E55638"/>
<path fill-rule="evenodd" clip-rule="evenodd" d="M25.0081 32.8635L28.8019 28.8875C29.0644 28.6246 29.2553 28.3171 29.3744 27.9892C29.4767 27.7182 29.5325 27.4244 29.5325 27.1175V15.3859C29.5325 15.2498 29.643 15.1394 29.7792 15.1394C29.8447 15.1394 29.9076 15.1655 29.9539 15.2119L32.8643 18.1294C33.0948 18.3604 33.2242 18.6734 33.2242 18.9996V28.35C33.2242 31.0729 31.0206 33.2801 28.3021 33.2801H25.1866C25.0504 33.2801 24.9399 33.1697 24.9399 33.0336C24.9399 32.9702 24.9643 32.9092 25.0081 32.8635Z" fill="#F4C942"/>
<path fill-rule="evenodd" clip-rule="evenodd" d="M6.57007 25.0497L10.5384 28.8484C10.8009 29.1113 11.1079 29.3023 11.4352 29.4217C11.7057 29.5241 11.999 29.5802 12.3054 29.5802H24.0188C24.155 29.5802 24.2655 29.6906 24.2655 29.8268C24.2655 29.8921 24.2396 29.9546 24.1933 30.0009L21.2804 32.9161C21.049 33.1476 20.7351 33.2777 20.4077 33.2777H11.0749C8.35652 33.2777 6.15283 31.0705 6.15283 28.3478V25.2276C6.15283 25.0916 6.26326 24.9812 6.39948 24.9812C6.46305 24.9812 6.52416 25.0057 6.57007 25.0497Z" fill="#849AFC"/>
<path fill-rule="evenodd" clip-rule="evenodd" d="M14.3689 6.57872L10.5751 10.5547C10.3126 10.8176 10.1218 11.1251 10.0027 11.4529C9.90039 11.7239 9.84439 12.0177 9.84439 12.3246V24.0563C9.84439 24.1925 9.73396 24.3027 9.59776 24.3027C9.53222 24.3027 9.46937 24.2766 9.4231 24.2302L6.51273 21.3128C6.28225 21.0818 6.15283 20.7688 6.15283 20.4426V11.0921C6.15283 8.36933 8.35652 6.16211 11.0749 6.16211H14.1905C14.3267 6.16211 14.4371 6.27246 14.4371 6.40861C14.4371 6.47197 14.4127 6.53288 14.3689 6.57872Z" fill="#D97EE8"/>
</g>
<defs>
<clipPath id="clip0">
<rect width="153.684" height="40" fill="white"/>
</clipPath>
</defs>
</svg>
