<svg width="144" height="30" viewBox="0 0 144 30" fill="none" xmlns="http://www.w3.org/2000/svg">
<path opacity="0.7" d="M106.608 10.8992V28.6403H100.777V13.9281L106.608 10.8992Z" fill="#F03E2F"/>
<path opacity="0.7" d="M28.5698 29.0863L42.1965 21.9615L40.5166 17.6101L31.5454 21.7937L28.5698 29.0863Z" fill="#F03E2F"/>
<path opacity="0.5" d="M100.777 13.9127L115.56 6.34739L113.063 2.12329L100.777 8.12721V13.9127Z" fill="#F03E2F"/>
<path opacity="0.7" d="M59.1417 9.494V28.6401H53.5811V1.37329L59.1417 9.494Z" fill="#F03E2F"/>
<path opacity="0.5" d="M36.9951 8.4356L28.5695 29.0863L24.2358 25.3558L34.2752 1.37329L36.9951 8.4356Z" fill="#F03E2F"/>
<path d="M34.2754 1.37329H40.0196L50.6435 28.6401H44.7639L34.2754 1.37329Z" fill="#F03E2F"/>
<path d="M60.0017 1.37329L72.2488 20.002V28.6401L53.5811 1.37329H60.0017Z" fill="#F03E2F"/>
<path d="M88.5251 1.37329H82.7373V28.6449H88.5251V1.37329Z" fill="#F03E2F"/>
<path d="M100.777 6.34729H91.8682V1.37329H112.618L115.56 6.34729H106.608H100.777Z" fill="#F03E2F"/>
<path opacity="0.5" d="M132.648 18.2937V28.6403H126.904V18.2937" fill="#F03E2F"/>
<path d="M126.904 18.2934L136.624 1.37329H142.726L132.648 18.2934H126.904Z" fill="#F03E2F"/>
<path opacity="0.7" d="M126.904 18.2934L116.913 1.37329H123.198L129.967 12.9682L126.904 18.2934Z" fill="#F03E2F"/>
<path d="M2.6743 4.52026C2.6743 8.3172 5.06092 10.5764 9.83898 11.7677L14.9021 12.921C19.424 13.9414 22.1779 16.4758 22.1779 20.6051C22.2131 22.404 21.6177 24.1601 20.4918 25.5791C20.4918 21.4594 18.3226 19.2334 13.0904 17.895L8.11906 16.7844C4.13815 15.8921 1.0655 13.8086 1.0655 9.3234C1.04456 7.59136 1.61052 5.90165 2.6743 4.52026Z" fill="#F03E2F"/>
<path opacity="0.7" d="M72.2485 18.602V1.37329H77.8092V28.6401H72.2485V18.602Z" fill="#F03E2F"/>
<path opacity="0.7" d="M17.3805 19.594C19.54 20.9514 20.4869 22.8498 20.4869 25.5742C18.6995 27.8238 15.5591 29.0864 11.8681 29.0864C5.65516 29.0864 1.30706 26.0821 0.34082 20.8612H6.30737C7.07552 23.2581 9.10947 24.3687 11.8246 24.3687C15.1389 24.3687 17.3418 22.6315 17.3853 19.5845" fill="#F03E2F"/>
<path opacity="0.7" d="M5.77578 10.1491C4.78964 9.57332 3.98059 8.74601 3.4345 7.75494C2.88842 6.76388 2.62566 5.64605 2.67413 4.52011C4.39887 2.28941 7.39907 0.927246 11.0563 0.927246C17.3851 0.927246 21.0472 4.2116 21.9506 8.83438H16.2112C15.5783 7.01184 13.9936 5.59275 11.1046 5.59275C8.01746 5.59275 5.91105 7.35831 5.79026 10.1491" fill="#F03E2F"/>
</svg>
