<svg width="114" height="33" viewBox="0 0 114 33" fill="none" xmlns="http://www.w3.org/2000/svg">
<path d="M39.439 18.3506C38.4683 17.8071 37.9575 17.3671 37.9575 16.7459C37.9575 15.9436 38.6471 15.4518 39.7455 15.4518C41.0227 15.4518 42.1466 15.9953 42.1466 15.9953L43.0406 13.2259C43.0406 13.2259 42.2232 12.5789 39.7966 12.5789C36.4249 12.5789 34.0749 14.5459 34.0749 17.2894C34.0749 18.8424 35.1732 20.033 36.6292 20.8871C37.8042 21.56 38.2129 22.0518 38.2129 22.7506C38.2129 23.5012 37.6254 24.0965 36.527 24.0965C34.8923 24.0965 33.3597 23.2424 33.3597 23.2424L32.4146 26.0118C32.4146 26.0118 33.845 26.9694 36.2205 26.9694C39.6944 26.9694 42.1721 25.2353 42.1721 22.1294C42.2232 20.4212 40.946 19.2306 39.439 18.3506Z" fill="#FAFAFF"/>
<path d="M53.2835 12.527C51.5721 12.527 50.2438 13.3553 49.1965 14.5976L49.1454 14.5717L50.627 6.70349H46.7444L42.9895 26.7106H46.8465L48.1237 19.8776C48.6346 17.2894 49.9373 15.7106 51.1634 15.7106C52.0318 15.7106 52.3639 16.3058 52.3639 17.16C52.3639 17.7035 52.3128 18.3506 52.1851 18.8941L50.7291 26.7364H54.5862L56.0932 18.6611C56.272 17.807 56.3742 16.7976 56.3742 16.0988C56.4253 13.847 55.3014 12.527 53.2835 12.527Z" fill="#FAFAFF"/>
<path d="M65.1613 12.5271C60.5124 12.5271 57.4216 16.7718 57.4216 21.5083C57.4216 24.5365 59.2608 26.9953 62.7347 26.9953C67.3069 26.9953 70.3721 22.8542 70.3721 18.0142C70.3977 15.193 68.7884 12.5271 65.1613 12.5271ZM63.2711 23.9671C61.9428 23.9671 61.4064 22.8283 61.4064 21.4047C61.4064 19.153 62.5559 15.5036 64.6504 15.5036C66.0297 15.5036 66.464 16.6942 66.464 17.8589C66.464 20.2918 65.3145 23.9671 63.2711 23.9671Z" fill="#FAFAFF"/>
<path d="M80.2829 12.5271C77.6774 12.5271 76.1959 14.8565 76.1959 14.8565H76.1448L76.3747 12.76H72.9519C72.7731 14.1836 72.4666 16.3318 72.1601 17.9624L69.478 32.2495H73.3351L74.4079 26.4518H74.4845C74.4845 26.4518 75.2764 26.9695 76.7579 26.9695C81.3046 26.9695 84.2676 22.2589 84.2676 17.4965C84.2676 14.8824 83.1182 12.5271 80.2829 12.5271ZM76.6046 24.0447C75.6084 24.0447 75.0209 23.4753 75.0209 23.4753L75.6595 19.8259C76.1193 17.393 77.3709 15.7624 78.6992 15.7624C79.8742 15.7624 80.2318 16.8753 80.2318 17.9106C80.2318 20.4212 78.7503 24.0447 76.6046 24.0447Z" fill="#FAFAFF"/>
<path d="M89.785 6.91052C88.5589 6.91052 87.5627 7.89405 87.5627 9.18817C87.5627 10.3529 88.278 11.1552 89.3763 11.1552H89.4274C90.6279 11.1552 91.6752 10.327 91.7008 8.87758C91.7263 7.71288 90.96 6.91052 89.785 6.91052Z" fill="#FAFAFF"/>
<path d="M84.3699 26.7106H88.2525L90.8834 12.8376H86.9753L84.3699 26.7106Z" fill="#FAFAFF"/>
<path d="M100.692 12.8118H98.01L98.1377 12.1647C98.3676 10.8188 99.1339 9.62823 100.437 9.62823C101.126 9.62823 101.663 9.83529 101.663 9.83529L102.429 6.78117C102.429 6.78117 101.765 6.4447 100.334 6.4447C98.9551 6.4447 97.6013 6.83294 96.554 7.73882C95.2258 8.87764 94.6128 10.5082 94.3062 12.1647L94.2041 12.8118H92.416L91.8541 15.7624H93.6421L91.5986 26.7106H95.4557L97.4992 15.7624H100.156L100.692 12.8118Z" fill="#FAFAFF"/>
<path d="M109.99 12.8376C109.99 12.8376 107.563 18.9976 106.49 22.3624H106.439C106.363 21.2753 105.494 12.8376 105.494 12.8376H101.433L103.757 25.5718C103.808 25.8565 103.783 26.0376 103.681 26.2188C103.221 27.0988 102.48 27.9529 101.586 28.5741C100.871 29.1176 100.053 29.4541 99.4148 29.6871L100.488 33C101.279 32.8188 102.889 32.1718 104.268 30.8776C106.031 29.1953 107.665 26.6329 109.326 23.1129L114.051 12.8376H109.99Z" fill="#FAFAFF"/>
<path d="M19.1065 3.83063C19.1065 3.83063 18.7489 3.93416 18.1614 4.11534C18.0592 3.77887 17.9059 3.39063 17.7016 2.97651C17.0374 1.6824 16.0413 0.983572 14.8663 0.983572C14.7896 0.983572 14.713 0.983572 14.6108 1.00945C14.5853 0.95769 14.5342 0.931808 14.5087 0.880043C13.9978 0.310631 13.3337 0.0518077 12.5418 0.07769C11.0092 0.129455 9.47661 1.2424 8.25053 3.23534C7.38206 4.63298 6.71793 6.39298 6.53913 7.76475C4.77664 8.30828 3.55056 8.69651 3.52501 8.7224C2.631 9.0071 2.60545 9.03298 2.50328 9.8871C2.42665 10.5342 0.0766602 28.7553 0.0766602 28.7553L19.3874 32.1459V3.80475C19.2342 3.80475 19.1575 3.83063 19.1065 3.83063ZM14.6364 5.22828C13.6146 5.53887 12.4907 5.90122 11.3924 6.23769C11.6989 5.02122 12.3119 3.80475 13.0271 3.0024C13.3081 2.71769 13.6913 2.38122 14.1255 2.17416C14.5597 3.10593 14.6619 4.37416 14.6364 5.22828ZM12.5418 1.13887C12.8994 1.13887 13.2059 1.21651 13.4614 1.37181C13.0527 1.57887 12.644 1.91534 12.2608 2.30357C11.2902 3.36475 10.5494 5.02122 10.2429 6.60004C9.32335 6.88475 8.40379 7.16945 7.56086 7.42828C8.12282 4.94357 10.1918 1.19063 12.5418 1.13887ZM9.57879 15.3742C9.68096 17.0306 13.9978 17.393 14.2532 21.3012C14.432 24.3812 12.644 26.4777 10.0641 26.633C6.94782 26.84 5.23642 24.9765 5.23642 24.9765L5.90055 22.1295C5.90055 22.1295 7.61195 23.4495 8.99129 23.3459C9.88531 23.2942 10.2174 22.5436 10.1918 22.0259C10.0641 19.8518 6.53913 19.9812 6.30924 16.4095C6.10489 13.4071 8.04619 10.3789 12.3375 10.0942C13.9978 9.99063 14.8407 10.4047 14.8407 10.4047L13.8701 14.1318C13.8701 14.1318 12.7717 13.6142 11.469 13.7177C9.57879 13.8471 9.55325 15.0636 9.57879 15.3742ZM15.6581 4.91769C15.6581 4.14122 15.5559 3.02828 15.1983 2.09651C16.3733 2.32945 16.9353 3.64945 17.1907 4.45181C16.7309 4.58122 16.2201 4.73651 15.6581 4.91769Z" fill="#FAFAFF"/>
<path d="M19.9749 32.0942L27.9955 30.0754C27.9955 30.0754 24.5471 6.44477 24.5216 6.28947C24.496 6.13418 24.3683 6.03065 24.2406 6.03065C24.1129 6.03065 21.8651 5.97889 21.8651 5.97889C21.8651 5.97889 20.4857 4.633 19.9749 4.11536V32.0942Z" fill="#FAFAFF"/>
</svg>
