<svg width="175" height="38" viewBox="0 0 175 38" fill="none" xmlns="http://www.w3.org/2000/svg">
<g clip-path="url(#clip0)">
<path d="M32.1375 7.91124L19.1264 0.389058C17.9554 -0.259406 16.1338 -0.259406 14.9628 0.389058L1.95167 7.91124C0.910781 8.6894 0 10.2457 0 11.5426V26.4573C0 27.7542 0.910781 29.3106 2.08178 29.959L15.0929 37.4812C16.2639 38.1297 18.0855 38.1297 19.2565 37.4812L32.2677 29.959C33.4387 29.3106 34.3494 27.7542 34.3494 26.4573V11.5426C34.2193 10.2457 33.3086 8.6894 32.1375 7.91124ZM28.6245 16.0819H27.3234V13.7474C27.3234 12.0614 26.0223 11.4129 23.4201 11.4129H23.29C17.0446 11.4129 17.5651 9.07848 17.4349 8.17063H17.3048C17.1747 9.07848 17.6952 11.4129 11.4498 11.4129H11.3197C8.71747 11.4129 7.41636 11.9317 7.41636 13.7474V15.5631L28.6245 21.6587V24.2525C28.6245 26.7167 27.4535 28.1433 23.29 28.1433H23.0297C19.9071 28.1433 17.8253 28.7918 17.8253 31.3856H16.5242C16.5242 28.9215 14.5725 28.1433 11.3197 28.1433C7.28625 28.1433 5.98513 26.7167 5.98513 24.2525V22.0478H7.28625V24.3822C7.28625 26.0682 8.58736 26.7167 11.1896 26.7167H11.3197C17.5651 26.7167 17.0446 29.0512 17.1747 29.959H17.3048C17.4349 29.0512 16.9145 26.7167 23.1599 26.7167H23.4201C26.0223 26.7167 27.3234 26.1979 27.3234 24.3822V23.0853L5.98513 16.86V13.8771C5.98513 11.4129 7.15613 9.98633 11.3197 9.98633H11.5799C14.8327 9.98633 16.7844 9.33786 16.7844 6.74401H18.0855C18.0855 9.20817 20.0372 9.98633 23.29 9.98633H23.4201C27.4535 9.98633 28.7546 11.4129 28.7546 13.8771L28.6245 16.0819Z" fill="#FAFAFF"/>
<path d="M49.5726 15.4335C49.5726 13.6178 51.5242 12.8397 53.0856 12.8397C54.6469 12.8397 56.3384 13.3584 56.4685 15.1741H57.8997C57.5094 12.1912 54.9071 11.5427 52.9555 11.5427C50.4833 11.5427 48.1413 12.9693 48.1413 15.6929C48.1413 18.9352 51.9146 19.7134 54.3867 20.6212C55.6878 21.0103 56.7287 21.7885 56.7287 23.2151C56.7287 25.1605 54.777 26.198 53.0856 26.198C51.0038 26.198 49.3123 25.5496 49.3123 23.2151H47.8811C47.8811 25.6792 49.9629 27.4949 52.435 27.4949C55.5577 27.4949 58.4201 26.4574 58.4201 23.2151C58.1599 17.768 49.5726 19.7134 49.5726 15.4335ZM76.3755 25.1605L67.9183 11.8021H66.3569V26.9762H67.7882V13.8772L75.9852 26.9762H77.6766V11.8021H76.2454L76.3755 25.1605ZM87.0447 27.1059H88.4759V11.8021H87.0447V27.1059ZM101.747 11.8021H97.9741V26.9762H99.4053V20.3618H101.877C104.87 20.3618 108.123 19.7134 108.123 16.082C107.993 12.4506 104.61 11.8021 101.747 11.8021ZM102.658 19.1946H99.2752V13.099H102.658C104.74 13.099 106.561 13.7475 106.561 16.082C106.431 18.5461 104.61 19.1946 102.658 19.1946ZM120.353 26.0683C116.45 26.0683 115.279 22.5666 115.279 19.454C115.279 16.3414 116.45 12.8397 120.353 12.8397C122.045 12.8397 123.736 13.6178 123.996 15.4335H125.428C125.167 12.71 122.825 11.5427 120.353 11.5427C115.799 11.5427 113.718 15.3038 113.718 19.454C113.718 23.7339 115.669 27.3653 120.353 27.3653C122.825 27.3653 125.167 25.9386 125.558 23.3448H124.126C123.736 25.2902 122.045 26.0683 120.353 26.0683ZM135.837 11.8021L129.721 26.9762H131.152L132.714 22.826H140.26L141.952 26.9762H143.513L137.398 11.8021H135.837ZM133.234 21.6588L136.617 13.099L139.87 21.6588H133.234ZM155.874 19.0649C157.695 18.5461 158.866 17.3789 158.866 15.6929C158.866 14.2663 158.346 13.099 157.305 12.4506C156.134 11.6724 155.093 11.6724 153.662 11.6724H148.718V26.8465H150.149V19.5837H153.922C156.654 19.5837 156.915 20.2321 157.175 23.7339C157.305 24.7714 157.305 25.9386 157.695 26.8465H159.257C158.606 25.9386 158.736 24.7714 158.476 22.3072C158.216 20.7509 157.825 19.454 155.874 19.0649ZM152.881 18.5461H149.889V13.099H153.011C154.442 13.099 157.175 12.8397 157.175 15.8226C157.305 18.4164 154.833 18.5461 152.881 18.5461ZM163.81 11.8021V13.099H168.755V27.1059H170.056V13.099H174.87V11.8021H163.81Z" fill="#FAFAFF"/>
</g>
<defs>
<clipPath id="clip0">
<rect width="175" height="38" fill="white"/>
</clipPath>
</defs>
</svg>
