<svg width="146" height="39" viewBox="0 0 146 39" fill="none" xmlns="http://www.w3.org/2000/svg">
<path d="M17.825 19.3548H11.7271V22.2599H17.6785C18.0303 22.2599 18.3528 22.1147 18.6166 21.8823C18.8512 21.6499 18.9977 21.3013 18.9977 20.8655C19.0062 20.4916 18.8932 20.1249 18.6753 19.8196C18.4407 19.5291 18.1769 19.3548 17.825 19.3548ZM18.0302 15.8395C18.2941 15.6652 18.4114 15.2875 18.4114 14.7937C18.4114 14.3579 18.2941 14.0384 18.0889 13.835C17.8837 13.6607 17.6199 13.5444 17.3267 13.5444H11.7271V16.1591H17.2094C17.5026 16.1591 17.7958 16.0138 18.0302 15.8395Z" fill="#FAFAFF"/>
<path d="M26.972 5.11951H3.95795C3.22501 5.11951 2.63867 5.70054 2.63867 6.39778V29.2324C2.63867 29.9296 3.22501 30.3654 3.92863 30.3654H7.32944V34.9265L11.5511 30.3945H26.972C27.6756 30.3945 28.1154 29.9587 28.1154 29.2324V6.42684C28.1154 5.72959 27.6756 5.14856 26.9427 5.14856L26.972 5.11951ZM23.1021 23.6255C22.8089 24.1484 22.3692 24.5841 21.8415 24.9037C21.2844 25.2523 20.6688 25.5719 19.9652 25.7172C19.2616 25.8915 18.4993 26.0367 17.7077 26.0367H7.32944V9.76776H19.115C19.7013 9.76776 20.1997 9.884 20.6688 10.1454C21.1085 10.3779 21.519 10.6974 21.8415 11.0751C22.4983 11.8688 22.8513 12.8668 22.8383 13.8931C22.8383 14.6485 22.633 15.3748 22.2519 16.072C21.8568 16.7733 21.2382 17.325 20.4929 17.6408C21.4311 17.9023 22.164 18.3671 22.721 19.0353C23.2487 19.7325 23.5126 20.6331 23.5126 21.7661C23.5126 22.4924 23.3659 23.1025 23.0728 23.6255H23.1021Z" fill="#FAFAFF"/>
<path d="M44.0053 25.9204C42.9792 25.9204 41.9824 25.7752 40.9856 25.4556C40.0502 25.1552 39.1905 24.66 38.4644 24.003L39.7836 21.7951C40.5165 22.289 41.2201 22.6666 41.9238 22.9571C42.5981 23.2477 43.2724 23.3639 43.9173 23.3639C44.3864 23.3639 44.7676 23.2767 45.0314 23.1024C45.2953 22.9571 45.4126 22.6957 45.4126 22.3761C45.4126 22.0856 45.2659 21.7951 44.9141 21.6208C44.3631 21.3591 43.7824 21.164 43.1844 21.0397L41.1322 20.3716C40.5752 20.1391 40.1354 19.9067 39.7836 19.6453C39.4318 19.4128 39.1679 19.0933 39.0214 18.7737C38.8618 18.407 38.7819 18.011 38.7868 17.6116C38.7784 17.0471 38.8977 16.4878 39.1362 15.9749C39.3747 15.4621 39.7261 15.0088 40.1647 14.6484C40.5752 14.2998 41.1029 14.0383 41.6892 13.8349C42.2756 13.6315 42.9206 13.5444 43.5949 13.5444C44.5037 13.5444 45.3539 13.6606 46.1455 13.893C46.9371 14.1545 47.6993 14.5902 48.4322 15.2294L46.9956 17.4083C46.4282 17.006 45.8188 16.665 45.178 16.3915C44.621 16.1591 44.1226 16.0719 43.5949 16.0719C43.2137 16.0719 42.8619 16.13 42.5981 16.3043C42.3049 16.4496 42.1876 16.711 42.1876 17.0596C42.1876 17.4083 42.3342 17.6407 42.6274 17.815C42.9206 17.9893 43.5069 18.1637 44.2985 18.367C45.0334 18.5504 45.7576 18.7735 46.4679 19.0352C47.0543 19.2676 47.5234 19.529 47.9045 19.7905C48.2591 20.0493 48.5418 20.3928 48.7264 20.789C48.9109 21.1852 48.9913 21.6213 48.9599 22.0565C48.9599 23.2477 48.5201 24.1773 47.6113 24.8745C46.7318 25.5718 45.5591 25.9204 44.0053 25.9204ZM58.5173 25.0779C58.019 25.2813 57.4326 25.4846 56.7876 25.6589C56.1427 25.8333 55.4977 25.9495 54.8234 25.9495C54.3543 25.9495 53.9438 25.8914 53.5334 25.7752C53.1344 25.6599 52.7646 25.4618 52.4487 25.1942C52.1555 24.9617 51.921 24.6131 51.7451 24.2354C51.5692 23.8287 51.4519 23.3348 51.4519 22.7538V16.5077H49.9274V13.7768H51.4812V9.97107H55.1165V13.7478H57.5792V16.5077H55.1165V21.5046C55.1165 21.8822 55.2045 22.1728 55.4097 22.3761C55.615 22.5214 55.8788 22.6085 56.172 22.6085C56.4651 22.6085 56.7583 22.5795 57.0222 22.4633C57.3154 22.3761 57.5792 22.289 57.7844 22.1728L58.4881 25.0779H58.5173ZM65.3775 25.9204C64.4444 25.9365 63.5176 25.7687 62.6511 25.4265C61.8968 25.1309 61.2143 24.6803 60.6484 24.1045C60.0824 23.5286 59.6459 22.8406 59.3676 22.0856C58.7916 20.5688 58.7916 18.8961 59.3676 17.3792C59.6459 16.6242 60.0824 15.9362 60.6484 15.3604C61.2143 14.7846 61.8968 14.334 62.6511 14.0383C63.4427 13.7187 64.3517 13.5444 65.3775 13.5444C66.2599 13.5033 67.1403 13.6506 67.9598 13.9764C68.7793 14.3023 69.5182 14.799 70.127 15.4328C70.6843 15.9847 71.0944 16.653 71.3877 17.3792C71.9875 18.9017 71.9875 20.5922 71.3877 22.1147C71.1077 22.8606 70.6735 23.5404 70.113 24.1107C69.5525 24.6809 68.8784 25.1291 68.1331 25.4265C67.2578 25.7725 66.3202 25.9404 65.3775 25.9204ZM62.739 19.7615C62.739 20.6911 62.9736 21.4464 63.472 21.9984C63.9994 22.5795 64.6444 22.87 65.4067 22.87C65.7705 22.8769 66.1304 22.8021 66.4605 22.6512C66.7906 22.5002 67.0819 22.277 67.3124 21.9984C67.5472 21.7079 67.7231 21.4174 67.8697 21.0107C68.0163 20.633 68.0747 20.1973 68.0747 19.7615C68.0747 18.8027 67.8107 18.0474 67.3124 17.4954C66.8141 16.9144 66.1691 16.6239 65.4067 16.6239C65.0443 16.6231 64.6863 16.7006 64.3568 16.8512C64.028 17.0017 63.736 17.2216 63.5011 17.4954C63.2668 17.786 63.0615 18.0765 62.915 18.4832C62.7827 18.8962 62.7233 19.3286 62.739 19.7615ZM81.2966 16.8853C80.4175 16.8853 79.5967 17.0306 78.8635 17.3211C78.2186 17.5367 77.6688 17.9681 77.3096 18.5413V25.7171H73.645V13.7768H77.0163V16.1591C77.427 15.3456 77.9545 14.7065 78.6293 14.2707C79.2742 13.8058 79.9483 13.5735 80.6815 13.5444H81.0624L81.2966 13.5735V16.8563V16.8853ZM82.9096 27.4892C83.4193 27.6649 83.9532 27.7628 84.4928 27.7797C84.932 27.7797 85.2843 27.6345 85.5478 27.3439C85.7826 27.0534 85.9877 26.4724 86.1927 25.7171L81.6191 13.7768H85.4011L88.1866 22.5795L90.6197 13.7768H94.05L89.4472 27.6345C89.0987 28.7698 88.3332 29.7341 87.3017 30.3367C86.2701 30.9393 85.0476 31.1361 83.877 30.8883C83.5837 30.8302 83.2321 30.743 82.9096 30.5977V27.4892ZM102.728 25.9204C101.819 25.9204 100.998 25.7461 100.324 25.3394C99.6387 24.9665 99.0705 24.4136 98.682 23.7415V25.7171H95.4866V9.09949H99.1804V15.7233C99.5739 15.0409 100.148 14.4776 100.84 14.0937C101.532 13.7099 102.316 13.5199 103.109 13.5444C103.871 13.5444 104.575 13.6897 105.22 14.0383C105.865 14.3288 106.393 14.7936 106.891 15.3456C107.602 16.3239 108.069 17.4557 108.253 18.6477C108.436 19.8397 108.331 21.0578 107.946 22.2018C107.653 22.9571 107.243 23.6254 106.744 24.1773C106.235 24.7303 105.615 25.1713 104.923 25.4715C104.231 25.7718 103.483 25.9247 102.728 25.9204ZM101.702 22.87C102.282 22.8712 102.849 22.6927 103.322 22.3593C103.795 22.0259 104.151 21.5545 104.34 21.0107C104.552 20.435 104.612 19.8155 104.514 19.2106C104.417 18.6056 104.165 18.0353 103.783 17.5536C103.557 17.2587 103.265 17.0208 102.928 16.8592C102.592 16.6977 102.222 16.6171 101.848 16.6239C101.291 16.6239 100.764 16.8273 100.265 17.2049C99.7961 17.6116 99.4152 18.1055 99.1512 18.7156V21.2141C99.3829 21.6984 99.7479 22.1081 100.204 22.3959C100.661 22.6837 101.19 22.838 101.731 22.8409L101.702 22.87ZM110.145 9.09949H113.81V21.4464C113.81 22.3761 114.191 22.8119 114.983 22.8119C115.401 22.8131 115.814 22.7134 116.184 22.5214L116.683 25.2232C115.656 25.6688 114.55 25.9059 113.429 25.9204C112.373 25.9204 111.552 25.6299 110.996 25.107C110.409 24.5259 110.116 23.7706 110.116 22.7248V9.09949H110.145ZM123.602 25.9204C122.669 25.9365 121.742 25.7687 120.875 25.4265C120.116 25.1327 119.429 24.6831 118.858 24.1073C118.287 23.5315 117.846 22.8425 117.562 22.0856C117.146 20.9645 117.041 19.7532 117.257 18.5781C117.474 17.4029 118.004 16.3067 118.794 15.4037C119.38 14.8227 120.025 14.3869 120.846 14.0383C121.638 13.7187 122.546 13.5444 123.573 13.5444C124.454 13.5033 125.335 13.6506 126.154 13.9764C126.974 14.3023 127.713 14.799 128.322 15.4328C128.908 15.9847 129.289 16.653 129.583 17.3792C130.015 18.4979 130.129 19.7127 129.911 20.8911C129.694 22.0695 129.154 23.1661 128.351 24.0611C127.794 24.6422 127.12 25.107 126.299 25.4265C125.432 25.7687 124.505 25.9365 123.573 25.9204H123.602ZM120.934 19.7615C120.934 20.6911 121.169 21.4464 121.667 21.9984C122.194 22.5795 122.839 22.87 123.602 22.87C123.965 22.8749 124.325 22.7991 124.654 22.6483C124.984 22.4975 125.276 22.2754 125.507 21.9984C125.742 21.7079 125.918 21.4174 126.064 21.0107C126.211 20.633 126.27 20.1973 126.27 19.7615C126.27 18.8027 126.006 18.0474 125.507 17.4954C125.009 16.9144 124.364 16.6239 123.602 16.6239C123.239 16.6231 122.881 16.7006 122.552 16.8512C122.223 17.0017 121.93 17.2216 121.696 17.4954C121.461 17.786 121.256 18.0765 121.11 18.4832C120.963 18.8899 120.934 19.2967 120.934 19.7615ZM139.961 25.7171L136.824 20.8945L135.534 22.2309V25.7171H131.869V9.09949H135.534V18.7156L139.609 13.7768H143.508L139.169 18.919L143.86 25.7171H139.961Z" fill="#FAFAFF"/>
</svg>
