<svg width="188" height="40" viewBox="0 0 188 40" fill="none" xmlns="http://www.w3.org/2000/svg">
<path d="M54.7959 27.8057C53.4366 27.8057 52.1162 27.6116 50.7959 27.1844C49.5568 26.7829 48.418 26.1208 47.4561 25.2426L49.2036 22.2912C50.1745 22.9514 51.1065 23.4562 52.0386 23.8446C52.9318 24.2329 53.825 24.3883 54.6794 24.3883C55.3007 24.3883 55.8056 24.2718 56.1551 24.0388C56.5046 23.8446 56.6599 23.4951 56.6599 23.0679C56.6599 22.6795 56.4658 22.2912 55.9997 22.0582C55.2699 21.7084 54.5006 21.4476 53.7085 21.2815L50.99 20.3883C50.2522 20.0776 49.6696 19.7669 49.2036 19.4174C48.7376 19.1067 48.3881 18.6795 48.1939 18.2524C47.9825 17.7621 47.8767 17.2328 47.8832 16.699C47.8605 15.1703 48.5317 13.7137 49.7085 12.7378C50.2522 12.2718 50.9512 11.9223 51.7279 11.6504C52.5046 11.3786 53.359 11.2621 54.2522 11.2621C55.4561 11.2621 56.5823 11.4174 57.6308 11.7281C58.6794 12.0776 59.6891 12.6601 60.6599 13.5145L58.757 16.4271C58.0053 15.8893 57.1981 15.4336 56.3493 15.0679C55.6114 14.7572 54.9512 14.6407 54.2522 14.6407C53.7473 14.6407 53.2813 14.7184 52.9318 14.9514C52.5434 15.1456 52.3881 15.4951 52.3881 15.9611C52.3881 16.4271 52.5823 16.7378 52.9706 16.9708C53.359 17.2038 54.1357 17.4368 55.1842 17.7087C56.1577 17.9539 57.117 18.252 58.058 18.6019C58.8347 18.9125 59.4561 19.2621 59.9609 19.6116C60.9156 20.3146 61.4434 21.458 61.359 22.6407C61.359 24.2329 60.7764 25.4757 59.5726 26.4077C58.4075 27.3397 56.8541 27.8057 54.7959 27.8057ZM74.0192 26.6795C73.359 26.9514 72.5823 27.2232 71.7279 27.4562C70.8735 27.6892 70.0192 27.8446 69.126 27.8446C68.5046 27.8446 67.9609 27.7669 67.4172 27.6116C66.8886 27.4575 66.3988 27.1927 65.9803 26.8349C65.592 26.5242 65.2813 26.0582 65.0483 25.5533C64.8153 25.0096 64.6599 24.3494 64.6599 23.5727V15.2232H62.6405V11.5727H64.6988V6.48536H69.5143V11.5339H72.7764V15.2232H69.5143V21.9028C69.5143 22.4077 69.6308 22.796 69.9027 23.0679C70.1745 23.2621 70.524 23.3786 70.9124 23.3786C71.3007 23.3786 71.6891 23.3397 72.0386 23.1844C72.4269 23.0679 72.7764 22.9514 73.0483 22.796L73.9803 26.6795H74.0192ZM83.1065 27.8057C81.8708 27.8273 80.6431 27.6029 79.4949 27.1456C77.474 26.3461 75.8911 24.7209 75.1454 22.6795C74.3824 20.6518 74.3824 18.416 75.1454 16.3883C75.8911 14.3469 77.474 12.7217 79.4949 11.9223C80.5434 11.4951 81.7473 11.2621 83.1065 11.2621C85.4706 11.1508 87.7663 12.0719 89.3978 13.7863C90.1357 14.5242 90.6794 15.4174 91.0677 16.3883C91.8627 18.4234 91.8627 20.6832 91.0677 22.7184C90.3172 24.7345 88.7525 26.3416 86.757 27.1456C85.5967 27.608 84.3553 27.8325 83.1065 27.8057ZM79.6114 19.5727C79.6114 20.8155 79.9221 21.8252 80.5823 22.563C81.2813 23.3397 82.1357 23.7281 83.1454 23.7281C84.1208 23.7469 85.0511 23.3176 85.6696 22.563C85.9803 22.1747 86.2133 21.7863 86.4075 21.2426C86.6017 20.7378 86.6794 20.1553 86.6794 19.5727C86.6794 18.2912 86.3298 17.2815 85.6696 16.5436C85.0095 15.7669 84.1551 15.3786 83.1454 15.3786C82.1735 15.3764 81.25 15.8026 80.6211 16.5436C80.3104 16.932 80.0386 17.3203 79.8444 17.864C79.6693 18.416 79.5905 18.994 79.6114 19.5727ZM104.194 15.7281C103.029 15.7281 101.941 15.9223 100.971 16.3106C100.116 16.5988 99.3882 17.1755 98.9124 17.9417V27.5339H94.058V11.5727H98.524V14.7572C99.0677 13.6698 99.7667 12.8155 100.66 12.2329C101.514 11.6116 102.408 11.3009 103.378 11.2621H103.883L104.194 11.3009V15.6892V15.7281ZM106.33 29.9028C107.005 30.1376 107.712 30.2686 108.427 30.2912C109.009 30.2912 109.475 30.097 109.825 29.7087C110.136 29.3203 110.408 28.5436 110.679 27.5339L104.621 11.5727H109.631L113.32 23.3397L116.543 11.5727H121.087L114.99 30.097C114.034 33.2434 110.827 35.1334 107.611 34.4465C107.223 34.3689 106.757 34.2524 106.33 34.0582V29.9028ZM132.582 27.8057C131.378 27.8057 130.291 27.5727 129.398 27.0291C128.49 26.5306 127.738 25.7915 127.223 24.8931V27.5339H122.99V5.32031H127.883V14.1747C128.945 12.3159 130.947 11.1955 133.087 11.2621C134.097 11.2621 135.029 11.4562 135.883 11.9223C136.738 12.3106 137.437 12.932 138.097 13.6698C140.008 16.3227 140.529 19.7327 139.495 22.8349C139.107 23.8446 138.563 24.7378 137.903 25.4757C136.539 26.9706 134.606 27.8174 132.582 27.8057ZM131.223 23.7281C132.799 23.7314 134.204 22.7328 134.718 21.2426C135.288 19.6782 135.009 17.9306 133.98 16.6213C133.373 15.8218 132.421 15.3601 131.417 15.3786C130.679 15.3786 129.98 15.6504 129.32 16.1553C128.699 16.699 128.194 17.3591 127.844 18.1747V21.5145C128.471 22.8358 129.799 23.6811 131.262 23.6892L131.223 23.7281ZM142.408 5.32031H147.262V21.8252C147.262 23.0679 147.767 23.6504 148.815 23.6504C149.37 23.652 149.916 23.5187 150.408 23.2621L151.068 26.8737C149.708 27.4694 148.242 27.7863 146.757 27.8057C145.359 27.8057 144.272 27.4174 143.534 26.7184C142.757 25.9417 142.369 24.932 142.369 23.5339V5.32031H142.408ZM160.233 27.8057C158.997 27.8273 157.769 27.6029 156.621 27.1456C154.588 26.351 152.992 24.726 152.233 22.6795C151.11 19.6273 151.735 16.2059 153.864 13.7475C154.641 12.9708 155.495 12.3883 156.582 11.9223C157.631 11.4951 158.835 11.2621 160.194 11.2621C162.558 11.1508 164.854 12.0719 166.485 13.7863C167.262 14.5242 167.767 15.4174 168.155 16.3883C169.322 19.4366 168.693 22.8813 166.524 25.3203C165.786 26.097 164.893 26.7184 163.806 27.1456C162.657 27.6029 161.43 27.8273 160.194 27.8057H160.233ZM156.699 19.5727C156.699 20.8155 157.009 21.8252 157.67 22.563C158.369 23.3397 159.223 23.7281 160.233 23.7281C161.207 23.7412 162.135 23.3129 162.757 22.563C163.068 22.1747 163.301 21.7863 163.495 21.2426C163.689 20.7378 163.767 20.1553 163.767 19.5727C163.767 18.2912 163.417 17.2815 162.757 16.5436C162.097 15.7669 161.242 15.3786 160.233 15.3786C159.261 15.3764 158.337 15.8026 157.708 16.5436C157.398 16.932 157.126 17.3203 156.932 17.864C156.738 18.4077 156.699 18.9514 156.699 19.5727ZM181.903 27.5339L177.747 21.0873L176.039 22.8737V27.5339H171.184V5.32031H176.039V18.1747L181.437 11.5727H186.602L180.854 18.4465L187.068 27.5339H181.903Z" fill="black"/>
<path d="M20.1167 19.0292H12.0391V22.9127H19.9226C20.3886 22.9127 20.8158 22.7185 21.1653 22.4078C21.476 22.0972 21.6701 21.6311 21.6701 21.0486C21.6814 20.5488 21.5316 20.0587 21.2429 19.6506C20.9323 19.2622 20.5828 19.0292 20.1167 19.0292ZM20.3886 14.3302C20.7381 14.0972 20.8934 13.5923 20.8934 12.9321C20.8934 12.3496 20.7381 11.9224 20.4662 11.6506C20.1944 11.4175 19.8449 11.2622 19.4565 11.2622H12.0391V14.7574H19.3012C19.6896 14.7574 20.0779 14.5632 20.3886 14.3302Z" fill="#09B3AF"/>
<path d="M32.233 0H1.74757C0.776699 0 0 0.776699 0 1.70874V32.233C0 33.1651 0.776699 33.7476 1.70874 33.7476H6.21359V39.8447L11.8058 33.7864H32.233C33.1651 33.7864 33.7476 33.2039 33.7476 32.233V1.74757C33.7476 0.815534 33.1651 0.038835 32.1942 0.038835L32.233 0ZM27.1068 24.7379C26.7184 25.4369 26.1359 26.0194 25.4369 26.4466C24.699 26.9126 23.8835 27.3398 22.9515 27.534C22.0194 27.767 21.0097 27.9612 19.9612 27.9612H6.21359V6.21359H21.8252C22.6019 6.21359 23.2621 6.36893 23.8835 6.71845C24.466 7.02913 25.0097 7.45631 25.4369 7.96117C26.3069 9.02214 26.7745 10.3562 26.7573 11.7282C26.7573 12.7379 26.4854 13.7087 25.9806 14.6408C25.4572 15.5783 24.6377 16.3158 23.6505 16.7379C24.8932 17.0874 25.8641 17.7087 26.6019 18.6019C27.301 19.534 27.6505 20.7379 27.6505 22.2524C27.6505 23.2233 27.4563 24.0388 27.068 24.7379H27.1068Z" fill="#09B3AF"/>
</svg>
