<svg width="125" height="33" viewBox="0 0 125 33" fill="none" xmlns="http://www.w3.org/2000/svg">
<path fill-rule="evenodd" clip-rule="evenodd" d="M27.2888 5.03198H9.19214V14.2273H18.0966C18.4138 14.2273 18.6712 14.4881 18.6712 14.8096V23.709H27.8634V5.61534C27.8635 5.53878 27.8488 5.46295 27.8199 5.39218C27.7911 5.3214 27.7488 5.2571 27.6954 5.20291C27.6421 5.14873 27.5787 5.10574 27.5089 5.07641C27.4391 5.04708 27.3643 5.03198 27.2888 5.03198Z" fill="#FAFAFF"/>
<path opacity="0.405" fill-rule="evenodd" clip-rule="evenodd" d="M9.19123 5.03198V14.2273H0.701733C0.644693 14.2272 0.588971 14.2099 0.541637 14.1776C0.494304 14.1454 0.457495 14.0996 0.435885 14.0461C0.414274 13.9926 0.408836 13.9338 0.420262 13.8772C0.431686 13.8206 0.459459 13.7686 0.500053 13.7281L9.19123 5.03198ZM19.1607 32.4146C19.1204 32.4547 19.0691 32.482 19.0135 32.4928C18.9578 32.5037 18.9002 32.4977 18.848 32.4755C18.7957 32.4533 18.7511 32.4161 18.7196 32.3683C18.6882 32.3205 18.6713 32.2644 18.6712 32.207V23.7089H27.8634L19.1607 32.4135V32.4146Z" fill="#FAFAFF"/>
<path opacity="0.405" d="M9.19116 14.2275H18.3844C18.542 14.2275 18.6712 14.3574 18.6712 14.5182V23.7092H9.76679C9.61441 23.7092 9.46826 23.6479 9.3605 23.5386C9.25275 23.4294 9.19221 23.2814 9.19221 23.1269V14.2275H9.19116Z" fill="#FAFAFF"/>
<path fill-rule="evenodd" clip-rule="evenodd" d="M120.558 4.45204C121.071 4.96727 121.678 5.22381 122.377 5.22381C123.099 5.22381 123.716 4.96727 124.23 4.45204C124.744 3.93682 125 3.33004 125 2.62852C125 1.92807 124.744 1.31491 124.23 0.789042C123.992 0.535462 123.704 0.334525 123.384 0.198798C123.066 0.0630719 122.723 -0.00452537 122.377 0.000235041C121.678 0.000235041 121.071 0.263171 120.558 0.787977C120.044 1.31491 119.788 1.92701 119.788 2.62959C119.788 3.33004 120.044 3.93682 120.558 4.45204ZM64.8225 11.1712C64.8225 11.2245 64.7784 11.2692 64.7248 11.2692H61.1166V18.1034C61.1166 18.6729 61.2595 19.0891 61.5431 19.3521C61.8267 19.615 62.2427 19.7619 62.7889 19.7949C63.2889 19.8258 63.8981 19.8236 64.6177 19.7896L64.7195 19.7842C64.7326 19.7835 64.7458 19.7855 64.7581 19.7901C64.7704 19.7948 64.7817 19.8018 64.7913 19.811C64.8007 19.8201 64.8084 19.8312 64.8136 19.8434C64.8187 19.8557 64.8214 19.8689 64.8214 19.8822V23.5345C64.8215 23.5588 64.8128 23.5822 64.7969 23.6003C64.781 23.6184 64.759 23.6298 64.7353 23.6325L64.6691 23.6399C61.8435 23.9412 59.8446 23.6612 58.6744 22.8011C57.4832 21.925 56.8887 20.3591 56.8887 18.1034V11.2692H54.1324C54.1067 11.2692 54.082 11.2589 54.064 11.2405C54.0458 11.2221 54.0357 11.1972 54.0357 11.1712V7.29323C54.0357 7.24001 54.0788 7.1953 54.1324 7.1953H56.8876V4.48398C56.8876 4.4052 56.9338 4.33494 57.0042 4.30301L60.9811 2.54975C60.9958 2.54298 61.012 2.54006 61.0281 2.54128C61.0442 2.54249 61.0598 2.54778 61.0734 2.55668C61.087 2.56558 61.0982 2.5778 61.1059 2.59221C61.1137 2.60663 61.1177 2.62278 61.1177 2.63917V7.1953H64.7248C64.7773 7.1953 64.8214 7.23894 64.8214 7.29323V11.1712H64.8225ZM72.4906 10.0216C72.8834 8.96985 73.5335 8.18104 74.44 7.65517C75.3345 7.13916 76.3458 6.86769 77.375 6.86743C77.4286 6.86743 77.4726 6.91107 77.4726 6.96643V11.4214C77.4726 11.4438 77.468 11.4658 77.459 11.4861C77.4501 11.5065 77.437 11.5248 77.4207 11.5397C77.4043 11.5546 77.3851 11.566 77.3642 11.5729C77.3433 11.5798 77.3212 11.5823 77.2993 11.58C76.0797 11.4693 74.9841 11.7386 74.0136 12.3869C72.9978 13.065 72.4906 14.1934 72.4906 15.771V23.525C72.4906 23.5379 72.4879 23.5507 72.4831 23.5627C72.4782 23.5747 72.4709 23.5855 72.4619 23.5946C72.4527 23.6037 72.4419 23.6109 72.4302 23.6158C72.4183 23.6207 72.4056 23.6231 72.3929 23.6229H68.357C68.3314 23.6229 68.3069 23.6126 68.2888 23.5943C68.2706 23.5758 68.2605 23.5509 68.2605 23.525V7.29217C68.2605 7.23894 68.3035 7.19423 68.357 7.19423H72.3929C72.4454 7.19423 72.4895 7.23788 72.4895 7.29217V10.0195L72.4906 10.0216ZM92.4862 7.1953C92.4735 7.19516 92.4608 7.19759 92.449 7.20244C92.4372 7.20731 92.4264 7.21449 92.4173 7.2236C92.4082 7.23272 92.401 7.24355 92.396 7.25551C92.3912 7.26746 92.3887 7.28028 92.3887 7.29323V9.13485C91.1219 7.53488 89.3402 6.73543 87.0451 6.73543C84.8602 6.73543 82.9852 7.5732 81.4232 9.24875C79.8602 10.9243 79.0787 12.9777 79.0787 15.4091C79.0787 17.8404 79.8602 19.8939 81.4232 21.5694C82.9852 23.245 84.8602 24.0828 87.0451 24.0828C89.3402 24.0828 91.1208 23.2833 92.3887 21.6844V23.525C92.3887 23.5782 92.4327 23.6229 92.4862 23.6229H96.521C96.5746 23.6229 96.6187 23.5792 96.6187 23.525V7.29217C96.6187 7.27922 96.6161 7.2664 96.6112 7.25444C96.6063 7.24249 96.5991 7.23165 96.59 7.22254C96.5809 7.21343 96.5701 7.20624 96.5583 7.20138C96.5464 7.19652 96.5337 7.1941 96.521 7.19423H92.4862V7.1953ZM84.5872 18.7602C85.4391 19.615 86.5199 20.0419 87.8329 20.0419C89.1438 20.0419 90.2311 19.6086 91.0945 18.7432C91.958 17.8788 92.3887 16.7674 92.3887 15.4091C92.3887 14.0508 91.958 12.9394 91.0945 12.074C90.2311 11.2096 89.1438 10.7763 87.8318 10.7763C86.5209 10.7763 85.4391 11.2096 84.5861 12.075C83.7353 12.9394 83.3077 14.0508 83.3077 15.4091C83.3077 16.7674 83.7343 17.8841 84.5872 18.7602ZM115.417 9.24875C113.854 7.5732 111.968 6.73543 109.762 6.73543C107.466 6.73543 105.696 7.53488 104.451 9.13378V7.29323C104.451 7.26726 104.44 7.24235 104.422 7.22399C104.404 7.20561 104.38 7.1953 104.354 7.1953H100.318C100.293 7.1953 100.268 7.20561 100.25 7.22399C100.232 7.24235 100.222 7.26726 100.222 7.29323V30.0951C100.222 30.1494 100.265 30.1942 100.318 30.1942H104.354C104.407 30.1942 104.451 30.1494 104.451 30.0951V21.6844C105.696 23.2833 107.466 24.0828 109.762 24.0828C111.968 24.0828 113.854 23.245 115.417 21.5694C116.979 19.8939 117.761 17.8404 117.761 15.4091C117.761 12.9777 116.979 10.9243 115.417 9.24875ZM105.729 18.7602C106.582 19.615 107.663 20.0419 108.975 20.0419C110.286 20.0419 111.373 19.6086 112.236 18.7432C113.1 17.8788 113.532 16.7674 113.532 15.4091C113.532 14.0508 113.1 12.9394 112.236 12.074C111.373 11.2096 110.286 10.7763 108.975 10.7763C107.663 10.7763 106.582 11.2096 105.729 12.075C104.877 12.9394 104.451 14.0508 104.451 15.4091C104.451 16.7674 104.877 17.8841 105.729 18.7602ZM120.376 23.6229C120.351 23.6229 120.326 23.6126 120.308 23.5943C120.29 23.5758 120.279 23.5509 120.279 23.525V7.29217C120.279 7.23894 120.322 7.19423 120.376 7.19423H124.412C124.465 7.19423 124.508 7.23788 124.508 7.29217V23.526C124.508 23.552 124.498 23.5769 124.48 23.5953C124.462 23.6136 124.437 23.624 124.412 23.624H120.376V23.6229ZM44.9716 12.9288C44.3918 12.6552 44.103 12.2986 44.103 11.8611C44.103 11.4448 44.2826 11.1159 44.6439 10.8753C45.0042 10.6348 45.458 10.5134 46.0042 10.5134C47.0515 10.5134 47.8424 10.9232 48.3782 11.7418C48.396 11.7696 48.4229 11.7902 48.4542 11.7999C48.4855 11.8096 48.5191 11.8079 48.5494 11.7951L52.1187 10.2121C52.131 10.2065 52.142 10.1984 52.1511 10.1882C52.1601 10.1779 52.1669 10.1659 52.1711 10.1529C52.1752 10.1398 52.1767 10.1261 52.1752 10.1124C52.1737 10.0988 52.1695 10.0856 52.1628 10.0738C52.1217 10.0043 52.0796 9.9355 52.0368 9.86724C51.4265 8.90385 50.6354 8.1853 49.6428 7.6392C48.5503 7.03669 47.3372 6.73543 46.0042 6.73543C44.2332 6.73543 42.7532 7.20062 41.5609 8.13207C40.3708 9.06246 39.7752 10.3388 39.7752 11.959C39.7752 13.0331 40.0651 13.9251 40.6439 14.6373C41.2033 15.3346 41.9319 15.8724 42.7584 16.1979C43.5882 16.5258 44.4191 16.8004 45.25 17.0186C46.0798 17.2379 46.7857 17.4849 47.3645 17.7585C47.9433 18.0321 48.2332 18.3876 48.2332 18.8262C48.2332 19.7683 47.479 20.2388 45.9716 20.2388C44.5357 20.2388 43.541 19.7065 42.9874 18.6441C42.9651 18.5994 42.9269 18.5648 42.8805 18.5477C42.834 18.5305 42.7828 18.5318 42.7374 18.5515L39.1786 20.1323C39.1667 20.1377 39.156 20.1453 39.1471 20.1548C39.1381 20.1644 39.1313 20.1757 39.1268 20.188C39.1223 20.2003 39.1203 20.2135 39.1208 20.2266C39.1214 20.2396 39.1246 20.2525 39.1303 20.2643L39.1702 20.3463C40.4139 22.8373 42.6807 24.0828 45.9716 24.0828C47.8509 24.0828 49.4191 23.6282 50.6754 22.7202C51.9328 21.81 52.5608 20.5124 52.5608 18.8262C52.5608 17.7084 52.2709 16.7781 51.6921 16.0329C51.1465 15.3138 50.4145 14.7625 49.5777 14.4404C48.7632 14.1278 47.9313 13.8645 47.0861 13.6516C46.2553 13.4429 45.5504 13.2023 44.9716 12.9277V12.9288Z" fill="#FAFAFF"/>
</svg>
