<svg width="154" height="40" viewBox="0 0 154 40" fill="none" xmlns="http://www.w3.org/2000/svg">
<path fill-rule="evenodd" clip-rule="evenodd" d="M33.1764 6.13311H10.8398V17.3325H21.8305C22.0186 17.3326 22.1989 17.4073 22.3319 17.5403C22.4649 17.6733 22.5396 17.8536 22.5397 18.0417V28.8808H33.8856V6.84319C33.8857 6.74996 33.8675 6.65761 33.8319 6.57143C33.7964 6.48525 33.7441 6.40693 33.6783 6.34095C33.6124 6.27497 33.5342 6.22262 33.448 6.18691C33.3619 6.1512 33.2696 6.13281 33.1764 6.13281V6.13311Z" fill="#8E75FF"/>
<path opacity="0.405" fill-rule="evenodd" clip-rule="evenodd" d="M10.8333 6.13281V17.3322H0.355145C0.284684 17.3322 0.215818 17.3112 0.157305 17.272C0.0987928 17.2327 0.0532775 17.177 0.0265486 17.1118C-0.000180275 17.0466 -0.006915 16.9749 0.00720101 16.9059C0.021317 16.8368 0.0556459 16.7736 0.105821 16.7241L10.8336 6.13281H10.8333ZM23.1386 39.4832C23.0887 39.5322 23.0255 39.5654 22.9568 39.5787C22.8881 39.5919 22.8171 39.5846 22.7526 39.5576C22.688 39.5306 22.6329 39.4852 22.5941 39.427C22.5553 39.3688 22.5345 39.3005 22.5344 39.2306V28.8799H33.8803L23.1386 39.4814V39.4829V39.4832Z" fill="#8E75FF"/>
<path opacity="0.405" fill-rule="evenodd" clip-rule="evenodd" d="M10.8398 17.3343H22.1872C22.3815 17.3343 22.5409 17.4925 22.5409 17.6883V28.8823H11.5505C11.4574 28.8823 11.3651 28.864 11.279 28.8284C11.193 28.7927 11.1147 28.7405 11.0489 28.6747C10.983 28.6088 10.9307 28.5306 10.8951 28.4445C10.8594 28.3585 10.841 28.2662 10.841 28.1731V17.334H10.8398V17.3343Z" fill="#8E75FF"/>
<path fill-rule="evenodd" clip-rule="evenodd" d="M148.29 5.42254C148.924 6.04991 149.672 6.36239 150.536 6.36239C151.427 6.36239 152.189 6.04961 152.823 5.42224C153.457 4.79487 153.773 4.05592 153.773 3.20149C153.773 2.34826 153.457 1.60149 152.823 0.960887C152.528 0.652082 152.173 0.407384 151.779 0.242098C151.386 0.0768116 150.963 -0.00550842 150.536 0.000285962C149.672 0.000285962 148.924 0.320587 148.29 0.959684C147.656 1.60149 147.34 2.34705 147.34 3.20269C147.34 4.05592 147.656 4.79487 148.29 5.42224V5.42254ZM79.4968 13.606C79.4964 13.6378 79.4835 13.6681 79.4609 13.6904C79.4384 13.7128 79.4079 13.7253 79.3762 13.7254H74.9226V22.049C74.9226 22.7425 75.0989 23.2496 75.4489 23.5699C75.799 23.8899 76.3124 24.0692 76.9867 24.1092C77.6038 24.1468 78.3557 24.144 79.2438 24.1025L79.3695 24.0962C79.3857 24.0953 79.402 24.0977 79.4172 24.1033C79.4324 24.1089 79.4464 24.1175 79.4582 24.1287C79.47 24.1398 79.4794 24.1532 79.4858 24.1681C79.4922 24.183 79.4955 24.1991 79.4956 24.2153V28.6637C79.4957 28.6933 79.4849 28.7219 79.4653 28.7439C79.4456 28.766 79.4185 28.7799 79.3891 28.7831L79.3076 28.7922C75.8198 29.1591 73.3527 28.818 71.9082 27.7705C70.4378 26.7034 69.704 24.7961 69.704 22.049V13.7254H66.3022C66.2706 13.7253 66.2403 13.7127 66.2179 13.6903C66.1956 13.6679 66.1831 13.6376 66.1831 13.606V8.88269C66.1831 8.81803 66.2363 8.76359 66.3022 8.76359H69.7031V5.46134C69.7031 5.3651 69.7602 5.27968 69.8471 5.24089L74.7554 3.10555C74.7736 3.09729 74.7936 3.09374 74.8135 3.09521C74.8334 3.09668 74.8527 3.10312 74.8695 3.11396C74.8863 3.12479 74.9001 3.13967 74.9096 3.15722C74.9192 3.17477 74.9241 3.19444 74.9241 3.21442V8.76329H79.3765C79.4414 8.76329 79.4959 8.81653 79.4959 8.88269V13.606H79.4971H79.4968ZM88.9614 12.2057C89.4462 10.9245 90.2486 9.9642 91.3674 9.32359C92.4714 8.69506 93.7199 8.36445 94.9903 8.3642C95.0222 8.3642 95.0528 8.37687 95.0754 8.39943C95.0979 8.42199 95.1106 8.45259 95.1106 8.4845V13.9107C95.1105 13.9378 95.1048 13.9646 95.0938 13.9894C95.0828 14.0141 95.0667 14.0363 95.0466 14.0545C95.0265 14.0727 95.0028 14.0865 94.977 14.095C94.9513 14.1034 94.924 14.1064 94.8971 14.1037C93.3915 13.969 92.0393 14.2971 90.8414 15.0866C89.5876 15.9125 88.9614 17.2869 88.9614 19.2084V28.652C88.9614 28.6678 88.9583 28.6834 88.9522 28.698C88.9461 28.7126 88.9372 28.7258 88.926 28.7369C88.9148 28.748 88.9015 28.7567 88.8869 28.7627C88.8723 28.7686 88.8566 28.7716 88.8408 28.7714H83.8595C83.8279 28.7713 83.7976 28.7587 83.7752 28.7363C83.7529 28.714 83.7404 28.6836 83.7404 28.652V8.88149C83.7404 8.81653 83.7933 8.76209 83.8595 8.76209H88.8408C88.9055 8.76209 88.9599 8.81532 88.9599 8.88149V12.2033L88.9614 12.2057ZM113.642 8.76359C113.626 8.76343 113.611 8.7664 113.596 8.77231C113.581 8.77822 113.568 8.78696 113.557 8.79803C113.546 8.8091 113.537 8.82228 113.531 8.83681C113.525 8.85134 113.521 8.86694 113.521 8.88269V11.1257C111.958 9.17683 109.759 8.20329 106.926 8.20329C104.229 8.20329 101.915 9.22374 99.987 11.2643C98.0577 13.3052 97.0931 15.8063 97.0931 18.7675C97.0931 21.7287 98.0577 24.2298 99.987 26.2704C101.915 28.3113 104.229 29.3314 106.926 29.3314C109.759 29.3314 111.957 28.3579 113.521 26.4105V28.652C113.521 28.717 113.576 28.7714 113.642 28.7714H118.622C118.654 28.7714 118.684 28.7589 118.707 28.7365C118.729 28.7141 118.742 28.6838 118.742 28.652V8.88149C118.742 8.86573 118.739 8.85013 118.733 8.83559C118.727 8.82104 118.718 8.80784 118.707 8.79674C118.696 8.78564 118.683 8.77687 118.668 8.77092C118.654 8.76497 118.638 8.76197 118.622 8.76209H113.642V8.76359H113.642ZM103.892 22.849C104.944 23.8899 106.278 24.4099 107.898 24.4099C109.516 24.4099 110.858 23.8821 111.924 22.828C112.99 21.7753 113.521 20.4219 113.521 18.7675C113.521 17.1134 112.99 15.7594 111.924 14.7055C110.858 13.6529 109.516 13.1251 107.897 13.1251C106.279 13.1251 104.944 13.6526 103.891 14.7068C102.841 15.7594 102.313 17.1131 102.313 18.7675C102.313 20.4216 102.839 21.7819 103.892 22.8487L103.892 22.849ZM141.945 11.2643C140.016 9.22374 137.689 8.20329 134.965 8.20329C132.132 8.20329 129.947 9.17713 128.409 11.1245V8.88269C128.409 8.85113 128.397 8.82088 128.374 8.79856C128.352 8.77625 128.322 8.76367 128.29 8.76359H123.309C123.277 8.76367 123.247 8.77625 123.225 8.79856C123.202 8.82088 123.19 8.85113 123.19 8.88269V36.6541C123.19 36.7203 123.243 36.7747 123.309 36.7747H128.29C128.322 36.7743 128.352 36.7614 128.374 36.7389C128.397 36.7164 128.409 36.6861 128.409 36.6544V26.4105C129.947 28.3579 132.132 29.3314 134.965 29.3314C137.689 29.3314 140.016 28.3113 141.945 26.2704C143.873 24.2298 144.838 21.7287 144.838 18.7675C144.838 15.8063 143.873 13.3052 141.945 11.2643ZM129.987 22.849C131.04 23.8899 132.374 24.4099 133.993 24.4099C135.611 24.4099 136.954 23.8821 138.019 22.828C139.085 21.7753 139.618 20.4219 139.618 18.7675C139.618 17.1134 139.085 15.7594 138.019 14.7055C136.954 13.6529 135.612 13.1251 133.994 13.1251C132.374 13.1251 131.04 13.6526 129.987 14.7068C128.936 15.7594 128.409 17.1131 128.409 18.7675C128.409 20.4216 128.936 21.7819 129.987 22.8487V22.849ZM148.066 28.7714C148.034 28.7714 148.004 28.7588 147.982 28.7364C147.959 28.7141 147.947 28.6837 147.947 28.652V8.88149C147.947 8.81653 148 8.76209 148.066 8.76209H153.047C153.113 8.76209 153.167 8.81532 153.167 8.88149V28.6535C153.166 28.6851 153.154 28.7154 153.131 28.7378C153.109 28.7601 153.079 28.7726 153.047 28.7726H148.066V28.7714ZM54.9951 15.7465C54.2793 15.4132 53.9229 14.9789 53.9229 14.446C53.9229 13.9392 54.1446 13.5386 54.5906 13.2457C55.0351 12.9525 55.5951 12.8048 56.2694 12.8048C57.562 12.8048 58.5386 13.304 59.1996 14.301C59.2217 14.3349 59.2549 14.3599 59.2936 14.3717C59.3322 14.3836 59.3738 14.3814 59.411 14.3657L63.8165 12.4379C63.8317 12.431 63.8453 12.4211 63.8564 12.4086C63.8675 12.3962 63.8759 12.3816 63.881 12.3657C63.8861 12.3499 63.8879 12.3331 63.8862 12.3165C63.8844 12.2999 63.8792 12.2839 63.8709 12.2695C63.8204 12.1846 63.7686 12.101 63.7154 12.0177C62.962 10.8445 61.9861 9.96931 60.7605 9.30404C59.4122 8.57021 57.9148 8.20329 56.2694 8.20329C54.0835 8.20329 52.2568 8.76991 50.7852 9.90435C49.3163 11.0376 48.5813 12.5922 48.5813 14.5654C48.5813 15.8737 48.9392 16.96 49.6534 17.8274C50.3439 18.6766 51.2433 19.3316 52.2634 19.7281C53.2678 20.1216 54.2947 20.4554 55.3386 20.7278C56.3629 20.9949 57.2342 21.2956 57.9485 21.6289C58.6628 21.9621 59.0207 22.3952 59.0207 22.9293C59.0207 24.0767 58.0898 24.6496 56.2294 24.6496C54.4571 24.6496 53.2291 24.0015 52.5458 22.7077C52.5183 22.6531 52.4711 22.6111 52.4138 22.5902C52.3565 22.5692 52.2933 22.5709 52.2372 22.5949L47.8447 24.52C47.8301 24.5264 47.8169 24.5358 47.8059 24.5474C47.7949 24.5591 47.7864 24.5728 47.7809 24.5878C47.7753 24.6028 47.7728 24.6188 47.7736 24.6348C47.7743 24.6508 47.7783 24.6665 47.7852 24.6809L47.8342 24.7807C49.3695 27.8147 52.1674 29.3314 56.2294 29.3314C58.5488 29.3314 60.4844 28.778 62.0351 27.6719C63.587 26.5636 64.3623 24.9831 64.3623 22.929C64.3623 21.5678 64.0044 20.4349 63.2901 19.5272C62.6167 18.6513 61.7131 17.9797 60.6802 17.5874C59.675 17.2067 58.6482 16.8859 57.605 16.6268C56.5795 16.3729 55.7094 16.0797 54.9951 15.7452V15.7465Z" fill="#2F2E8B"/>
</svg>
