<svg width="89" height="40" viewBox="0 0 89 40" fill="none" xmlns="http://www.w3.org/2000/svg">
<path d="M47.474 16.556V19.57H43.382V32H39.62V19.57H35.528V16.556H47.474ZM51.254 18.448C50.594 18.448 50.0514 18.2573 49.626 17.876C49.2154 17.48 49.01 16.996 49.01 16.424C49.01 15.8373 49.2154 15.3533 49.626 14.972C50.0514 14.576 50.594 14.378 51.254 14.378C51.8994 14.378 52.4274 14.576 52.838 14.972C53.2634 15.3533 53.476 15.8373 53.476 16.424C53.476 16.996 53.2634 17.48 52.838 17.876C52.4274 18.2573 51.8994 18.448 51.254 18.448ZM53.124 19.724V32H49.362V19.724H53.124ZM63.3303 19.592C64.7677 19.592 65.9117 20.0613 66.7623 21C67.6277 21.924 68.0603 23.2 68.0603 24.828V32H64.3203V25.334C64.3203 24.5127 64.1077 23.8747 63.6823 23.42C63.257 22.9653 62.685 22.738 61.9663 22.738C61.2477 22.738 60.6757 22.9653 60.2503 23.42C59.825 23.8747 59.6123 24.5127 59.6123 25.334V32H55.8503V19.724H59.6123V21.352C59.9937 20.8093 60.507 20.384 61.1523 20.076C61.7977 19.7533 62.5237 19.592 63.3303 19.592ZM69.9265 25.84C69.9265 24.5787 70.1612 23.4713 70.6305 22.518C71.1145 21.5647 71.7672 20.8313 72.5885 20.318C73.4099 19.8047 74.3265 19.548 75.3385 19.548C76.2039 19.548 76.9592 19.724 77.6045 20.076C78.2645 20.428 78.7705 20.89 79.1225 21.462V19.724H82.8845V32H79.1225V30.262C78.7559 30.834 78.2425 31.296 77.5825 31.648C76.9372 32 76.1819 32.176 75.3165 32.176C74.3192 32.176 73.4099 31.9193 72.5885 31.406C71.7672 30.878 71.1145 30.1373 70.6305 29.184C70.1612 28.216 69.9265 27.1013 69.9265 25.84ZM79.1225 25.862C79.1225 24.9233 78.8585 24.1827 78.3305 23.64C77.8172 23.0973 77.1865 22.826 76.4385 22.826C75.6905 22.826 75.0525 23.0973 74.5245 23.64C74.0112 24.168 73.7545 24.9013 73.7545 25.84C73.7545 26.7787 74.0112 27.5267 74.5245 28.084C75.0525 28.6267 75.6905 28.898 76.4385 28.898C77.1865 28.898 77.8172 28.6267 78.3305 28.084C78.8585 27.5413 79.1225 26.8007 79.1225 25.862Z" fill="#EC4815"/>
<g clip-path="url(#clip0)">
<path d="M17.978 17.3081C19.8646 15.7419 20.7005 6.4865 21.5172 3.15961C22.3339 -0.167307 25.7114 0.00143119 25.7114 0.00143119C25.7114 0.00143119 24.8346 1.53304 25.1922 2.676C25.5499 3.81895 28 4.84062 28 4.84062L27.4715 6.23891C27.4715 6.23891 26.3681 6.09719 25.7114 7.41556C25.0548 8.73388 26.1335 21.7874 26.1335 21.7874C26.1335 21.7874 22.1869 29.6002 22.1869 32.8988C22.1869 36.1975 23.7426 38.962 23.7426 38.962H21.5596C21.5596 38.962 18.3573 35.1372 17.7005 33.2256C17.0438 31.314 17.3063 29.4024 17.3063 29.4024C17.3063 29.4024 13.8255 29.2047 10.7389 29.4024C7.65229 29.6002 5.59384 32.2633 5.22233 33.7529C4.85082 35.2426 4.69693 38.962 4.69693 38.962H2.97089C1.92033 35.7081 1.08596 34.5419 1.5386 32.8988C2.79237 28.3478 2.5461 25.7666 2.2558 24.6169C1.96551 23.4672 0 22.4638 0 22.4638C0.962811 20.495 1.9456 19.549 6.17309 19.4503C10.4006 19.3516 16.0914 18.8742 17.978 17.3081Z" fill="#EC4815"/>
<path d="M7 32.7086C7 32.7086 7.446 36.8513 9.8156 38.9624H11.8462C9.8156 36.6536 9.59411 30.6353 9.59411 30.6353C8.56126 30.9728 7.13137 32.1813 7 32.7086Z" fill="#EC4815"/>
</g>
<defs>
<clipPath id="clip0">
<rect width="28" height="39" fill="white"/>
</clipPath>
</defs>
</svg>
