<svg width="18" height="19" viewBox="0 0 18 19" fill="none" xmlns="http://www.w3.org/2000/svg">
<path d="M6.02056 15.241C6.02056 15.3177 5.9371 15.3791 5.83185 15.3791C5.7121 15.3906 5.62863 15.3292 5.62863 15.241C5.62863 15.1643 5.7121 15.1029 5.81734 15.1029C5.92621 15.0914 6.02056 15.1528 6.02056 15.241ZM4.89194 15.0684C4.86653 15.1451 4.93911 15.2333 5.04798 15.2564C5.14234 15.2947 5.25121 15.2564 5.27298 15.1797C5.29476 15.1029 5.22581 15.0147 5.11694 14.9802C5.02258 14.9534 4.91734 14.9917 4.89194 15.0684ZM6.49597 15.0032C6.39073 15.0301 6.31814 15.1029 6.32903 15.1912C6.33992 15.2679 6.43427 15.3177 6.54315 15.2909C6.64839 15.264 6.72097 15.1912 6.71008 15.1145C6.69919 15.0416 6.60121 14.9917 6.49597 15.0032ZM8.88387 0.306641C3.8504 0.306641 0 4.34514 0 9.6646C0 13.9179 2.53306 17.5575 6.15121 18.8385C6.61573 18.9267 6.77903 18.6237 6.77903 18.3744C6.77903 18.1366 6.76815 16.825 6.76815 16.0196C6.76815 16.0196 4.22782 16.5949 3.69435 14.8767C3.69435 14.8767 3.28065 13.7606 2.68548 13.473C2.68548 13.473 1.85444 12.8708 2.74355 12.8824C2.74355 12.8824 3.64718 12.9591 4.14435 13.8718C4.93911 15.3522 6.27097 14.9265 6.78992 14.6734C6.87339 14.0598 7.10927 13.6341 7.37056 13.3809C5.34194 13.1431 3.29516 12.8325 3.29516 9.143C3.29516 8.08832 3.57097 7.55906 4.15161 6.88406C4.05726 6.63477 3.74879 5.60692 4.24597 4.27994C5.00444 4.03065 6.75 5.31545 6.75 5.31545C7.47581 5.10068 8.25605 4.98945 9.02903 4.98945C9.80202 4.98945 10.5823 5.10068 11.3081 5.31545C11.3081 5.31545 13.0536 4.02681 13.8121 4.27994C14.3093 5.61076 14.0008 6.63477 13.9065 6.88406C14.4871 7.56289 14.8427 8.09215 14.8427 9.143C14.8427 12.844 12.7052 13.1393 10.6766 13.3809C11.0105 13.6839 11.2935 14.2592 11.2935 15.1605C11.2935 16.4529 11.2827 18.0522 11.2827 18.3667C11.2827 18.616 11.4496 18.919 11.9105 18.8308C15.5395 17.5575 18 13.9179 18 9.6646C18 4.34514 13.9173 0.306641 8.88387 0.306641ZM3.52742 13.5343C3.48024 13.5727 3.49113 13.6609 3.55282 13.7338C3.61089 13.7951 3.69435 13.822 3.74153 13.7721C3.78871 13.7338 3.77782 13.6456 3.71613 13.5727C3.65806 13.5113 3.5746 13.4845 3.52742 13.5343ZM3.13548 13.2237C3.11008 13.2735 3.14637 13.3349 3.21895 13.3733C3.27702 13.4116 3.3496 13.4001 3.375 13.3464C3.4004 13.2966 3.36411 13.2352 3.29153 13.1968C3.21895 13.1738 3.16089 13.1853 3.13548 13.2237ZM4.31129 14.589C4.25323 14.6389 4.275 14.7539 4.35847 14.8268C4.44194 14.915 4.54718 14.9265 4.59435 14.8652C4.64153 14.8153 4.61976 14.7002 4.54718 14.6274C4.46734 14.5392 4.35847 14.5277 4.31129 14.589ZM3.89758 14.0252C3.83952 14.0636 3.83952 14.1633 3.89758 14.2515C3.95565 14.3397 4.05363 14.3781 4.10081 14.3397C4.15887 14.2899 4.15887 14.1902 4.10081 14.102C4.05 14.0137 3.95565 13.9754 3.89758 14.0252Z" fill="white" fill-opacity="0.67"/>
</svg>
