<svg width="18" height="20" viewBox="0 0 18 20" fill="none" xmlns="http://www.w3.org/2000/svg">
<path d="M4.02911 17.1819H0.297321V5.71076H4.02911V17.1819ZM2.16121 4.14599C0.967902 4.14599 0 3.20252 0 2.06346C8.54116e-09 1.51632 0.227698 0.991599 0.633002 0.604718C1.03831 0.217836 1.58802 0.000488281 2.16121 0.000488281C2.73439 0.000488281 3.2841 0.217836 3.68941 0.604718C4.09471 0.991599 4.32241 1.51632 4.32241 2.06346C4.32241 3.20252 3.35411 4.14599 2.16121 4.14599ZM17.996 17.1819H14.2722V11.5978C14.2722 10.267 14.2441 8.56033 12.332 8.56033C10.3918 8.56033 10.0945 10.0062 10.0945 11.502V17.1819H6.3667V5.71076H9.9458V7.27553H9.99804C10.4963 6.37425 11.7133 5.42312 13.5289 5.42312C17.3057 5.42312 18 7.79712 18 10.8806V17.1819H17.996Z" fill="white" fill-opacity="0.67"/>
</svg>
