<svg width="28" height="28" viewBox="0 0 28 28" fill="none" xmlns="http://www.w3.org/2000/svg">
<path d="M20 10.5H18.9286V8.35714C18.9286 5.4 16.5286 3 13.5714 3C10.6143 3 8.21429 5.4 8.21429 8.35714V10.5H7.14286C5.96429 10.5 5 11.4643 5 12.6429V23.3571C5 24.5357 5.96429 25.5 7.14286 25.5H20C21.1786 25.5 22.1429 24.5357 22.1429 23.3571V12.6429C22.1429 11.4643 21.1786 10.5 20 10.5ZM13.5714 20.1429C12.3929 20.1429 11.4286 19.1786 11.4286 18C11.4286 16.8214 12.3929 15.8571 13.5714 15.8571C14.75 15.8571 15.7143 16.8214 15.7143 18C15.7143 19.1786 14.75 20.1429 13.5714 20.1429ZM16.8929 10.5H10.25V8.35714C10.25 6.525 11.7393 5.03571 13.5714 5.03571C15.4036 5.03571 16.8929 6.525 16.8929 8.35714V10.5Z" fill="#D0F224"/>
</svg>
