<svg width="18" height="20" viewBox="0 0 18 20" fill="none" xmlns="http://www.w3.org/2000/svg">
<path d="M16.1497 5.81884C16.1612 5.99326 16.1612 6.16773 16.1612 6.34215C16.1612 11.6624 12.4493 17.7925 5.66497 17.7925C3.57486 17.7925 1.63325 17.1321 0 15.9859C0.296965 16.0233 0.582469 16.0357 0.890859 16.0357C2.61545 16.0357 4.20303 15.4003 5.4708 14.3163C3.84898 14.2789 2.48984 13.1202 2.02155 11.5253C2.25 11.5627 2.47841 11.5876 2.71828 11.5876C3.04949 11.5876 3.38073 11.5378 3.68909 11.4506C1.99874 11.0768 0.730934 9.45705 0.730934 7.50089V7.45107C1.22203 7.75011 1.79314 7.937 2.39843 7.96189C1.40477 7.23921 0.753785 6.00573 0.753785 4.61024C0.753785 3.86268 0.936492 3.1774 1.25631 2.57934C3.0723 5.02142 5.80201 6.61622 8.86289 6.79068C8.8058 6.49165 8.77152 6.18019 8.77152 5.8687C8.77152 3.65086 10.4162 1.84424 12.4606 1.84424C13.5228 1.84424 14.4822 2.33016 15.156 3.11512C15.9898 2.94069 16.7893 2.60427 17.4974 2.14327C17.2233 3.07776 16.6408 3.86272 15.8756 4.36107C16.618 4.27389 17.3375 4.04957 17.9999 3.73811C17.4975 4.53549 16.8693 5.24566 16.1497 5.81884Z" fill="white" fill-opacity="0.67"/>
</svg>
